SplineFontDB: 3.0
FontName: LiberationSans-Italic
FullName: Liberation Sans Italic
FamilyName: Liberation Sans
Weight: Book
Copyright: Copyright © 2007 Red Hat, Inc. All rights reserved. LIBERATION is a trademark of Red Hat, Inc.
Version: 1.06
ItalicAngle: -12
UnderlinePosition: -142
UnderlineWidth: 150
Ascent: 1638
Descent: 410
LayerCount: 2
Layer: 0 1 "Back"  1
Layer: 1 1 "Fore"  0
NeedsXUIDChange: 1
XUID: [1021 131 222397055 2032059]
FSType: 8
OS2Version: 3
OS2_WeightWidthSlopeOnly: 0
OS2_UseTypoMetrics: 1
CreationTime: 1123372800
ModificationTime: 1298442378
PfmFamily: 17
TTFWeight: 400
TTFWidth: 5
LineGap: 67
VLineGap: 0
Panose: 2 11 6 4 2 2 2 9 2 4
OS2TypoAscent: -147
OS2TypoAOffset: 1
OS2TypoDescent: -15
OS2TypoDOffset: 1
OS2TypoLinegap: 307
OS2WinAscent: -223
OS2WinAOffset: 1
OS2WinDescent: -187
OS2WinDOffset: 1
HheadAscent: -223
HheadAOffset: 1
HheadDescent: 187
HheadDOffset: 1
OS2SubXSize: 1434
OS2SubYSize: 1331
OS2SubXOff: 30
OS2SubYOff: 283
OS2SupXSize: 1434
OS2SupYSize: 1331
OS2SupXOff: 90
OS2SupYOff: 977
OS2StrikeYSize: 102
OS2StrikeYPos: 530
OS2FamilyClass: 2053
OS2Vendor: '1ASC'
OS2CodePages: 6000009f.dfd70000
OS2UnicodeRanges: a00002af.500078fb.00000000.00000000
Lookup: 258 0 0 "'kern' Horizontal Kerning lookup 0"  {"'kern' Horizontal Kerning lookup 0 subtable"  } ['kern' ('DFLT' <'dflt' > 'cyrl' <'dflt' > 'grek' <'dflt' > 'latn' <'dflt' > ) ]
DEI: 91125
TtTable: prep
PUSHW_8
 80
 263
 1
 47
 263
 1
 175
 260
NPUSHB
 149
 1
 208
 253
 1
 191
 253
 1
 16
 253
 1
 111
 251
 1
 64
 251
 1
 245
 80
 40
 31
 242
 70
 40
 31
 240
 70
 43
 31
 127
 239
 159
 239
 2
 47
 239
 111
 239
 127
 239
 175
 239
 207
 239
 5
 0
 236
 16
 236
 64
 236
 80
 236
 112
 236
 128
 236
 6
 9
 229
 228
 30
 31
 227
 226
 70
 31
 15
 226
 1
 64
 226
 70
 22
 31
 225
 224
 70
 31
 191
 224
 207
 224
 223
 224
 3
 64
 224
 51
 54
 70
 224
 70
 24
 31
 221
 61
 223
 85
 222
 61
 3
 85
 223
 1
 3
 85
 220
 3
 255
 31
 15
 213
 1
 15
 213
 255
 213
 2
 255
 213
 1
 159
 212
 1

StartChar: .notdef
Encoding: 1114112 -1 0
Width: 748
Flags: W
LayerCount: 2
Fore
SplineSet
68 0 m 1,0,-1
 68 1365 l 1,1,-1
 612 1365 l 1,2,-1
 612 0 l 1,3,-1
 68 0 l 1,0,-1
136 68 m 1,4,-1
 544 68 l 1,5,-1
 544 1297 l 1,6,-1
 136 1297 l 1,7,-1
 136 68 l 1,4,-1
EndSplineSet
EndChar

StartChar: exclam
Encoding: 33 33 4
Width: 569
Flags: W
LayerCount: 2
Fore
SplineSet
329 397 m 1,0,-1
 181 397 l 1,1,-1
 353 1409 l 1,2,-1
 549 1409 l 1,3,-1
 329 397 l 1,0,-1
77 0 m 1,4,-1
 117 201 l 1,5,-1
 311 201 l 1,6,-1
 271 0 l 1,7,-1
 77 0 l 1,4,-1
EndSplineSet
EndChar

StartChar: quotedbl
Encoding: 34 34 5
Width: 727
Flags: W
LayerCount: 2
Fore
SplineSet
697 966 m 1,0,-1
 555 966 l 1,1,-1
 619 1409 l 1,2,-1
 803 1409 l 1,3,-1
 697 966 l 1,0,-1
328 966 m 1,4,-1
 187 966 l 1,5,-1
 250 1409 l 1,6,-1
 434 1409 l 1,7,-1
 328 966 l 1,4,-1
EndSplineSet
EndChar

StartChar: numbersign
Encoding: 35 35 6
Width: 1139
Flags: W
LayerCount: 2
Fore
SplineSet
926 885 m 1,0,-1
 848 516 l 1,1,-1
 1108 516 l 1,2,-1
 1108 408 l 1,3,-1
 825 408 l 1,4,-1
 737 0 l 1,5,-1
 627 0 l 1,6,-1
 713 408 l 1,7,-1
 350 408 l 1,8,-1
 266 0 l 1,9,-1
 156 0 l 1,10,-1
 240 408 l 1,11,-1
 39 408 l 1,12,-1
 39 516 l 1,13,-1
 264 516 l 1,14,-1
 342 885 l 1,15,-1
 90 885 l 1,16,-1
 90 993 l 1,17,-1
 364 993 l 1,18,-1
 453 1401 l 1,19,-1
 563 1401 l 1,20,-1
 475 993 l 1,21,-1
 838 993 l 1,22,-1
 926 1401 l 1,23,-1
 1036 1401 l 1,24,-1
 948 993 l 1,25,-1
 1159 993 l 1,26,-1
 1159 885 l 1,27,-1
 926 885 l 1,0,-1
455 885 m 1,28,-1
 375 516 l 1,29,-1
 737 516 l 1,30,-1
 815 885 l 1,31,-1
 455 885 l 1,28,-1
EndSplineSet
EndChar

StartChar: dollar
Encoding: 36 36 7
Width: 1139
Flags: W
LayerCount: 2
Fore
SplineSet
1072 425 m 0,0,1
 1072 332 1072 332 1036.5 258.5 c 128,-1,2
 1001 185 1001 185 933 133.5 c 128,-1,3
 865 82 865 82 766 53.5 c 128,-1,4
 667 25 667 25 540 21 c 1,5,-1
 509 -140 l 1,6,-1
 395 -140 l 1,7,-1
 427 23 l 1,8,9
 226 37 226 37 120.5 127 c 128,-1,10
 15 217 15 217 -12 376 c 1,11,-1
 151 413 l 1,12,13
 163 358 163 358 186.5 314.5 c 128,-1,14
 210 271 210 271 246.5 240.5 c 128,-1,15
 283 210 283 210 334.5 192.5 c 128,-1,16
 386 175 386 175 455 170 c 1,17,-1
 551 663 l 1,18,19
 475 684 475 684 407.5 710.5 c 128,-1,20
 340 737 340 737 289.5 777.5 c 128,-1,21
 239 818 239 818 210 876 c 128,-1,22
 181 934 181 934 181 1018 c 0,23,24
 181 1111 181 1111 223 1179.5 c 128,-1,25
 265 1248 265 1248 335.5 1293.5 c 128,-1,26
 406 1339 406 1339 498.5 1361.5 c 128,-1,27
 591 1384 591 1384 691 1385 c 1,28,-1
 716 1516 l 1,29,-1
 830 1516 l 1,30,-1
 803 1379 l 1,31,32
 886 1369 886 1369 949.5 1343.5 c 128,-1,33
 1013 1318 1013 1318 1058 1279.5 c 128,-1,34
 1103 1241 1103 1241 1130.5 1192.5 c 128,-1,35
 1158 1144 1158 1144 1170 1087 c 1,36,-1
 1014 1042 l 1,37,38
 992 1123 992 1123 933.5 1172.5 c 128,-1,39
 875 1222 875 1222 776 1236 c 1,40,-1
 690 795 l 1,41,42
 761 776 761 776 829.5 747 c 128,-1,43
 898 718 898 718 952 674.5 c 128,-1,44
 1006 631 1006 631 1039 570 c 128,-1,45
 1072 509 1072 509 1072 425 c 0,0,1
887 413 m 0,46,47
 887 460 887 460 870.5 494 c 128,-1,48
 854 528 854 528 824 553 c 128,-1,49
 794 578 794 578 752 597 c 128,-1,50
 710 616 710 616 659 632 c 1,51,-1
 569 169 l 1,52,53
 642 173 642 173 701 188.5 c 128,-1,54
 760 204 760 204 801 233.5 c 128,-1,55
 842 263 842 263 864.5 307 c 128,-1,56
 887 351 887 351 887 413 c 0,46,47
363 1018 m 0,57,58
 363 978 363 978 377.5 949 c 128,-1,59
 392 920 392 920 420 897.5 c 128,-1,60
 448 875 448 875 489 858 c 128,-1,61
 530 841 530 841 582 825 c 1,62,-1
 663 1240 l 1,63,64
 583 1237 583 1237 526 1219 c 128,-1,65
 469 1201 469 1201 433 1172 c 128,-1,66
 397 1143 397 1143 380 1103.5 c 128,-1,67
 363 1064 363 1064 363 1018 c 0,57,58
EndSplineSet
EndChar

StartChar: percent
Encoding: 37 37 8
Width: 1821
Flags: W
LayerCount: 2
Fore
SplineSet
425 0 m 1,0,-1
 260 0 l 1,1,-1
 1446 1409 l 1,2,-1
 1613 1409 l 1,3,-1
 425 0 l 1,0,-1
545 1421 m 0,4,5
 598 1421 598 1421 645 1405 c 128,-1,6
 692 1389 692 1389 727.5 1352.5 c 128,-1,7
 763 1316 763 1316 783.5 1257 c 128,-1,8
 804 1198 804 1198 804 1113 c 0,9,10
 804 1076 804 1076 799.5 1029.5 c 128,-1,11
 795 983 795 983 786 935 c 0,12,13
 762 809 762 809 717 729 c 128,-1,14
 672 649 672 649 619 603.5 c 128,-1,15
 566 558 566 558 509.5 541 c 128,-1,16
 453 524 453 524 406 524 c 0,17,18
 351 524 351 524 303.5 542 c 128,-1,19
 256 560 256 560 221 598.5 c 128,-1,20
 186 637 186 637 166 697 c 128,-1,21
 146 757 146 757 146 841 c 0,22,23
 146 878 146 878 150 923.5 c 128,-1,24
 154 969 154 969 163 1015 c 0,25,26
 189 1146 189 1146 233 1226 c 128,-1,27
 277 1306 277 1306 330 1349.5 c 128,-1,28
 383 1393 383 1393 439.5 1407 c 128,-1,29
 496 1421 496 1421 545 1421 c 0,4,5
544 1313 m 0,30,31
 507 1313 507 1313 472 1301.5 c 128,-1,32
 437 1290 437 1290 406 1256.5 c 128,-1,33
 375 1223 375 1223 349 1163 c 128,-1,34
 323 1103 323 1103 304 1005 c 0,35,36
 284 899 284 899 284 827 c 0,37,38
 284 729 284 729 317 683 c 128,-1,39
 350 637 350 637 410 637 c 0,40,41
 445 637 445 637 478.5 649.5 c 128,-1,42
 512 662 512 662 543 696 c 128,-1,43
 574 730 574 730 600 790 c 128,-1,44
 626 850 626 850 644 945 c 0,45,46
 665 1056 665 1056 665 1131 c 0,47,48
 665 1227 665 1227 633.5 1270 c 128,-1,49
 602 1313 602 1313 544 1313 c 0,30,31
1474 885 m 0,50,51
 1527 885 1527 885 1574 869 c 128,-1,52
 1621 853 1621 853 1656.5 816.5 c 128,-1,53
 1692 780 1692 780 1712.5 721 c 128,-1,54
 1733 662 1733 662 1733 577 c 0,55,56
 1733 540 1733 540 1728.5 493.5 c 128,-1,57
 1724 447 1724 447 1715 399 c 0,58,59
 1691 273 1691 273 1646 193 c 128,-1,60
 1601 113 1601 113 1548 67.5 c 128,-1,61
 1495 22 1495 22 1438.5 5 c 128,-1,62
 1382 -12 1382 -12 1335 -12 c 0,63,64
 1280 -12 1280 -12 1232.5 6 c 128,-1,65
 1185 24 1185 24 1150 62.5 c 128,-1,66
 1115 101 1115 101 1095 161 c 128,-1,67
 1075 221 1075 221 1075 305 c 0,68,69
 1075 342 1075 342 1079 387.5 c 128,-1,70
 1083 433 1083 433 1092 479 c 0,71,72
 1118 610 1118 610 1162 690 c 128,-1,73
 1206 770 1206 770 1259 813.5 c 128,-1,74
 1312 857 1312 857 1368.5 871 c 128,-1,75
 1425 885 1425 885 1474 885 c 0,50,51
1473 777 m 0,76,77
 1436 777 1436 777 1401 765.5 c 128,-1,78
 1366 754 1366 754 1335 720.5 c 128,-1,79
 1304 687 1304 687 1278 627 c 128,-1,80
 1252 567 1252 567 1233 469 c 0,81,82
 1213 363 1213 363 1213 291 c 0,83,84
 1213 193 1213 193 1246 147 c 128,-1,85
 1279 101 1279 101 1339 101 c 0,86,87
 1374 101 1374 101 1407.5 113.5 c 128,-1,88
 1441 126 1441 126 1472 160 c 128,-1,89
 1503 194 1503 194 1529 254 c 128,-1,90
 1555 314 1555 314 1573 409 c 0,91,92
 1594 520 1594 520 1594 595 c 0,93,94
 1594 691 1594 691 1562.5 734 c 128,-1,95
 1531 777 1531 777 1473 777 c 0,76,77
EndSplineSet
EndChar

StartChar: ampersand
Encoding: 38 38 9
Width: 1366
Flags: W
LayerCount: 2
Fore
SplineSet
1248 684 m 1,0,1
 1221 623 1221 623 1190 560.5 c 128,-1,2
 1159 498 1159 498 1123.5 436.5 c 128,-1,3
 1088 375 1088 375 1046.5 317 c 128,-1,4
 1005 259 1005 259 957 208 c 1,5,6
 997 170 997 170 1047.5 149.5 c 128,-1,7
 1098 129 1098 129 1144 129 c 0,8,9
 1176 129 1176 129 1201.5 132.5 c 128,-1,10
 1227 136 1227 136 1256 145 c 1,11,-1
 1243 10 l 1,12,13
 1213 -1 1213 -1 1184.5 -6.5 c 128,-1,14
 1156 -12 1156 -12 1118 -12 c 0,15,16
 1044 -12 1044 -12 975 19.5 c 128,-1,17
 906 51 906 51 847 110 c 1,18,19
 765 50 765 50 665 15 c 128,-1,20
 565 -20 565 -20 440 -20 c 0,21,22
 334 -20 334 -20 257.5 10 c 128,-1,23
 181 40 181 40 131 91 c 128,-1,24
 81 142 81 142 57 209.5 c 128,-1,25
 33 277 33 277 33 351 c 0,26,27
 33 441 33 441 61 508.5 c 128,-1,28
 89 576 89 576 143.5 628.5 c 128,-1,29
 198 681 198 681 278 723.5 c 128,-1,30
 358 766 358 766 462 806 c 1,31,32
 450 857 450 857 442 915 c 128,-1,33
 434 973 434 973 434 1036 c 0,34,35
 434 1119 434 1119 461 1189 c 128,-1,36
 488 1259 488 1259 539 1309.5 c 128,-1,37
 590 1360 590 1360 664.5 1388.5 c 128,-1,38
 739 1417 739 1417 833 1417 c 0,39,40
 902 1417 902 1417 959.5 1398 c 128,-1,41
 1017 1379 1017 1379 1058 1344.5 c 128,-1,42
 1099 1310 1099 1310 1121.5 1262 c 128,-1,43
 1144 1214 1144 1214 1144 1155 c 0,44,45
 1144 1095 1144 1095 1124.5 1048 c 128,-1,46
 1105 1001 1105 1001 1071 962.5 c 128,-1,47
 1037 924 1037 924 990 893 c 128,-1,48
 943 862 943 862 887.5 835 c 128,-1,49
 832 808 832 808 770.5 783.5 c 128,-1,50
 709 759 709 759 646 734 c 1,51,52
 664 681 664 681 685.5 629.5 c 128,-1,53
 707 578 707 578 733 526.5 c 128,-1,54
 759 475 759 475 791.5 422.5 c 128,-1,55
 824 370 824 370 864 315 c 1,56,57
 904 361 904 361 939 412.5 c 128,-1,58
 974 464 974 464 1005 518.5 c 128,-1,59
 1036 573 1036 573 1063.5 629 c 128,-1,60
 1091 685 1091 685 1116 739 c 1,61,-1
 1248 684 l 1,0,1
452 111 m 0,62,63
 541 111 541 111 615 138 c 128,-1,64
 689 165 689 165 753 212 c 1,65,66
 710 265 710 265 672.5 324 c 128,-1,67
 635 383 635 383 603 443.5 c 128,-1,68
 571 504 571 504 545.5 563.5 c 128,-1,69
 520 623 520 623 502 675 c 1,70,71
 431 647 431 647 375.5 617 c 128,-1,72
 320 587 320 587 281.5 550 c 128,-1,73
 243 513 243 513 223 465.5 c 128,-1,74
 203 418 203 418 203 354 c 0,75,76
 203 300 203 300 220 255.5 c 128,-1,77
 237 211 237 211 269 179 c 128,-1,78
 301 147 301 147 347 129 c 128,-1,79
 393 111 393 111 452 111 c 0,62,63
592 1041 m 0,80,81
 592 996 592 996 597.5 950.5 c 128,-1,82
 603 905 603 905 611 863 c 1,83,84
 690 892 690 892 759 918 c 128,-1,85
 828 944 828 944 879.5 976 c 128,-1,86
 931 1008 931 1008 960.5 1049 c 128,-1,87
 990 1090 990 1090 990 1148 c 0,88,89
 990 1181 990 1181 978 1208 c 128,-1,90
 966 1235 966 1235 944.5 1254.5 c 128,-1,91
 923 1274 923 1274 893 1285 c 128,-1,92
 863 1296 863 1296 826 1296 c 0,93,94
 774 1296 774 1296 730.5 1280 c 128,-1,95
 687 1264 687 1264 656.5 1232 c 128,-1,96
 626 1200 626 1200 609 1152.5 c 128,-1,97
 592 1105 592 1105 592 1041 c 0,80,81
EndSplineSet
EndChar

StartChar: quotesingle
Encoding: 39 39 10
Width: 391
Flags: W
LayerCount: 2
Fore
SplineSet
343 966 m 1,0,-1
 202 966 l 1,1,-1
 265 1409 l 1,2,-1
 449 1409 l 1,3,-1
 343 966 l 1,0,-1
EndSplineSet
EndChar

StartChar: parenleft
Encoding: 40 40 11
Width: 682
Flags: W
LayerCount: 2
Fore
SplineSet
855 1484 m 1,0,1
 571 1234 571 1234 424 931 c 128,-1,2
 277 628 277 628 277 262 c 0,3,4
 277 72 277 72 327.5 -100 c 128,-1,5
 378 -272 378 -272 484 -424 c 1,6,-1
 310 -424 l 1,7,8
 200 -272 200 -272 148 -94.5 c 128,-1,9
 96 83 96 83 96 278 c 0,10,11
 96 459 96 459 132.5 628 c 128,-1,12
 169 797 169 797 242.5 949.5 c 128,-1,13
 316 1102 316 1102 425.5 1236.5 c 128,-1,14
 535 1371 535 1371 681 1484 c 1,15,-1
 855 1484 l 1,0,1
EndSplineSet
EndChar

StartChar: parenright
Encoding: 41 41 12
Width: 682
Flags: W
LayerCount: 2
Fore
SplineSet
-199 -424 m 1,0,1
 85 -174 85 -174 232 129 c 128,-1,2
 379 432 379 432 379 798 c 0,3,4
 379 988 379 988 328.5 1160 c 128,-1,5
 278 1332 278 1332 172 1484 c 1,6,-1
 346 1484 l 1,7,8
 456 1332 456 1332 508 1154.5 c 128,-1,9
 560 977 560 977 560 782 c 0,10,11
 560 601 560 601 523.5 432 c 128,-1,12
 487 263 487 263 413.5 110.5 c 128,-1,13
 340 -42 340 -42 230.5 -176.5 c 128,-1,14
 121 -311 121 -311 -25 -424 c 1,15,-1
 -199 -424 l 1,0,1
EndSplineSet
EndChar

StartChar: asterisk
Encoding: 42 42 13
Width: 797
Flags: W
LayerCount: 2
Fore
SplineSet
543 1114 m 1,0,-1
 807 1217 l 1,1,-1
 852 1085 l 1,2,-1
 570 1012 l 1,3,-1
 755 762 l 1,4,-1
 636 690 l 1,5,-1
 486 948 l 1,6,-1
 330 692 l 1,7,-1
 211 764 l 1,8,-1
 400 1012 l 1,9,-1
 120 1085 l 1,10,-1
 165 1219 l 1,11,-1
 432 1112 l 1,12,-1
 420 1409 l 1,13,-1
 556 1409 l 1,14,-1
 543 1114 l 1,0,-1
EndSplineSet
EndChar

StartChar: plus
Encoding: 43 43 14
Width: 1196
Flags: W
LayerCount: 2
Fore
SplineSet
701 608 m 1,0,-1
 701 180 l 1,1,-1
 554 180 l 1,2,-1
 554 608 l 1,3,-1
 130 608 l 1,4,-1
 130 754 l 1,5,-1
 554 754 l 1,6,-1
 554 1182 l 1,7,-1
 701 1182 l 1,8,-1
 701 754 l 1,9,-1
 1125 754 l 1,10,-1
 1125 608 l 1,11,-1
 701 608 l 1,0,-1
EndSplineSet
EndChar

StartChar: comma
Encoding: 44 44 15
Width: 569
Flags: W
LayerCount: 2
Fore
SplineSet
299 51 m 2,0,1
 289 -2 289 -2 275.5 -45.5 c 128,-1,2
 262 -89 262 -89 245 -126.5 c 128,-1,3
 228 -164 228 -164 207 -197 c 128,-1,4
 186 -230 186 -230 160 -262 c 1,5,-1
 37 -262 l 1,6,7
 94 -197 94 -197 131.5 -131 c 128,-1,8
 169 -65 169 -65 182 0 c 1,9,-1
 94 0 l 1,10,-1
 136 219 l 1,11,-1
 331 219 l 1,12,-1
 299 51 l 2,0,1
EndSplineSet
EndChar

StartChar: uni00AD
Encoding: 173 173 16
AltUni2: 00002d.ffffffff.0 00002d.ffffffff.0 00002d.ffffffff.0 00002d.ffffffff.0
Width: 682
Flags: W
LayerCount: 2
Fore
SplineSet
105 464 m 1,0,-1
 136 624 l 1,1,-1
 636 624 l 1,2,-1
 605 464 l 1,3,-1
 105 464 l 1,0,-1
EndSplineSet
EndChar

StartChar: period
Encoding: 46 46 17
Width: 569
Flags: W
LayerCount: 2
Fore
SplineSet
80 0 m 1,0,-1
 123 219 l 1,1,-1
 318 219 l 1,2,-1
 275 0 l 1,3,-1
 80 0 l 1,0,-1
EndSplineSet
EndChar

StartChar: slash
Encoding: 47 47 18
Width: 569
Flags: W
LayerCount: 2
Fore
SplineSet
-116 -20 m 1,0,-1
 587 1484 l 1,1,-1
 745 1484 l 1,2,-1
 45 -20 l 1,3,-1
 -116 -20 l 1,0,-1
EndSplineSet
EndChar

StartChar: zero
Encoding: 48 48 19
Width: 1139
Flags: W
LayerCount: 2
Fore
SplineSet
732 1430 m 0,0,1
 813 1430 813 1430 884.5 1402.5 c 128,-1,2
 956 1375 956 1375 1008.5 1318 c 128,-1,3
 1061 1261 1061 1261 1091.5 1173 c 128,-1,4
 1122 1085 1122 1085 1122 964 c 0,5,6
 1122 901 1122 901 1116.5 824.5 c 128,-1,7
 1111 748 1111 748 1094 665 c 0,8,9
 1054 462 1054 462 988 329.5 c 128,-1,10
 922 197 922 197 839.5 119.5 c 128,-1,11
 757 42 757 42 663.5 11 c 128,-1,12
 570 -20 570 -20 476 -20 c 0,13,14
 393 -20 393 -20 322 10 c 128,-1,15
 251 40 251 40 199.5 100 c 128,-1,16
 148 160 148 160 118.5 251 c 128,-1,17
 89 342 89 342 89 465 c 0,18,19
 89 498 89 498 90 529.5 c 128,-1,20
 91 561 91 561 94 594 c 128,-1,21
 97 627 97 627 102 664 c 128,-1,22
 107 701 107 701 115 745 c 0,23,24
 142 887 142 887 182 992.5 c 128,-1,25
 222 1098 222 1098 270 1174.5 c 128,-1,26
 318 1251 318 1251 374 1300.5 c 128,-1,27
 430 1350 430 1350 489 1378.5 c 128,-1,28
 548 1407 548 1407 610 1418.5 c 128,-1,29
 672 1430 672 1430 732 1430 c 0,0,1
491 127 m 0,30,31
 567 127 567 127 631 154 c 128,-1,32
 695 181 695 181 748.5 245.5 c 128,-1,33
 802 310 802 310 844 417 c 128,-1,34
 886 524 886 524 917 685 c 0,35,36
 934 770 934 770 940.5 842 c 128,-1,37
 947 914 947 914 947 973 c 0,38,39
 947 1128 947 1128 887.5 1206 c 128,-1,40
 828 1284 828 1284 720 1284 c 0,41,42
 644 1284 644 1284 580 1257 c 128,-1,43
 516 1230 516 1230 462.5 1165.5 c 128,-1,44
 409 1101 409 1101 367 994 c 128,-1,45
 325 887 325 887 294 726 c 0,46,47
 277 641 277 641 270.5 569 c 128,-1,48
 264 497 264 497 264 438 c 0,49,50
 264 283 264 283 323.5 205 c 128,-1,51
 383 127 383 127 491 127 c 0,30,31
EndSplineSet
EndChar

StartChar: one
Encoding: 49 49 20
Width: 1139
Flags: W
LayerCount: 2
Fore
SplineSet
53 0 m 1,0,-1
 83 153 l 1,1,-1
 442 153 l 1,2,-1
 650 1223 l 1,3,-1
 289 1000 l 1,4,-1
 324 1180 l 1,5,-1
 701 1409 l 1,6,-1
 867 1409 l 1,7,-1
 623 153 l 1,8,-1
 966 153 l 1,9,-1
 936 0 l 1,10,-1
 53 0 l 1,0,-1
EndSplineSet
EndChar

StartChar: two
Encoding: 50 50 21
Width: 1139
Flags: W
LayerCount: 2
Fore
SplineSet
-12 0 m 1,0,-1
 12 127 l 1,1,2
 67 220 67 220 135 293 c 128,-1,3
 203 366 203 366 277 425.5 c 128,-1,4
 351 485 351 485 427.5 534 c 128,-1,5
 504 583 504 583 575.5 628.5 c 128,-1,6
 647 674 647 674 709.5 719 c 128,-1,7
 772 764 772 764 819 815 c 128,-1,8
 866 866 866 866 893 926.5 c 128,-1,9
 920 987 920 987 920 1063 c 0,10,11
 920 1114 920 1114 903 1154.5 c 128,-1,12
 886 1195 886 1195 855.5 1223.5 c 128,-1,13
 825 1252 825 1252 782.5 1267 c 128,-1,14
 740 1282 740 1282 689 1282 c 0,15,16
 580 1282 580 1282 499 1222.5 c 128,-1,17
 418 1163 418 1163 381 1044 c 1,18,-1
 211 1081 l 1,19,20
 235 1157 235 1157 276 1221 c 128,-1,21
 317 1285 317 1285 377 1331.5 c 128,-1,22
 437 1378 437 1378 517.5 1404 c 128,-1,23
 598 1430 598 1430 700 1430 c 0,24,25
 789 1430 789 1430 864 1405 c 128,-1,26
 939 1380 939 1380 993.5 1333.5 c 128,-1,27
 1048 1287 1048 1287 1078.5 1222.5 c 128,-1,28
 1109 1158 1109 1158 1109 1078 c 0,29,30
 1109 993 1109 993 1079.5 921 c 128,-1,31
 1050 849 1050 849 1000 787.5 c 128,-1,32
 950 726 950 726 884 672 c 128,-1,33
 818 618 818 618 745 568 c 128,-1,34
 672 518 672 518 596 470 c 128,-1,35
 520 422 520 422 450 372 c 128,-1,36
 380 322 380 322 321 268.5 c 128,-1,37
 262 215 262 215 222 153 c 1,38,-1
 949 153 l 1,39,-1
 920 0 l 1,40,-1
 -12 0 l 1,0,-1
EndSplineSet
EndChar

StartChar: three
Encoding: 51 51 22
Width: 1139
Flags: W
LayerCount: 2
Fore
SplineSet
566 795 m 2,0,1
 602 795 602 795 643.5 799 c 128,-1,2
 685 803 685 803 725.5 813.5 c 128,-1,3
 766 824 766 824 803 844 c 128,-1,4
 840 864 840 864 868 895.5 c 128,-1,5
 896 927 896 927 913 972.5 c 128,-1,6
 930 1018 930 1018 930 1081 c 0,7,8
 930 1125 930 1125 915.5 1162 c 128,-1,9
 901 1199 901 1199 872.5 1225.5 c 128,-1,10
 844 1252 844 1252 803 1267 c 128,-1,11
 762 1282 762 1282 708 1282 c 0,12,13
 589 1282 589 1282 503.5 1221 c 128,-1,14
 418 1160 418 1160 384 1049 c 1,15,-1
 206 1063 l 1,16,17
 264 1249 264 1249 397.5 1339.5 c 128,-1,18
 531 1430 531 1430 718 1430 c 0,19,20
 811 1430 811 1430 885.5 1406.5 c 128,-1,21
 960 1383 960 1383 1012.5 1338.5 c 128,-1,22
 1065 1294 1065 1294 1093 1230.5 c 128,-1,23
 1121 1167 1121 1167 1121 1086 c 0,24,25
 1121 1008 1121 1008 1095.5 944.5 c 128,-1,26
 1070 881 1070 881 1022 834 c 128,-1,27
 974 787 974 787 906 757.5 c 128,-1,28
 838 728 838 728 753 717 c 1,29,-1
 752 713 l 1,30,31
 883 687 883 687 956 608.5 c 128,-1,32
 1029 530 1029 530 1029 407 c 0,33,34
 1029 320 1029 320 997.5 242 c 128,-1,35
 966 164 966 164 903.5 106 c 128,-1,36
 841 48 841 48 746.5 14 c 128,-1,37
 652 -20 652 -20 526 -20 c 0,38,39
 412 -20 412 -20 328 12.5 c 128,-1,40
 244 45 244 45 186.5 97 c 128,-1,41
 129 149 129 149 95.5 212.5 c 128,-1,42
 62 276 62 276 48 338 c 1,43,-1
 212 386 l 1,44,45
 224 340 224 340 249.5 294.5 c 128,-1,46
 275 249 275 249 315.5 212 c 128,-1,47
 356 175 356 175 412 152 c 128,-1,48
 468 129 468 129 541 129 c 0,49,50
 615 129 615 129 671 149.5 c 128,-1,51
 727 170 727 170 764.5 206.5 c 128,-1,52
 802 243 802 243 821.5 293.5 c 128,-1,53
 841 344 841 344 841 404 c 256,54,55
 841 464 841 464 820 508 c 128,-1,56
 799 552 799 552 761.5 581 c 128,-1,57
 724 610 724 610 673 624.5 c 128,-1,58
 622 639 622 639 562 639 c 2,59,-1
 438 639 l 1,60,-1
 468 795 l 1,61,-1
 566 795 l 2,0,1
EndSplineSet
EndChar

StartChar: four
Encoding: 52 52 23
Width: 1139
Flags: W
LayerCount: 2
Fore
SplineSet
846 319 m 1,0,-1
 784 0 l 1,1,-1
 604 0 l 1,2,-1
 666 319 l 1,3,-1
 13 319 l 1,4,-1
 40 459 l 1,5,-1
 859 1409 l 1,6,-1
 1058 1409 l 1,7,-1
 874 461 l 1,8,-1
 1062 461 l 1,9,-1
 1034 319 l 1,10,-1
 846 319 l 1,0,-1
826 1157 m 1,11,-1
 227 461 l 1,12,-1
 694 461 l 1,13,-1
 826 1157 l 1,11,-1
EndSplineSet
EndChar

StartChar: five
Encoding: 53 53 24
Width: 1139
Flags: W
LayerCount: 2
Fore
SplineSet
343 1409 m 1,0,-1
 1144 1409 l 1,1,-1
 1115 1256 l 1,2,-1
 478 1256 l 1,3,-1
 364 809 l 1,4,5
 383 825 383 825 410 841 c 128,-1,6
 437 857 437 857 472 870 c 128,-1,7
 507 883 507 883 549.5 891 c 128,-1,8
 592 899 592 899 641 899 c 0,9,10
 730 899 730 899 805 872.5 c 128,-1,11
 880 846 880 846 935 795.5 c 128,-1,12
 990 745 990 745 1020.5 672 c 128,-1,13
 1051 599 1051 599 1051 506 c 0,14,15
 1051 387 1051 387 1015.5 290 c 128,-1,16
 980 193 980 193 911 124 c 128,-1,17
 842 55 842 55 740 17.5 c 128,-1,18
 638 -20 638 -20 505 -20 c 0,19,20
 399 -20 399 -20 321 5 c 128,-1,21
 243 30 243 30 188.5 74 c 128,-1,22
 134 118 134 118 99.5 178 c 128,-1,23
 65 238 65 238 46 309 c 1,24,-1
 209 352 l 1,25,26
 220 312 220 312 241 271.5 c 128,-1,27
 262 231 262 231 298 199 c 128,-1,28
 334 167 334 167 387.5 147 c 128,-1,29
 441 127 441 127 515 127 c 0,30,31
 593 127 593 127 657 149 c 128,-1,32
 721 171 721 171 766.5 216 c 128,-1,33
 812 261 812 261 836.5 328.5 c 128,-1,34
 861 396 861 396 861 486 c 0,35,36
 861 553 861 553 840.5 603 c 128,-1,37
 820 653 820 653 785.5 686 c 128,-1,38
 751 719 751 719 704.5 735.5 c 128,-1,39
 658 752 658 752 607 752 c 0,40,41
 511 752 511 752 444 723.5 c 128,-1,42
 377 695 377 695 325 651 c 1,43,-1
 149 651 l 1,44,-1
 343 1409 l 1,0,-1
EndSplineSet
EndChar

StartChar: six
Encoding: 54 54 25
Width: 1139
Flags: W
LayerCount: 2
Fore
SplineSet
534 -20 m 0,0,1
 435 -20 435 -20 357 16 c 128,-1,2
 279 52 279 52 225.5 116.5 c 128,-1,3
 172 181 172 181 143.5 270 c 128,-1,4
 115 359 115 359 115 464 c 0,5,6
 115 519 115 519 120.5 585.5 c 128,-1,7
 126 652 126 652 138 715 c 0,8,9
 175 903 175 903 238 1038.5 c 128,-1,10
 301 1174 301 1174 383 1261 c 128,-1,11
 465 1348 465 1348 561.5 1389 c 128,-1,12
 658 1430 658 1430 761 1430 c 0,13,14
 829 1430 829 1430 889 1414.5 c 128,-1,15
 949 1399 949 1399 998.5 1365 c 128,-1,16
 1048 1331 1048 1331 1084 1278.5 c 128,-1,17
 1120 1226 1120 1226 1139 1151 c 1,18,-1
 973 1115 l 1,19,20
 948 1196 948 1196 891 1240 c 128,-1,21
 834 1284 834 1284 753 1284 c 0,22,23
 675 1284 675 1284 605.5 1249 c 128,-1,24
 536 1214 536 1214 479 1144 c 128,-1,25
 422 1074 422 1074 378 969.5 c 128,-1,26
 334 865 334 865 307 726 c 1,27,28
 367 816 367 816 458.5 863.5 c 128,-1,29
 550 911 550 911 663 911 c 0,30,31
 746 911 746 911 816.5 884.5 c 128,-1,32
 887 858 887 858 938 808.5 c 128,-1,33
 989 759 989 759 1018 689 c 128,-1,34
 1047 619 1047 619 1047 533 c 0,35,36
 1047 422 1047 422 1011 322 c 128,-1,37
 975 222 975 222 908.5 146 c 128,-1,38
 842 70 842 70 747 25 c 128,-1,39
 652 -20 652 -20 534 -20 c 0,0,1
288 421 m 0,40,41
 288 360 288 360 304.5 306 c 128,-1,42
 321 252 321 252 353 211.5 c 128,-1,43
 385 171 385 171 431.5 148 c 128,-1,44
 478 125 478 125 538 125 c 0,45,46
 609 125 609 125 668.5 155.5 c 128,-1,47
 728 186 728 186 771 239.5 c 128,-1,48
 814 293 814 293 837.5 365.5 c 128,-1,49
 861 438 861 438 861 522 c 0,50,51
 861 637 861 637 801.5 704.5 c 128,-1,52
 742 772 742 772 630 772 c 0,53,54
 576 772 576 772 515.5 753.5 c 128,-1,55
 455 735 455 735 404.5 693.5 c 128,-1,56
 354 652 354 652 321 585 c 128,-1,57
 288 518 288 518 288 421 c 0,40,41
EndSplineSet
EndChar

StartChar: seven
Encoding: 55 55 26
Width: 1139
Flags: W
LayerCount: 2
Fore
SplineSet
1174 1263 m 1,0,1
 1082 1155 1082 1155 998.5 1055.5 c 128,-1,2
 915 956 915 956 841.5 859 c 128,-1,3
 768 762 768 762 704.5 664 c 128,-1,4
 641 566 641 566 589.5 461.5 c 128,-1,5
 538 357 538 357 499 243 c 128,-1,6
 460 129 460 129 435 0 c 1,7,-1
 247 0 l 1,8,9
 285 191 285 191 357 356 c 128,-1,10
 429 521 429 521 525.5 672 c 128,-1,11
 622 823 622 823 739.5 966 c 128,-1,12
 857 1109 857 1109 986 1256 c 1,13,-1
 212 1256 l 1,14,-1
 241 1409 l 1,15,-1
 1202 1409 l 1,16,-1
 1174 1263 l 1,0,1
EndSplineSet
EndChar

StartChar: eight
Encoding: 56 56 27
Width: 1139
Flags: W
LayerCount: 2
Fore
SplineSet
704 1429 m 0,0,1
 800 1429 800 1429 878 1405 c 128,-1,2
 956 1381 956 1381 1011.5 1337 c 128,-1,3
 1067 1293 1067 1293 1097 1230.5 c 128,-1,4
 1127 1168 1127 1168 1127 1091 c 0,5,6
 1127 1022 1127 1022 1104.5 961 c 128,-1,7
 1082 900 1082 900 1040.5 853 c 128,-1,8
 999 806 999 806 940 775 c 128,-1,9
 881 744 881 744 807 733 c 1,10,-1
 806 729 l 1,11,12
 856 714 856 714 898 688 c 128,-1,13
 940 662 940 662 970 624.5 c 128,-1,14
 1000 587 1000 587 1016.5 539 c 128,-1,15
 1033 491 1033 491 1033 432 c 0,16,17
 1033 335 1033 335 999.5 252.5 c 128,-1,18
 966 170 966 170 899.5 109.5 c 128,-1,19
 833 49 833 49 733 14.5 c 128,-1,20
 633 -20 633 -20 500 -20 c 0,21,22
 386 -20 386 -20 302 8.5 c 128,-1,23
 218 37 218 37 163 88 c 128,-1,24
 108 139 108 139 81 208.5 c 128,-1,25
 54 278 54 278 54 360 c 0,26,27
 54 457 54 457 87.5 526 c 128,-1,28
 121 595 121 595 173 642 c 128,-1,29
 225 689 225 689 288.5 716 c 128,-1,30
 352 743 352 743 411 756 c 1,31,-1
 411 760 l 1,32,33
 320 798 320 798 270 873.5 c 128,-1,34
 220 949 220 949 220 1052 c 0,35,36
 220 1139 220 1139 253 1209 c 128,-1,37
 286 1279 286 1279 348 1327.5 c 128,-1,38
 410 1376 410 1376 500 1402.5 c 128,-1,39
 590 1429 590 1429 704 1429 c 0,0,1
658 811 m 0,40,41
 745 811 745 811 800 837.5 c 128,-1,42
 855 864 855 864 886.5 904.5 c 128,-1,43
 918 945 918 945 929.5 993.5 c 128,-1,44
 941 1042 941 1042 941 1087 c 0,45,46
 941 1185 941 1185 875.5 1239.5 c 128,-1,47
 810 1294 810 1294 683 1294 c 0,48,49
 622 1294 622 1294 570 1278.5 c 128,-1,50
 518 1263 518 1263 480 1231 c 128,-1,51
 442 1199 442 1199 421 1150 c 128,-1,52
 400 1101 400 1101 400 1033 c 0,53,54
 400 993 400 993 413 953.5 c 128,-1,55
 426 914 426 914 456 882.5 c 128,-1,56
 486 851 486 851 535.5 831 c 128,-1,57
 585 811 585 811 658 811 c 0,40,41
566 672 m 0,58,59
 484 672 484 672 422.5 649 c 128,-1,60
 361 626 361 626 320.5 584.5 c 128,-1,61
 280 543 280 543 259.5 485 c 128,-1,62
 239 427 239 427 239 356 c 0,63,64
 239 305 239 305 256 261 c 128,-1,65
 273 217 273 217 307.5 185 c 128,-1,66
 342 153 342 153 394.5 135 c 128,-1,67
 447 117 447 117 519 117 c 0,68,69
 588 117 588 117 648 137.5 c 128,-1,70
 708 158 708 158 753 198 c 128,-1,71
 798 238 798 238 824 297.5 c 128,-1,72
 850 357 850 357 850 436 c 0,73,74
 850 480 850 480 835 522.5 c 128,-1,75
 820 565 820 565 786.5 598 c 128,-1,76
 753 631 753 631 698.5 651.5 c 128,-1,77
 644 672 644 672 566 672 c 0,58,59
EndSplineSet
EndChar

StartChar: nine
Encoding: 57 57 28
Width: 1139
Flags: W
LayerCount: 2
Fore
SplineSet
898 684 m 1,0,1
 836 590 836 590 751.5 535.5 c 128,-1,2
 667 481 667 481 559 481 c 0,3,4
 462 481 462 481 388 514 c 128,-1,5
 314 547 314 547 264 602 c 128,-1,6
 214 657 214 657 188.5 729.5 c 128,-1,7
 163 802 163 802 163 881 c 0,8,9
 163 994 163 994 200 1094 c 128,-1,10
 237 1194 237 1194 305 1268.5 c 128,-1,11
 373 1343 373 1343 468.5 1386.5 c 128,-1,12
 564 1430 564 1430 682 1430 c 0,13,14
 777 1430 777 1430 853.5 1399 c 128,-1,15
 930 1368 930 1368 984 1307.5 c 128,-1,16
 1038 1247 1038 1247 1067.5 1159 c 128,-1,17
 1097 1071 1097 1071 1097 957 c 0,18,19
 1097 930 1097 930 1095 896 c 128,-1,20
 1093 862 1093 862 1089.5 825.5 c 128,-1,21
 1086 789 1086 789 1081 751 c 128,-1,22
 1076 713 1076 713 1069 679 c 0,23,24
 1032 491 1032 491 968 358 c 128,-1,25
 904 225 904 225 822.5 141 c 128,-1,26
 741 57 741 57 646 18.5 c 128,-1,27
 551 -20 551 -20 453 -20 c 0,28,29
 292 -20 292 -20 199 52 c 128,-1,30
 106 124 106 124 70 257 c 1,31,-1
 228 302 l 1,32,33
 252 217 252 217 311 171 c 128,-1,34
 370 125 370 125 461 125 c 0,35,36
 541 125 541 125 608.5 162 c 128,-1,37
 676 199 676 199 731 270.5 c 128,-1,38
 786 342 786 342 828 446 c 128,-1,39
 870 550 870 550 898 684 c 1,0,1
925 1017 m 0,40,41
 925 1075 925 1075 908 1124 c 128,-1,42
 891 1173 891 1173 858.5 1208.5 c 128,-1,43
 826 1244 826 1244 780.5 1264 c 128,-1,44
 735 1284 735 1284 678 1284 c 0,45,46
 606 1284 606 1284 545 1256.5 c 128,-1,47
 484 1229 484 1229 439.5 1177.5 c 128,-1,48
 395 1126 395 1126 370.5 1050.5 c 128,-1,49
 346 975 346 975 346 879 c 0,50,51
 346 816 346 816 363 768 c 128,-1,52
 380 720 380 720 411 688 c 128,-1,53
 442 656 442 656 485 639.5 c 128,-1,54
 528 623 528 623 580 623 c 0,55,56
 630 623 630 623 683 640 c 128,-1,57
 736 657 736 657 782.5 692 c 128,-1,58
 829 727 829 727 864.5 780.5 c 128,-1,59
 900 834 900 834 914 907 c 0,60,61
 925 968 925 968 925 1017 c 0,40,41
EndSplineSet
EndChar

StartChar: colon
Encoding: 58 58 29
Width: 569
Flags: W
LayerCount: 2
Fore
SplineSet
251 875 m 1,0,-1
 292 1082 l 1,1,-1
 487 1082 l 1,2,-1
 446 875 l 1,3,-1
 251 875 l 1,0,-1
81 0 m 1,4,-1
 122 207 l 1,5,-1
 317 207 l 1,6,-1
 276 0 l 1,7,-1
 81 0 l 1,4,-1
EndSplineSet
EndChar

StartChar: uni037E
Encoding: 894 894 30
AltUni2: 00003b.ffffffff.0 00003b.ffffffff.0 00003b.ffffffff.0 00003b.ffffffff.0
Width: 569
Flags: W
LayerCount: 2
Fore
SplineSet
300 51 m 2,0,1
 290 -2 290 -2 276.5 -45.5 c 128,-1,2
 263 -89 263 -89 246 -126.5 c 128,-1,3
 229 -164 229 -164 208 -197 c 128,-1,4
 187 -230 187 -230 161 -262 c 1,5,-1
 38 -262 l 1,6,7
 95 -197 95 -197 132.5 -131 c 128,-1,8
 170 -65 170 -65 183 0 c 1,9,-1
 95 0 l 1,10,-1
 135 207 l 1,11,-1
 330 207 l 1,12,-1
 300 51 l 2,0,1
265 875 m 1,13,-1
 305 1082 l 1,14,-1
 500 1082 l 1,15,-1
 460 875 l 1,16,-1
 265 875 l 1,13,-1
EndSplineSet
EndChar

StartChar: less
Encoding: 60 60 31
Width: 1196
Flags: W
LayerCount: 2
Fore
SplineSet
131 571 m 1,0,-1
 131 776 l 1,1,-1
 1126 1194 l 1,2,-1
 1126 1040 l 1,3,-1
 268 674 l 1,4,-1
 1126 307 l 1,5,-1
 1126 154 l 1,6,-1
 131 571 l 1,0,-1
EndSplineSet
EndChar

StartChar: equal
Encoding: 61 61 32
Width: 1196
Flags: W
LayerCount: 2
Fore
SplineSet
130 856 m 1,0,-1
 130 1004 l 1,1,-1
 1125 1004 l 1,2,-1
 1125 856 l 1,3,-1
 130 856 l 1,0,-1
130 344 m 1,4,-1
 130 492 l 1,5,-1
 1125 492 l 1,6,-1
 1125 344 l 1,7,-1
 130 344 l 1,4,-1
EndSplineSet
EndChar

StartChar: greater
Encoding: 62 62 33
Width: 1196
Flags: W
LayerCount: 2
Fore
SplineSet
131 154 m 1,0,-1
 131 307 l 1,1,-1
 989 674 l 1,2,-1
 131 1040 l 1,3,-1
 131 1194 l 1,4,-1
 1126 776 l 1,5,-1
 1126 571 l 1,6,-1
 131 154 l 1,0,-1
EndSplineSet
EndChar

StartChar: question
Encoding: 63 63 34
Width: 1139
Flags: W
LayerCount: 2
Fore
SplineSet
701 1430 m 0,0,1
 802 1430 802 1430 882 1403 c 128,-1,2
 962 1376 962 1376 1017.5 1328 c 128,-1,3
 1073 1280 1073 1280 1103 1215 c 128,-1,4
 1133 1150 1133 1150 1133 1073 c 0,5,6
 1133 976 1133 976 1102.5 907.5 c 128,-1,7
 1072 839 1072 839 1023.5 788.5 c 128,-1,8
 975 738 975 738 914.5 701 c 128,-1,9
 854 664 854 664 794 629 c 0,10,11
 752 605 752 605 712.5 579.5 c 128,-1,12
 673 554 673 554 641 524.5 c 128,-1,13
 609 495 609 495 586.5 459 c 128,-1,14
 564 423 564 423 555 377 c 1,15,-1
 380 377 l 1,16,17
 393 455 393 455 425.5 511.5 c 128,-1,18
 458 568 458 568 502.5 610.5 c 128,-1,19
 547 653 547 653 599 685 c 128,-1,20
 651 717 651 717 702 746 c 0,21,22
 750 773 750 773 794 801.5 c 128,-1,23
 838 830 838 830 872 865 c 128,-1,24
 906 900 906 900 926 945.5 c 128,-1,25
 946 991 946 991 946 1052 c 0,26,27
 946 1100 946 1100 927 1140.5 c 128,-1,28
 908 1181 908 1181 873.5 1209.5 c 128,-1,29
 839 1238 839 1238 791 1254 c 128,-1,30
 743 1270 743 1270 684 1270 c 0,31,32
 544 1270 544 1270 453 1200 c 128,-1,33
 362 1130 362 1130 324 1008 c 1,34,-1
 159 1048 l 1,35,36
 186 1132 186 1132 229.5 1202 c 128,-1,37
 273 1272 273 1272 338.5 1322.5 c 128,-1,38
 404 1373 404 1373 493.5 1401.5 c 128,-1,39
 583 1430 583 1430 701 1430 c 0,0,1
299 0 m 1,40,-1
 338 201 l 1,41,-1
 533 201 l 1,42,-1
 494 0 l 1,43,-1
 299 0 l 1,40,-1
EndSplineSet
EndChar

StartChar: at
Encoding: 64 64 35
Width: 2079
Flags: W
LayerCount: 2
Fore
SplineSet
1935 755 m 0,0,1
 1935 611 1935 611 1901.5 491.5 c 128,-1,2
 1868 372 1868 372 1809 286 c 128,-1,3
 1750 200 1750 200 1668 152 c 128,-1,4
 1586 104 1586 104 1488 104 c 0,5,6
 1432 104 1432 104 1392.5 117.5 c 128,-1,7
 1353 131 1353 131 1328.5 154.5 c 128,-1,8
 1304 178 1304 178 1292.5 210 c 128,-1,9
 1281 242 1281 242 1281 280 c 0,10,11
 1281 295 1281 295 1282 316.5 c 128,-1,12
 1283 338 1283 338 1284 350 c 1,13,-1
 1278 350 l 1,14,15
 1254 305 1254 305 1219.5 260.5 c 128,-1,16
 1185 216 1185 216 1138.5 181.5 c 128,-1,17
 1092 147 1092 147 1033.5 125.5 c 128,-1,18
 975 104 975 104 904 104 c 0,19,20
 820 104 820 104 757.5 133 c 128,-1,21
 695 162 695 162 654.5 213.5 c 128,-1,22
 614 265 614 265 594 335.5 c 128,-1,23
 574 406 574 406 574 489 c 0,24,25
 574 609 574 609 609.5 719.5 c 128,-1,26
 645 830 645 830 711 914.5 c 128,-1,27
 777 999 777 999 869.5 1050 c 128,-1,28
 962 1101 962 1101 1076 1101 c 0,29,30
 1136 1101 1136 1101 1184 1087.5 c 128,-1,31
 1232 1074 1232 1074 1268.5 1050 c 128,-1,32
 1305 1026 1305 1026 1332 992.5 c 128,-1,33
 1359 959 1359 959 1377 919 c 1,34,-1
 1383 919 l 1,35,-1
 1422 1079 l 1,36,-1
 1578 1079 l 1,37,-1
 1462 573 l 2,38,39
 1443 489 1443 489 1434 429 c 128,-1,40
 1425 369 1425 369 1425 320 c 0,41,42
 1425 272 1425 272 1446.5 249 c 128,-1,43
 1468 226 1468 226 1506 226 c 0,44,45
 1568 226 1568 226 1621.5 266.5 c 128,-1,46
 1675 307 1675 307 1714.5 378 c 128,-1,47
 1754 449 1754 449 1776.5 545 c 128,-1,48
 1799 641 1799 641 1799 753 c 0,49,50
 1799 882 1799 882 1757.5 993 c 128,-1,51
 1716 1104 1716 1104 1635.5 1185 c 128,-1,52
 1555 1266 1555 1266 1436 1312 c 128,-1,53
 1317 1358 1317 1358 1161 1358 c 0,54,55
 1027 1358 1027 1358 913.5 1326 c 128,-1,56
 800 1294 800 1294 708 1236 c 128,-1,57
 616 1178 616 1178 546.5 1097.5 c 128,-1,58
 477 1017 477 1017 430 921 c 128,-1,59
 383 825 383 825 359 716 c 128,-1,60
 335 607 335 607 335 491 c 0,61,62
 335 350 335 350 378 231 c 128,-1,63
 421 112 421 112 503.5 26.5 c 128,-1,64
 586 -59 586 -59 708 -107 c 128,-1,65
 830 -155 830 -155 987 -155 c 0,66,67
 1092 -155 1092 -155 1183 -138.5 c 128,-1,68
 1274 -122 1274 -122 1350 -98 c 128,-1,69
 1426 -74 1426 -74 1486.5 -45.5 c 128,-1,70
 1547 -17 1547 -17 1590 7 c 1,71,-1
 1645 -105 l 1,72,73
 1595 -135 1595 -135 1527.5 -166.5 c 128,-1,74
 1460 -198 1460 -198 1377 -224 c 128,-1,75
 1294 -250 1294 -250 1196 -266.5 c 128,-1,76
 1098 -283 1098 -283 987 -283 c 0,77,78
 797 -283 797 -283 649.5 -225.5 c 128,-1,79
 502 -168 502 -168 401 -65 c 128,-1,80
 300 38 300 38 247 180 c 128,-1,81
 194 322 194 322 194 491 c 0,82,83
 194 630 194 630 225.5 758 c 128,-1,84
 257 886 257 886 316 996 c 128,-1,85
 375 1106 375 1106 460 1196 c 128,-1,86
 545 1286 545 1286 652.5 1350 c 128,-1,87
 760 1414 760 1414 887.5 1449 c 128,-1,88
 1015 1484 1015 1484 1159 1484 c 0,89,90
 1360 1484 1360 1484 1506 1425 c 128,-1,91
 1652 1366 1652 1366 1747.5 1266 c 128,-1,92
 1843 1166 1843 1166 1889 1034 c 128,-1,93
 1935 902 1935 902 1935 755 c 0,0,1
1329 747 m 0,94,95
 1329 797 1329 797 1312 839 c 128,-1,96
 1295 881 1295 881 1263.5 911 c 128,-1,97
 1232 941 1232 941 1187.5 957.5 c 128,-1,98
 1143 974 1143 974 1087 974 c 0,99,100
 1002 974 1002 974 936.5 931.5 c 128,-1,101
 871 889 871 889 827.5 820 c 128,-1,102
 784 751 784 751 761.5 664.5 c 128,-1,103
 739 578 739 578 739 491 c 0,104,105
 739 371 739 371 786.5 303 c 128,-1,106
 834 235 834 235 933 235 c 0,107,108
 1002 235 1002 235 1062.5 266 c 128,-1,109
 1123 297 1123 297 1171 348 c 128,-1,110
 1219 399 1219 399 1253.5 465.5 c 128,-1,111
 1288 532 1288 532 1306 602 c 0,112,113
 1315 638 1315 638 1322 678 c 128,-1,114
 1329 718 1329 718 1329 747 c 0,94,95
EndSplineSet
EndChar

StartChar: A
Encoding: 65 65 36
Width: 1366
Flags: W
LayerCount: 2
Fore
SplineSet
1061 0 m 1,0,-1
 986 412 l 1,1,-1
 347 412 l 1,2,-1
 107 0 l 1,3,-1
 -101 0 l 1,4,-1
 747 1409 l 1,5,-1
 964 1409 l 1,6,-1
 1256 0 l 1,7,-1
 1061 0 l 1,0,-1
871 1034 m 2,8,9
 863 1075 863 1075 855.5 1114 c 128,-1,10
 848 1153 848 1153 843 1185.5 c 128,-1,11
 838 1218 838 1218 834.5 1239.5 c 128,-1,12
 831 1261 831 1261 830 1265 c 1,13,14
 828 1261 828 1261 816.5 1239 c 128,-1,15
 805 1217 805 1217 787 1184.5 c 128,-1,16
 769 1152 769 1152 747 1112.5 c 128,-1,17
 725 1073 725 1073 701 1033 c 2,18,-1
 431 561 l 1,19,-1
 958 561 l 1,20,-1
 871 1034 l 2,8,9
EndSplineSet
EndChar

StartChar: B
Encoding: 66 66 37
Width: 1366
Flags: W
LayerCount: 2
Fore
SplineSet
336 1409 m 1,0,-1
 846 1409 l 2,1,2
 950 1409 950 1409 1033 1387 c 128,-1,3
 1116 1365 1116 1365 1174.5 1323.5 c 128,-1,4
 1233 1282 1233 1282 1264.5 1222 c 128,-1,5
 1296 1162 1296 1162 1296 1087 c 0,6,7
 1296 941 1296 941 1210 856.5 c 128,-1,8
 1124 772 1124 772 957 743 c 1,9,10
 1028 731 1028 731 1082.5 703.5 c 128,-1,11
 1137 676 1137 676 1173.5 636 c 128,-1,12
 1210 596 1210 596 1228.5 546 c 128,-1,13
 1247 496 1247 496 1247 439 c 0,14,15
 1247 356 1247 356 1224 291 c 128,-1,16
 1201 226 1201 226 1160 177 c 128,-1,17
 1119 128 1119 128 1063.5 94.5 c 128,-1,18
 1008 61 1008 61 942.5 40 c 128,-1,19
 877 19 877 19 804.5 9.5 c 128,-1,20
 732 0 732 0 658 0 c 2,21,-1
 63 0 l 1,22,-1
 336 1409 l 1,0,-1
411 810 m 1,23,-1
 742 810 l 2,24,25
 923 810 923 810 1010 875 c 128,-1,26
 1097 940 1097 940 1097 1068 c 0,27,28
 1097 1163 1097 1163 1028.5 1209.5 c 128,-1,29
 960 1256 960 1256 829 1256 c 2,30,-1
 498 1256 l 1,31,-1
 411 810 l 1,23,-1
283 153 m 1,32,-1
 651 153 l 2,33,34
 729 153 729 153 802.5 165 c 128,-1,35
 876 177 876 177 932 209 c 128,-1,36
 988 241 988 241 1022 297 c 128,-1,37
 1056 353 1056 353 1056 442 c 0,38,39
 1056 549 1056 549 976.5 605 c 128,-1,40
 897 661 897 661 748 661 c 2,41,-1
 382 661 l 1,42,-1
 283 153 l 1,32,-1
EndSplineSet
EndChar

StartChar: C
Encoding: 67 67 38
Width: 1479
Flags: W
LayerCount: 2
Fore
SplineSet
1358 337 m 1,0,1
 1309 264 1309 264 1248 199 c 128,-1,2
 1187 134 1187 134 1108.5 85.5 c 128,-1,3
 1030 37 1030 37 929.5 8.5 c 128,-1,4
 829 -20 829 -20 700 -20 c 0,5,6
 552 -20 552 -20 441.5 26 c 128,-1,7
 331 72 331 72 258 151.5 c 128,-1,8
 185 231 185 231 149 338.5 c 128,-1,9
 113 446 113 446 113 569 c 0,10,11
 113 693 113 693 140 805 c 128,-1,12
 167 917 167 917 217 1012.5 c 128,-1,13
 267 1108 267 1108 339 1185.5 c 128,-1,14
 411 1263 411 1263 501.5 1317 c 128,-1,15
 592 1371 592 1371 699 1400.5 c 128,-1,16
 806 1430 806 1430 926 1430 c 0,17,18
 1055 1430 1055 1430 1152 1400.5 c 128,-1,19
 1249 1371 1249 1371 1318 1323 c 128,-1,20
 1387 1275 1387 1275 1429 1213 c 128,-1,21
 1471 1151 1471 1151 1490 1085 c 1,22,-1
 1310 1030 l 1,23,24
 1295 1077 1295 1077 1264 1120.5 c 128,-1,25
 1233 1164 1233 1164 1184.5 1198.5 c 128,-1,26
 1136 1233 1136 1233 1069.5 1253.5 c 128,-1,27
 1003 1274 1003 1274 916 1274 c 0,28,29
 770 1274 770 1274 656 1220.5 c 128,-1,30
 542 1167 542 1167 463 1072.5 c 128,-1,31
 384 978 384 978 343 848.5 c 128,-1,32
 302 719 302 719 302 566 c 0,33,34
 302 472 302 472 328 393 c 128,-1,35
 354 314 354 314 405.5 256.5 c 128,-1,36
 457 199 457 199 534 167 c 128,-1,37
 611 135 611 135 713 135 c 0,38,39
 803 135 803 135 878 159.5 c 128,-1,40
 953 184 953 184 1015.5 224.5 c 128,-1,41
 1078 265 1078 265 1127.5 317.5 c 128,-1,42
 1177 370 1177 370 1215 426 c 1,43,-1
 1358 337 l 1,0,1
EndSplineSet
EndChar

StartChar: D
Encoding: 68 68 39
Width: 1479
Flags: W
LayerCount: 2
Fore
SplineSet
744 1409 m 2,0,1
 892 1409 892 1409 1015 1369.5 c 128,-1,2
 1138 1330 1138 1330 1226.5 1252 c 128,-1,3
 1315 1174 1315 1174 1364 1058.5 c 128,-1,4
 1413 943 1413 943 1413 791 c 0,5,6
 1413 658 1413 658 1381.5 548 c 128,-1,7
 1350 438 1350 438 1293 350 c 128,-1,8
 1236 262 1236 262 1158 196.5 c 128,-1,9
 1080 131 1080 131 987 87 c 128,-1,10
 894 43 894 43 789.5 21.5 c 128,-1,11
 685 0 685 0 575 0 c 2,12,-1
 63 0 l 1,13,-1
 336 1409 l 1,14,-1
 744 1409 l 2,0,1
283 153 m 1,15,-1
 567 153 l 2,16,17
 714 153 714 153 834.5 197 c 128,-1,18
 955 241 955 241 1040.5 323.5 c 128,-1,19
 1126 406 1126 406 1172.5 524.5 c 128,-1,20
 1219 643 1219 643 1219 793 c 0,21,22
 1219 913 1219 913 1182.5 1000 c 128,-1,23
 1146 1087 1146 1087 1082 1144 c 128,-1,24
 1018 1201 1018 1201 930 1228.5 c 128,-1,25
 842 1256 842 1256 740 1256 c 2,26,-1
 498 1256 l 1,27,-1
 283 153 l 1,15,-1
EndSplineSet
EndChar

StartChar: E
Encoding: 69 69 40
Width: 1366
Flags: W
LayerCount: 2
Fore
SplineSet
63 0 m 1,0,-1
 336 1409 l 1,1,-1
 1385 1409 l 1,2,-1
 1355 1253 l 1,3,-1
 497 1253 l 1,4,-1
 409 801 l 1,5,-1
 1207 801 l 1,6,-1
 1177 647 l 1,7,-1
 379 647 l 1,8,-1
 284 156 l 1,9,-1
 1183 156 l 1,10,-1
 1153 0 l 1,11,-1
 63 0 l 1,0,-1
EndSplineSet
EndChar

StartChar: F
Encoding: 70 70 41
Width: 1251
Flags: W
LayerCount: 2
Fore
SplineSet
497 1253 m 1,0,-1
 395 729 l 1,1,-1
 1191 729 l 1,2,-1
 1160 571 l 1,3,-1
 364 571 l 1,4,-1
 254 0 l 1,5,-1
 63 0 l 1,6,-1
 336 1409 l 1,7,-1
 1347 1409 l 1,8,-1
 1317 1253 l 1,9,-1
 497 1253 l 1,0,-1
EndSplineSet
EndChar

StartChar: G
Encoding: 71 71 42
Width: 1593
Flags: W
LayerCount: 2
Fore
SplineSet
1390 210 m 1,0,1
 1334 162 1334 162 1268.5 120 c 128,-1,2
 1203 78 1203 78 1124 47 c 128,-1,3
 1045 16 1045 16 950.5 -2 c 128,-1,4
 856 -20 856 -20 742 -20 c 0,5,6
 580 -20 580 -20 459.5 23.5 c 128,-1,7
 339 67 339 67 259.5 145 c 128,-1,8
 180 223 180 223 140.5 332 c 128,-1,9
 101 441 101 441 101 573 c 0,10,11
 101 761 101 761 160.5 918.5 c 128,-1,12
 220 1076 220 1076 329.5 1189.5 c 128,-1,13
 439 1303 439 1303 595 1366.5 c 128,-1,14
 751 1430 751 1430 944 1430 c 0,15,16
 1075 1430 1075 1430 1170.5 1403 c 128,-1,17
 1266 1376 1266 1376 1333 1330 c 128,-1,18
 1400 1284 1400 1284 1441.5 1224 c 128,-1,19
 1483 1164 1483 1164 1505 1098 c 1,20,-1
 1312 1044 l 1,21,22
 1297 1091 1297 1091 1269 1132.5 c 128,-1,23
 1241 1174 1241 1174 1195.5 1205.5 c 128,-1,24
 1150 1237 1150 1237 1085 1255.5 c 128,-1,25
 1020 1274 1020 1274 932 1274 c 0,26,27
 779 1274 779 1274 660.5 1221.5 c 128,-1,28
 542 1169 542 1169 461 1075.5 c 128,-1,29
 380 982 380 982 338.5 854.5 c 128,-1,30
 297 727 297 727 297 577 c 0,31,32
 297 480 297 480 324 399 c 128,-1,33
 351 318 351 318 406.5 259.5 c 128,-1,34
 462 201 462 201 547 168 c 128,-1,35
 632 135 632 135 748 135 c 0,36,37
 839 135 839 135 914.5 150 c 128,-1,38
 990 165 990 165 1050 187.5 c 128,-1,39
 1110 210 1110 210 1155.5 238 c 128,-1,40
 1201 266 1201 266 1231 291 c 1,41,-1
 1282 545 l 1,42,-1
 861 545 l 1,43,-1
 893 705 l 1,44,-1
 1490 705 l 1,45,-1
 1390 210 l 1,0,1
EndSplineSet
EndChar

StartChar: H
Encoding: 72 72 43
Width: 1479
Flags: W
LayerCount: 2
Fore
SplineSet
1021 0 m 1,0,-1
 1148 653 l 1,1,-1
 381 653 l 1,2,-1
 254 0 l 1,3,-1
 63 0 l 1,4,-1
 337 1409 l 1,5,-1
 528 1409 l 1,6,-1
 412 813 l 1,7,-1
 1179 813 l 1,8,-1
 1295 1409 l 1,9,-1
 1481 1409 l 1,10,-1
 1207 0 l 1,11,-1
 1021 0 l 1,0,-1
EndSplineSet
EndChar

StartChar: I
Encoding: 73 73 44
Width: 569
Flags: W
LayerCount: 2
Fore
SplineSet
81 0 m 1,0,-1
 355 1409 l 1,1,-1
 546 1409 l 1,2,-1
 272 0 l 1,3,-1
 81 0 l 1,0,-1
EndSplineSet
EndChar

StartChar: J
Encoding: 74 74 45
Width: 1024
Flags: W
LayerCount: 2
Fore
SplineSet
381 -20 m 0,0,1
 222 -20 222 -20 121.5 73 c 128,-1,2
 21 166 21 166 -5 343 c 1,3,-1
 163 376 l 1,4,5
 186 259 186 259 242 197 c 128,-1,6
 298 135 298 135 398 135 c 0,7,8
 458 135 458 135 502 157 c 128,-1,9
 546 179 546 179 577.5 219 c 128,-1,10
 609 259 609 259 629.5 315.5 c 128,-1,11
 650 372 650 372 663 440 c 2,12,-1
 820 1253 l 1,13,-1
 529 1253 l 1,14,-1
 559 1409 l 1,15,-1
 1040 1409 l 1,16,-1
 847 423 l 2,17,18
 828 323 828 323 792.5 241 c 128,-1,19
 757 159 757 159 701.5 101 c 128,-1,20
 646 43 646 43 567 11.5 c 128,-1,21
 488 -20 488 -20 381 -20 c 0,0,1
EndSplineSet
EndChar

StartChar: K
Encoding: 75 75 46
Width: 1366
Flags: W
LayerCount: 2
Fore
SplineSet
1022 0 m 1,0,-1
 550 674 l 1,1,-1
 360 545 l 1,2,-1
 254 0 l 1,3,-1
 63 0 l 1,4,-1
 336 1409 l 1,5,-1
 527 1409 l 1,6,-1
 391 718 l 1,7,-1
 531 847 l 1,8,-1
 1196 1409 l 1,9,-1
 1441 1409 l 1,10,-1
 691 779 l 1,11,-1
 1248 0 l 1,12,-1
 1022 0 l 1,0,-1
EndSplineSet
EndChar

StartChar: L
Encoding: 76 76 47
Width: 1139
Flags: W
LayerCount: 2
Fore
SplineSet
63 0 m 1,0,-1
 336 1409 l 1,1,-1
 527 1409 l 1,2,-1
 284 156 l 1,3,-1
 996 156 l 1,4,-1
 966 0 l 1,5,-1
 63 0 l 1,0,-1
EndSplineSet
EndChar

StartChar: M
Encoding: 77 77 48
Width: 1706
Flags: W
LayerCount: 2
Fore
SplineSet
1261 0 m 1,0,-1
 1441 928 l 2,1,2
 1451 979 1451 979 1462 1032 c 128,-1,3
 1473 1085 1473 1085 1483 1129 c 0,4,5
 1494 1180 1494 1180 1506 1228 c 1,6,7
 1481 1176 1481 1176 1455 1125 c 0,8,9
 1433 1081 1433 1081 1408 1033 c 128,-1,10
 1383 985 1383 985 1361 948 c 2,11,-1
 813 0 l 1,12,-1
 689 0 l 1,13,-1
 504 948 l 2,14,15
 498 978 498 978 491 1025.5 c 128,-1,16
 484 1073 484 1073 478 1118 c 0,17,18
 471 1171 471 1171 463 1228 c 1,19,20
 455 1172 455 1172 446 1117 c 0,21,22
 438 1070 438 1070 429.5 1019 c 128,-1,23
 421 968 421 968 413 928 c 2,24,-1
 233 0 l 1,25,-1
 63 0 l 1,26,-1
 336 1409 l 1,27,-1
 572 1409 l 1,28,-1
 761 432 l 2,29,30
 764 417 764 417 769.5 383.5 c 128,-1,31
 775 350 775 350 780 315 c 0,32,33
 786 275 786 275 793 227 c 1,34,35
 814 271 814 271 833 311 c 0,36,37
 850 346 850 346 867.5 381.5 c 128,-1,38
 885 417 885 417 897 440 c 2,39,-1
 1450 1409 l 1,40,-1
 1706 1409 l 1,41,-1
 1433 0 l 1,42,-1
 1261 0 l 1,0,-1
EndSplineSet
EndChar

StartChar: N
Encoding: 78 78 49
Width: 1479
Flags: W
LayerCount: 2
Fore
SplineSet
987 0 m 1,0,-1
 456 1210 l 1,1,2
 450 1164 450 1164 443 1116 c 0,3,4
 437 1075 437 1075 429.5 1028.5 c 128,-1,5
 422 982 422 982 414 943 c 2,6,-1
 233 0 l 1,7,-1
 63 0 l 1,8,-1
 336 1409 l 1,9,-1
 548 1409 l 1,10,-1
 1082 194 l 1,11,12
 1088 237 1088 237 1095 285 c 0,13,14
 1101 326 1101 326 1109 376.5 c 128,-1,15
 1117 427 1117 427 1127 478 c 2,16,-1
 1308 1409 l 1,17,-1
 1480 1409 l 1,18,-1
 1207 0 l 1,19,-1
 987 0 l 1,0,-1
EndSplineSet
EndChar

StartChar: O
Encoding: 79 79 50
Width: 1593
Flags: W
LayerCount: 2
Fore
SplineSet
938 1430 m 0,0,1
 1082 1430 1082 1430 1193 1387.5 c 128,-1,2
 1304 1345 1304 1345 1380.5 1268 c 128,-1,3
 1457 1191 1457 1191 1496.5 1085 c 128,-1,4
 1536 979 1536 979 1536 851 c 1,5,6
 1535 802 1535 802 1530.5 749.5 c 128,-1,7
 1526 697 1526 697 1516 649 c 0,8,9
 1486 495 1486 495 1415 371.5 c 128,-1,10
 1344 248 1344 248 1239.5 161 c 128,-1,11
 1135 74 1135 74 1000.5 27 c 128,-1,12
 866 -20 866 -20 709 -20 c 0,13,14
 559 -20 559 -20 447 23.5 c 128,-1,15
 335 67 335 67 260.5 145.5 c 128,-1,16
 186 224 186 224 148.5 333 c 128,-1,17
 111 442 111 442 111 573 c 0,18,19
 111 619 111 619 115.5 667 c 128,-1,20
 120 715 120 715 130 764 c 0,21,22
 160 914 160 914 230 1037 c 128,-1,23
 300 1160 300 1160 404.5 1247.5 c 128,-1,24
 509 1335 509 1335 644 1382.5 c 128,-1,25
 779 1430 779 1430 938 1430 c 0,0,1
929 1276 m 0,26,27
 798 1276 798 1276 696 1239 c 128,-1,28
 594 1202 594 1202 518.5 1132 c 128,-1,29
 443 1062 443 1062 394 961 c 128,-1,30
 345 860 345 860 319 732 c 0,31,32
 310 689 310 689 306 645.5 c 128,-1,33
 302 602 302 602 302 563 c 0,34,35
 302 456 302 456 330 375.5 c 128,-1,36
 358 295 358 295 411.5 241.5 c 128,-1,37
 465 188 465 188 542.5 161.5 c 128,-1,38
 620 135 620 135 718 135 c 0,39,40
 850 135 850 135 952.5 172.5 c 128,-1,41
 1055 210 1055 210 1130 280.5 c 128,-1,42
 1205 351 1205 351 1254.5 451.5 c 128,-1,43
 1304 552 1304 552 1329 677 c 0,44,45
 1338 719 1338 719 1341.5 764 c 128,-1,46
 1345 809 1345 809 1345 847 c 0,47,48
 1345 954 1345 954 1316 1034.5 c 128,-1,49
 1287 1115 1287 1115 1233 1168.5 c 128,-1,50
 1179 1222 1179 1222 1102 1249 c 128,-1,51
 1025 1276 1025 1276 929 1276 c 0,26,27
EndSplineSet
EndChar

StartChar: P
Encoding: 80 80 51
Width: 1366
Flags: W
LayerCount: 2
Fore
SplineSet
852 1409 m 2,0,1
 968 1409 968 1409 1060.5 1382 c 128,-1,2
 1153 1355 1153 1355 1218 1305 c 128,-1,3
 1283 1255 1283 1255 1318 1182.5 c 128,-1,4
 1353 1110 1353 1110 1353 1020 c 0,5,6
 1353 910 1353 910 1313.5 822.5 c 128,-1,7
 1274 735 1274 735 1200.5 674.5 c 128,-1,8
 1127 614 1127 614 1021.5 581.5 c 128,-1,9
 916 549 916 549 784 549 c 2,10,-1
 360 549 l 1,11,-1
 254 0 l 1,12,-1
 63 0 l 1,13,-1
 336 1409 l 1,14,-1
 852 1409 l 2,0,1
390 700 m 1,15,-1
 777 700 l 2,16,17
 969 700 969 700 1064 778 c 128,-1,18
 1159 856 1159 856 1159 1011 c 0,19,20
 1159 1076 1159 1076 1136.5 1122 c 128,-1,21
 1114 1168 1114 1168 1073 1198 c 128,-1,22
 1032 1228 1032 1228 974.5 1242 c 128,-1,23
 917 1256 917 1256 847 1256 c 2,24,-1
 498 1256 l 1,25,-1
 390 700 l 1,15,-1
EndSplineSet
EndChar

StartChar: Q
Encoding: 81 81 52
Width: 1593
Flags: W
LayerCount: 2
Fore
SplineSet
928 1430 m 0,0,1
 1072 1430 1072 1430 1183 1387.5 c 128,-1,2
 1294 1345 1294 1345 1370.5 1268 c 128,-1,3
 1447 1191 1447 1191 1486.5 1085 c 128,-1,4
 1526 979 1526 979 1526 851 c 1,5,6
 1525 802 1525 802 1520.5 749.5 c 128,-1,7
 1516 697 1516 697 1506 649 c 0,8,9
 1479 511 1479 511 1418.5 396.5 c 128,-1,10
 1358 282 1358 282 1270 197 c 128,-1,11
 1182 112 1182 112 1068.5 58.5 c 128,-1,12
 955 5 955 5 822 -12 c 1,13,14
 831 -78 831 -78 849 -122.5 c 128,-1,15
 867 -167 867 -167 894 -194 c 128,-1,16
 921 -221 921 -221 957 -232.5 c 128,-1,17
 993 -244 993 -244 1038 -244 c 0,18,19
 1066 -244 1066 -244 1101 -240 c 128,-1,20
 1136 -236 1136 -236 1161 -231 c 1,21,-1
 1143 -365 l 1,22,23
 1105 -376 1105 -376 1064 -381.5 c 128,-1,24
 1023 -387 1023 -387 974 -387 c 0,25,26
 889 -387 889 -387 829.5 -361.5 c 128,-1,27
 770 -336 770 -336 731 -288.5 c 128,-1,28
 692 -241 692 -241 670 -172.5 c 128,-1,29
 648 -104 648 -104 638 -17 c 1,30,31
 504 -8 504 -8 403 39.5 c 128,-1,32
 302 87 302 87 235 164 c 128,-1,33
 168 241 168 241 134.5 345.5 c 128,-1,34
 101 450 101 450 101 573 c 0,35,36
 101 619 101 619 105.5 667 c 128,-1,37
 110 715 110 715 120 764 c 0,38,39
 150 914 150 914 220 1037 c 128,-1,40
 290 1160 290 1160 394.5 1247.5 c 128,-1,41
 499 1335 499 1335 634 1382.5 c 128,-1,42
 769 1430 769 1430 928 1430 c 0,0,1
919 1276 m 0,43,44
 788 1276 788 1276 686 1239 c 128,-1,45
 584 1202 584 1202 508.5 1132 c 128,-1,46
 433 1062 433 1062 384 961 c 128,-1,47
 335 860 335 860 309 732 c 0,48,49
 300 689 300 689 296 645.5 c 128,-1,50
 292 602 292 602 292 563 c 0,51,52
 292 456 292 456 320 375.5 c 128,-1,53
 348 295 348 295 401.5 241.5 c 128,-1,54
 455 188 455 188 532.5 161.5 c 128,-1,55
 610 135 610 135 708 135 c 0,56,57
 840 135 840 135 942.5 172.5 c 128,-1,58
 1045 210 1045 210 1120 280.5 c 128,-1,59
 1195 351 1195 351 1244.5 451.5 c 128,-1,60
 1294 552 1294 552 1319 677 c 0,61,62
 1328 719 1328 719 1331.5 764 c 128,-1,63
 1335 809 1335 809 1335 847 c 0,64,65
 1335 954 1335 954 1306 1034.5 c 128,-1,66
 1277 1115 1277 1115 1223 1168.5 c 128,-1,67
 1169 1222 1169 1222 1092 1249 c 128,-1,68
 1015 1276 1015 1276 919 1276 c 0,43,44
EndSplineSet
EndChar

StartChar: R
Encoding: 82 82 53
Width: 1479
Flags: W
LayerCount: 2
Fore
SplineSet
1051 0 m 1,0,-1
 808 585 l 1,1,-1
 367 585 l 1,2,-1
 254 0 l 1,3,-1
 63 0 l 1,4,-1
 336 1409 l 1,5,-1
 948 1409 l 2,6,7
 1052 1409 1052 1409 1138 1383.5 c 128,-1,8
 1224 1358 1224 1358 1285.5 1310 c 128,-1,9
 1347 1262 1347 1262 1381.5 1193.5 c 128,-1,10
 1416 1125 1416 1125 1416 1039 c 0,11,12
 1416 851 1416 851 1308 741 c 128,-1,13
 1200 631 1200 631 989 602 c 1,14,-1
 1257 0 l 1,15,-1
 1051 0 l 1,0,-1
857 736 m 2,16,17
 1038 736 1038 736 1130 811.5 c 128,-1,18
 1222 887 1222 887 1222 1024 c 0,19,20
 1222 1136 1222 1136 1147.5 1196 c 128,-1,21
 1073 1256 1073 1256 925 1256 c 2,22,-1
 498 1256 l 1,23,-1
 397 736 l 1,24,-1
 857 736 l 2,16,17
EndSplineSet
EndChar

StartChar: S
Encoding: 83 83 54
Width: 1366
Flags: W
LayerCount: 2
Fore
SplineSet
616 -20 m 0,0,1
 486 -20 486 -20 388.5 3.5 c 128,-1,2
 291 27 291 27 223 72.5 c 128,-1,3
 155 118 155 118 114.5 184.5 c 128,-1,4
 74 251 74 251 58 338 c 1,5,-1
 235 375 l 1,6,7
 248 313 248 313 276 267 c 128,-1,8
 304 221 304 221 351 190.5 c 128,-1,9
 398 160 398 160 467 145 c 128,-1,10
 536 130 536 130 630 130 c 0,11,12
 728 130 728 130 806 143.5 c 128,-1,13
 884 157 884 157 938.5 188.5 c 128,-1,14
 993 220 993 220 1022 270.5 c 128,-1,15
 1051 321 1051 321 1051 396 c 0,16,17
 1051 447 1051 447 1034 483 c 128,-1,18
 1017 519 1017 519 975 547.5 c 128,-1,19
 933 576 933 576 861.5 601.5 c 128,-1,20
 790 627 790 627 682 657 c 0,21,22
 594 681 594 681 516.5 710.5 c 128,-1,23
 439 740 439 740 381 783.5 c 128,-1,24
 323 827 323 827 289 889 c 128,-1,25
 255 951 255 951 255 1041 c 0,26,27
 255 1146 255 1146 302.5 1219.5 c 128,-1,28
 350 1293 350 1293 429.5 1340 c 128,-1,29
 509 1387 509 1387 611.5 1408.5 c 128,-1,30
 714 1430 714 1430 824 1430 c 0,31,32
 945 1430 945 1430 1035.5 1408 c 128,-1,33
 1126 1386 1126 1386 1189.5 1346.5 c 128,-1,34
 1253 1307 1253 1307 1291 1252 c 128,-1,35
 1329 1197 1329 1197 1344 1132 c 1,36,-1
 1171 1081 l 1,37,38
 1156 1129 1156 1129 1129 1167 c 128,-1,39
 1102 1205 1102 1205 1060 1231.5 c 128,-1,40
 1018 1258 1018 1258 959.5 1272 c 128,-1,41
 901 1286 901 1286 823 1286 c 0,42,43
 719 1286 719 1286 647.5 1268.5 c 128,-1,44
 576 1251 576 1251 531.5 1219.5 c 128,-1,45
 487 1188 487 1188 467 1144.5 c 128,-1,46
 447 1101 447 1101 447 1050 c 0,47,48
 447 996 447 996 467.5 960.5 c 128,-1,49
 488 925 488 925 530 900 c 128,-1,50
 572 875 572 875 636.5 854.5 c 128,-1,51
 701 834 701 834 789 810 c 0,52,53
 876 786 876 786 958.5 757 c 128,-1,54
 1041 728 1041 728 1105 683.5 c 128,-1,55
 1169 639 1169 639 1207.5 573 c 128,-1,56
 1246 507 1246 507 1246 408 c 0,57,58
 1246 202 1246 202 1091 91 c 128,-1,59
 936 -20 936 -20 616 -20 c 0,0,1
EndSplineSet
EndChar

StartChar: T
Encoding: 84 84 55
Width: 1251
Flags: W
LayerCount: 2
Fore
SplineSet
858 1253 m 1,0,-1
 614 0 l 1,1,-1
 424 0 l 1,2,-1
 668 1253 l 1,3,-1
 184 1253 l 1,4,-1
 214 1409 l 1,5,-1
 1372 1409 l 1,6,-1
 1342 1253 l 1,7,-1
 858 1253 l 1,0,-1
EndSplineSet
EndChar

StartChar: U
Encoding: 85 85 56
Width: 1479
Flags: W
LayerCount: 2
Fore
SplineSet
654 -20 m 0,0,1
 550 -20 550 -20 458.5 7 c 128,-1,2
 367 34 367 34 299 90 c 128,-1,3
 231 146 231 146 192 231 c 128,-1,4
 153 316 153 316 153 431 c 0,5,6
 153 452 153 452 155 479.5 c 128,-1,7
 157 507 157 507 160.5 535 c 128,-1,8
 164 563 164 563 168 589.5 c 128,-1,9
 172 616 172 616 176 635 c 2,10,-1
 326 1409 l 1,11,-1
 517 1409 l 1,12,-1
 355 566 l 2,13,14
 348 530 348 530 343 491.5 c 128,-1,15
 338 453 338 453 338 423 c 0,16,17
 338 349 338 349 363 295 c 128,-1,18
 388 241 388 241 432 205.5 c 128,-1,19
 476 170 476 170 537 152.5 c 128,-1,20
 598 135 598 135 670 135 c 0,21,22
 757 135 757 135 831.5 157 c 128,-1,23
 906 179 906 179 965.5 227 c 128,-1,24
 1025 275 1025 275 1067.5 352.5 c 128,-1,25
 1110 430 1110 430 1131 541 c 2,26,-1
 1299 1409 l 1,27,-1
 1489 1409 l 1,28,-1
 1319 530 l 2,29,30
 1291 389 1291 389 1233.5 285.5 c 128,-1,31
 1176 182 1176 182 1091 114 c 128,-1,32
 1006 46 1006 46 896 13 c 128,-1,33
 786 -20 786 -20 654 -20 c 0,0,1
EndSplineSet
EndChar

StartChar: V
Encoding: 86 86 57
Width: 1366
Flags: W
LayerCount: 2
Fore
SplineSet
677 0 m 1,0,-1
 479 0 l 1,1,-1
 177 1409 l 1,2,-1
 371 1409 l 1,3,-1
 569 417 l 1,4,5
 576 372 576 372 582 327.5 c 128,-1,6
 588 283 588 283 593 248 c 0,7,8
 599 207 599 207 604 168 c 1,9,10
 623 205 623 205 645 246 c 0,11,12
 664 281 664 281 687.5 325.5 c 128,-1,13
 711 370 711 370 737 417 c 1,14,-1
 1317 1409 l 1,15,-1
 1525 1409 l 1,16,-1
 677 0 l 1,0,-1
EndSplineSet
EndChar

StartChar: W
Encoding: 87 87 58
Width: 1933
Flags: W
LayerCount: 2
Fore
SplineSet
1406 0 m 1,0,-1
 1183 0 l 1,1,-1
 1112 895 l 2,2,3
 1111 914 1111 914 1109.5 938 c 128,-1,4
 1108 962 1108 962 1106.5 988.5 c 128,-1,5
 1105 1015 1105 1015 1103.5 1042.5 c 128,-1,6
 1102 1070 1102 1070 1101 1095 c 0,7,8
 1098 1155 1098 1155 1096 1219 c 1,9,10
 1072 1156 1072 1156 1047 1095 c 0,11,12
 1026 1043 1026 1043 1002.5 988 c 128,-1,13
 979 933 979 933 961 895 c 2,14,-1
 542 0 l 1,15,-1
 319 0 l 1,16,-1
 177 1409 l 1,17,-1
 374 1409 l 1,18,-1
 453 514 l 2,19,20
 458 451 458 451 461 389.5 c 128,-1,21
 464 328 464 328 466 278 c 0,22,23
 468 220 468 220 469 168 c 1,24,25
 498 237 498 237 527 304 c 0,26,27
 539 333 539 333 552.5 363.5 c 128,-1,28
 566 394 566 394 579 424 c 128,-1,29
 592 454 592 454 604.5 481.5 c 128,-1,30
 617 509 617 509 628 532 c 2,31,-1
 1043 1409 l 1,32,-1
 1226 1409 l 1,33,-1
 1301 532 l 2,34,35
 1303 510 1303 510 1305 482 c 128,-1,36
 1307 454 1307 454 1308.5 424.5 c 128,-1,37
 1310 395 1310 395 1311.5 364.5 c 128,-1,38
 1313 334 1313 334 1314 305 c 0,39,40
 1317 238 1317 238 1318 168 c 0,41,42
 1319 168 1319 168 1333.5 202.5 c 128,-1,43
 1348 237 1348 237 1370 289 c 128,-1,44
 1392 341 1392 341 1418.5 401.5 c 128,-1,45
 1445 462 1445 462 1470 514 c 2,46,-1
 1893 1409 l 1,47,-1
 2094 1409 l 1,48,-1
 1406 0 l 1,0,-1
EndSplineSet
EndChar

StartChar: X
Encoding: 88 88 59
Width: 1366
Flags: W
LayerCount: 2
Fore
SplineSet
999 0 m 5,0,-1
 696 606 l 5,1,-1
 172 0 l 5,2,-1
 -39 0 l 5,3,-1
 615 746 l 5,4,-1
 275 1409 l 5,5,-1
 474 1409 l 5,6,-1
 744 858 l 5,7,-1
 1219 1409 l 5,8,-1
 1430 1409 l 5,9,-1
 830 733 l 5,10,-1
 1198 0 l 5,11,-1
 999 0 l 5,0,-1
EndSplineSet
EndChar

StartChar: Y
Encoding: 89 89 60
Width: 1366
Flags: W
LayerCount: 2
Fore
SplineSet
785 584 m 1,0,-1
 672 0 l 1,1,-1
 482 0 l 1,2,-1
 597 584 l 1,3,-1
 213 1409 l 1,4,-1
 409 1409 l 1,5,-1
 715 735 l 1,6,-1
 1275 1409 l 1,7,-1
 1489 1409 l 1,8,-1
 785 584 l 1,0,-1
EndSplineSet
EndChar

StartChar: Z
Encoding: 90 90 61
Width: 1251
Flags: W
LayerCount: 2
Fore
SplineSet
1082 0 m 1,0,-1
 -40 0 l 1,1,-1
 -13 143 l 1,2,-1
 1041 1253 l 1,3,-1
 276 1253 l 1,4,-1
 306 1409 l 1,5,-1
 1308 1409 l 1,6,-1
 1281 1270 l 1,7,-1
 227 156 l 1,8,-1
 1112 156 l 1,9,-1
 1082 0 l 1,0,-1
EndSplineSet
EndChar

StartChar: bracketleft
Encoding: 91 91 62
Width: 569
Flags: W
LayerCount: 2
Fore
SplineSet
-39 -425 m 1,0,-1
 331 1484 l 1,1,-1
 738 1484 l 1,2,-1
 713 1355 l 1,3,-1
 480 1355 l 1,4,-1
 159 -296 l 1,5,-1
 392 -296 l 1,6,-1
 367 -425 l 1,7,-1
 -39 -425 l 1,0,-1
EndSplineSet
EndChar

StartChar: backslash
Encoding: 92 92 63
Width: 569
Flags: W
LayerCount: 2
Fore
SplineSet
320 -20 m 1,0,-1
 146 1484 l 1,1,-1
 294 1484 l 1,2,-1
 472 -20 l 1,3,-1
 320 -20 l 1,0,-1
EndSplineSet
EndChar

StartChar: bracketright
Encoding: 93 93 64
Width: 569
Flags: W
LayerCount: 2
Fore
SplineSet
-169 -425 m 1,0,-1
 -144 -296 l 1,1,-1
 88 -296 l 1,2,-1
 409 1355 l 1,3,-1
 176 1355 l 1,4,-1
 201 1484 l 1,5,-1
 608 1484 l 1,6,-1
 237 -425 l 1,7,-1
 -169 -425 l 1,0,-1
EndSplineSet
EndChar

StartChar: asciicircum
Encoding: 94 94 65
Width: 961
Flags: W
LayerCount: 2
Fore
SplineSet
817 673 m 1,0,-1
 508 1306 l 1,1,-1
 202 673 l 1,2,-1
 40 673 l 1,3,-1
 408 1409 l 1,4,-1
 611 1409 l 1,5,-1
 981 673 l 1,6,-1
 817 673 l 1,0,-1
EndSplineSet
EndChar

StartChar: underscore
Encoding: 95 95 66
Width: 1139
Flags: W
LayerCount: 2
Fore
SplineSet
-160 -250 m 1,0,-1
 -160 -174 l 1,1,-1
 1018 -174 l 1,2,-1
 1018 -250 l 1,3,-1
 -160 -250 l 1,0,-1
EndSplineSet
EndChar

StartChar: grave
Encoding: 96 96 67
Width: 682
Flags: W
LayerCount: 2
Fore
SplineSet
412 1201 m 1,0,-1
 130 1479 l 1,1,-1
 135 1508 l 1,2,-1
 342 1508 l 1,3,-1
 503 1221 l 1,4,-1
 500 1201 l 1,5,-1
 412 1201 l 1,0,-1
EndSplineSet
EndChar

StartChar: a
Encoding: 97 97 68
Width: 1139
Flags: W
LayerCount: 2
Fore
SplineSet
1055 6 m 1,0,1
 1026 -1 1026 -1 992.5 -5.5 c 128,-1,2
 959 -10 959 -10 927 -10 c 0,3,4
 834 -10 834 -10 791.5 28.5 c 128,-1,5
 749 67 749 67 749 143 c 0,6,7
 749 158 749 158 751 175.5 c 128,-1,8
 753 193 753 193 754 207 c 1,9,-1
 748 207 l 1,10,11
 713 154 713 154 675.5 112 c 128,-1,12
 638 70 638 70 592.5 40.5 c 128,-1,13
 547 11 547 11 491 -4.5 c 128,-1,14
 435 -20 435 -20 361 -20 c 0,15,16
 283 -20 283 -20 224.5 5 c 128,-1,17
 166 30 166 30 126 71.5 c 128,-1,18
 86 113 86 113 66 167 c 128,-1,19
 46 221 46 221 46 278 c 0,20,21
 46 359 46 359 69.5 418 c 128,-1,22
 93 477 93 477 133.5 519 c 128,-1,23
 174 561 174 561 228.5 587.5 c 128,-1,24
 283 614 283 614 344.5 629 c 128,-1,25
 406 644 406 644 472 650 c 128,-1,26
 538 656 538 656 601 657 c 2,27,-1
 833 660 l 1,28,-1
 840 696 l 2,29,30
 845 721 845 721 848.5 744 c 128,-1,31
 852 767 852 767 852 787 c 0,32,33
 852 878 852 878 799 921.5 c 128,-1,34
 746 965 746 965 652 965 c 0,35,36
 603 965 603 965 560.5 957.5 c 128,-1,37
 518 950 518 950 484.5 930.5 c 128,-1,38
 451 911 451 911 425.5 877.5 c 128,-1,39
 400 844 400 844 384 793 c 1,40,-1
 206 822 l 1,41,42
 225 884 225 884 258 935.5 c 128,-1,43
 291 987 291 987 345 1024 c 128,-1,44
 399 1061 399 1061 476.5 1081.5 c 128,-1,45
 554 1102 554 1102 662 1102 c 0,46,47
 751 1102 751 1102 820 1080 c 128,-1,48
 889 1058 889 1058 936 1019 c 128,-1,49
 983 980 983 980 1007.5 926 c 128,-1,50
 1032 872 1032 872 1032 807 c 0,51,52
 1032 776 1032 776 1026.5 732.5 c 128,-1,53
 1021 689 1021 689 1013 650 c 2,54,-1
 939 272 l 2,55,56
 934 250 934 250 931 227 c 128,-1,57
 928 204 928 204 928 184 c 0,58,59
 928 147 928 147 947.5 129 c 128,-1,60
 967 111 967 111 1009 111 c 0,61,62
 1024 111 1024 111 1039.5 113 c 128,-1,63
 1055 115 1055 115 1069 118 c 1,64,-1
 1055 6 l 1,0,1
809 536 m 1,65,-1
 610 532 l 2,66,67
 570 531 570 531 527 528 c 128,-1,68
 484 525 484 525 442.5 515.5 c 128,-1,69
 401 506 401 506 363.5 490 c 128,-1,70
 326 474 326 474 298 446.5 c 128,-1,71
 270 419 270 419 253.5 380 c 128,-1,72
 237 341 237 341 237 286 c 0,73,74
 237 254 237 254 247.5 223.5 c 128,-1,75
 258 193 258 193 280 169.5 c 128,-1,76
 302 146 302 146 334.5 131.5 c 128,-1,77
 367 117 367 117 411 117 c 0,78,79
 498 117 498 117 563 147 c 128,-1,80
 628 177 628 177 674 221 c 128,-1,81
 720 265 720 265 746.5 316.5 c 128,-1,82
 773 368 773 368 782 411 c 2,83,-1
 809 536 l 1,65,-1
EndSplineSet
EndChar

StartChar: b
Encoding: 98 98 69
Width: 1139
Flags: W
LayerCount: 2
Fore
SplineSet
744 1102 m 0,0,1
 824 1102 824 1102 886 1077 c 128,-1,2
 948 1052 948 1052 990 1006 c 128,-1,3
 1032 960 1032 960 1054 894.5 c 128,-1,4
 1076 829 1076 829 1076 748 c 0,5,6
 1076 698 1076 698 1071.5 638.5 c 128,-1,7
 1067 579 1067 579 1055 516 c 0,8,9
 1028 374 1028 374 984 272.5 c 128,-1,10
 940 171 940 171 878 106 c 128,-1,11
 816 41 816 41 736 10.5 c 128,-1,12
 656 -20 656 -20 557 -20 c 0,13,14
 434 -20 434 -20 357 32 c 128,-1,15
 280 84 280 84 248 178 c 1,16,-1
 245 178 l 1,17,18
 240 152 240 152 233 122.5 c 128,-1,19
 226 93 226 93 219.5 67 c 128,-1,20
 213 41 213 41 208.5 22.5 c 128,-1,21
 204 4 204 4 202 0 c 1,22,-1
 29 0 l 1,23,24
 32 9 32 9 37 30.5 c 128,-1,25
 42 52 42 52 48.5 82 c 128,-1,26
 55 112 55 112 63 148 c 128,-1,27
 71 184 71 184 78 223 c 2,28,-1
 323 1484 l 1,29,-1
 503 1484 l 1,30,-1
 420 1061 l 2,31,32
 415 1032 415 1032 408.5 1006 c 128,-1,33
 402 980 402 980 397 961 c 0,34,35
 391 939 391 939 386 921 c 1,36,-1
 390 921 l 1,37,38
 426 968 426 968 463.5 1002 c 128,-1,39
 501 1036 501 1036 543.5 1058.5 c 128,-1,40
 586 1081 586 1081 635 1091.5 c 128,-1,41
 684 1102 684 1102 744 1102 c 0,0,1
692 963 m 0,42,43
 628 963 628 963 570.5 944 c 128,-1,44
 513 925 513 925 464 878.5 c 128,-1,45
 415 832 415 832 377.5 753 c 128,-1,46
 340 674 340 674 317 554 c 0,47,48
 298 456 298 456 298 377 c 0,49,50
 298 313 298 313 315 263.5 c 128,-1,51
 332 214 332 214 363.5 180.5 c 128,-1,52
 395 147 395 147 439.5 130 c 128,-1,53
 484 113 484 113 538 113 c 0,54,55
 600 113 600 113 650 131.5 c 128,-1,56
 700 150 700 150 740.5 195.5 c 128,-1,57
 781 241 781 241 812 317.5 c 128,-1,58
 843 394 843 394 865 510 c 0,59,60
 888 631 888 631 888 716 c 0,61,62
 888 839 888 839 841 901 c 128,-1,63
 794 963 794 963 692 963 c 0,42,43
EndSplineSet
EndChar

StartChar: c
Encoding: 99 99 70
Width: 1024
Flags: W
LayerCount: 2
Fore
SplineSet
469 122 m 0,0,1
 525 122 525 122 570 138.5 c 128,-1,2
 615 155 615 155 650 185 c 128,-1,3
 685 215 685 215 712 257.5 c 128,-1,4
 739 300 739 300 758 352 c 1,5,-1
 914 303 l 1,6,7
 886 228 886 228 845.5 168.5 c 128,-1,8
 805 109 805 109 749.5 67 c 128,-1,9
 694 25 694 25 623 2.5 c 128,-1,10
 552 -20 552 -20 465 -20 c 0,11,12
 362 -20 362 -20 286.5 11 c 128,-1,13
 211 42 211 42 162.5 97.5 c 128,-1,14
 114 153 114 153 90.5 229 c 128,-1,15
 67 305 67 305 67 395 c 0,16,17
 67 435 67 435 70.5 482 c 128,-1,18
 74 529 74 529 83 574 c 0,19,20
 105 685 105 685 139.5 767 c 128,-1,21
 174 849 174 849 216.5 907.5 c 128,-1,22
 259 966 259 966 308.5 1004 c 128,-1,23
 358 1042 358 1042 410.5 1063.5 c 128,-1,24
 463 1085 463 1085 517.5 1093.5 c 128,-1,25
 572 1102 572 1102 625 1102 c 0,26,27
 714 1102 714 1102 781.5 1079 c 128,-1,28
 849 1056 849 1056 896 1014 c 128,-1,29
 943 972 943 972 969.5 913.5 c 128,-1,30
 996 855 996 855 1001 784 c 1,31,-1
 824 759 l 1,32,33
 821 804 821 804 807 841 c 128,-1,34
 793 878 793 878 767.5 904.5 c 128,-1,35
 742 931 742 931 705 946 c 128,-1,36
 668 961 668 961 619 961 c 0,37,38
 550 961 550 961 495 941 c 128,-1,39
 440 921 440 921 396.5 876 c 128,-1,40
 353 831 353 831 322 758.5 c 128,-1,41
 291 686 291 686 270 581 c 0,42,43
 261 533 261 533 256 480 c 128,-1,44
 251 427 251 427 251 389 c 0,45,46
 251 262 251 262 302.5 192 c 128,-1,47
 354 122 354 122 469 122 c 0,0,1
EndSplineSet
EndChar

StartChar: d
Encoding: 100 100 71
Width: 1139
Flags: W
LayerCount: 2
Fore
SplineSet
401 -21 m 0,0,1
 321 -21 321 -21 259 4 c 128,-1,2
 197 29 197 29 155 75 c 128,-1,3
 113 121 113 121 91 186.5 c 128,-1,4
 69 252 69 252 69 333 c 0,5,6
 69 378 69 378 73.5 440 c 128,-1,7
 78 502 78 502 90 565 c 0,8,9
 117 707 117 707 161 808.5 c 128,-1,10
 205 910 205 910 267 975 c 128,-1,11
 329 1040 329 1040 409 1070.5 c 128,-1,12
 489 1101 489 1101 588 1101 c 0,13,14
 711 1101 711 1101 788.5 1049 c 128,-1,15
 866 997 866 997 898 903 c 1,16,-1
 903 903 l 1,17,18
 905 913 905 913 909 936 c 128,-1,19
 913 959 913 959 917.5 984.5 c 128,-1,20
 922 1010 922 1010 926 1033 c 128,-1,21
 930 1056 930 1056 931 1065 c 2,22,-1
 1013 1484 l 1,23,-1
 1193 1484 l 1,24,-1
 948 223 l 2,25,26
 940 184 940 184 933.5 148 c 128,-1,27
 927 112 927 112 922 82 c 128,-1,28
 917 52 917 52 914 30.5 c 128,-1,29
 911 9 911 9 910 0 c 1,30,-1
 738 0 l 1,31,32
 738 20 738 20 743.5 64 c 128,-1,33
 749 108 749 108 759 160 c 1,34,-1
 754 160 l 1,35,36
 718 113 718 113 680.5 79 c 128,-1,37
 643 45 643 45 601 22.5 c 128,-1,38
 559 0 559 0 510 -10.5 c 128,-1,39
 461 -21 461 -21 401 -21 c 0,0,1
453 118 m 0,40,41
 517 118 517 118 574.5 137 c 128,-1,42
 632 156 632 156 681 202.5 c 128,-1,43
 730 249 730 249 767.5 328 c 128,-1,44
 805 407 805 407 828 527 c 0,45,46
 847 625 847 625 847 704 c 0,47,48
 847 769 847 769 830 818 c 128,-1,49
 813 867 813 867 781.5 900.5 c 128,-1,50
 750 934 750 934 705.5 951 c 128,-1,51
 661 968 661 968 607 968 c 0,52,53
 546 968 546 968 495.5 949.5 c 128,-1,54
 445 931 445 931 404.5 885.5 c 128,-1,55
 364 840 364 840 333.5 763.5 c 128,-1,56
 303 687 303 687 280 571 c 0,57,58
 257 450 257 450 257 365 c 0,59,60
 257 242 257 242 304 180 c 128,-1,61
 351 118 351 118 453 118 c 0,40,41
EndSplineSet
EndChar

StartChar: e
Encoding: 101 101 72
Width: 1139
Flags: W
LayerCount: 2
Fore
SplineSet
256 503 m 1,0,1
 251 475 251 475 249.5 446.5 c 128,-1,2
 248 418 248 418 247 390 c 1,3,4
 247 257 247 257 313.5 186 c 128,-1,5
 380 115 380 115 514 115 c 0,6,7
 570 115 570 115 616 129.5 c 128,-1,8
 662 144 662 144 699.5 168.5 c 128,-1,9
 737 193 737 193 765.5 225.5 c 128,-1,10
 794 258 794 258 813 294 c 1,11,-1
 951 231 l 1,12,13
 926 186 926 186 890 141.5 c 128,-1,14
 854 97 854 97 800.5 61 c 128,-1,15
 747 25 747 25 672 2.5 c 128,-1,16
 597 -20 597 -20 493 -20 c 0,17,18
 393 -20 393 -20 314 8.5 c 128,-1,19
 235 37 235 37 180.5 91.5 c 128,-1,20
 126 146 126 146 97.5 225 c 128,-1,21
 69 304 69 304 69 405 c 0,22,23
 69 563 69 563 111.5 692 c 128,-1,24
 154 821 154 821 229.5 912 c 128,-1,25
 305 1003 305 1003 407.5 1052.5 c 128,-1,26
 510 1102 510 1102 630 1102 c 0,27,28
 740 1102 740 1102 821 1073 c 128,-1,29
 902 1044 902 1044 956 992 c 128,-1,30
 1010 940 1010 940 1036.5 867.5 c 128,-1,31
 1063 795 1063 795 1063 708 c 0,32,33
 1063 687 1063 687 1061.5 662 c 128,-1,34
 1060 637 1060 637 1057 610 c 128,-1,35
 1054 583 1054 583 1049.5 555.5 c 128,-1,36
 1045 528 1045 528 1039 503 c 1,37,-1
 256 503 l 1,0,1
880 641 m 1,38,39
 882 661 882 661 883 678.5 c 128,-1,40
 884 696 884 696 884 713 c 0,41,42
 884 779 884 779 866 827.5 c 128,-1,43
 848 876 848 876 815 907.5 c 128,-1,44
 782 939 782 939 736 954 c 128,-1,45
 690 969 690 969 634 969 c 0,46,47
 586 969 586 969 533 954.5 c 128,-1,48
 480 940 480 940 431.5 903 c 128,-1,49
 383 866 383 866 343 802.5 c 128,-1,50
 303 739 303 739 280 641 c 1,51,-1
 880 641 l 1,38,39
EndSplineSet
EndChar

StartChar: f
Encoding: 102 102 73
Width: 569
Flags: W
LayerCount: 2
Fore
SplineSet
434 951 m 1,0,-1
 249 0 l 1,1,-1
 69 0 l 1,2,-1
 254 951 l 1,3,-1
 102 951 l 1,4,-1
 128 1082 l 1,5,-1
 280 1082 l 1,6,-1
 303 1204 l 2,7,8
 315 1263 315 1263 334 1314 c 128,-1,9
 353 1365 353 1365 388.5 1403 c 128,-1,10
 424 1441 424 1441 480 1462.5 c 128,-1,11
 536 1484 536 1484 622 1484 c 0,12,13
 654 1484 654 1484 687.5 1481 c 128,-1,14
 721 1478 721 1478 746 1472 c 1,15,-1
 720 1335 l 1,16,17
 711 1337 711 1337 699.5 1338 c 128,-1,18
 688 1339 688 1339 675 1340.5 c 128,-1,19
 662 1342 662 1342 650 1342.5 c 128,-1,20
 638 1343 638 1343 629 1343 c 0,21,22
 591 1343 591 1343 565.5 1332 c 128,-1,23
 540 1321 540 1321 523.5 1300 c 128,-1,24
 507 1279 507 1279 497 1248.5 c 128,-1,25
 487 1218 487 1218 479 1179 c 2,26,-1
 460 1082 l 1,27,-1
 671 1082 l 1,28,-1
 645 951 l 1,29,-1
 434 951 l 1,0,-1
EndSplineSet
EndChar

StartChar: g
Encoding: 103 103 74
Width: 1139
Flags: W
LayerCount: 2
Fore
SplineSet
397 -425 m 0,0,1
 304 -425 304 -425 235 -406.5 c 128,-1,2
 166 -388 166 -388 118.5 -355 c 128,-1,3
 71 -322 71 -322 43.5 -275.5 c 128,-1,4
 16 -229 16 -229 4 -173 c 1,5,-1
 167 -131 l 1,6,7
 184 -207 184 -207 242.5 -247.5 c 128,-1,8
 301 -288 301 -288 401 -288 c 0,9,10
 473 -288 473 -288 528 -269.5 c 128,-1,11
 583 -251 583 -251 622.5 -213 c 128,-1,12
 662 -175 662 -175 688.5 -115.5 c 128,-1,13
 715 -56 715 -56 731 27 c 0,14,15
 736 53 736 53 742 83 c 128,-1,16
 748 113 748 113 753 139 c 0,17,18
 759 170 759 170 765 201 c 1,19,-1
 763 201 l 1,20,21
 735 161 735 161 703.5 123 c 128,-1,22
 672 85 672 85 631 56 c 128,-1,23
 590 27 590 27 536 9.5 c 128,-1,24
 482 -8 482 -8 410 -8 c 0,25,26
 331 -8 331 -8 268 19.5 c 128,-1,27
 205 47 205 47 161 95.5 c 128,-1,28
 117 144 117 144 93.5 211.5 c 128,-1,29
 70 279 70 279 70 359 c 0,30,31
 70 408 70 408 75.5 462.5 c 128,-1,32
 81 517 81 517 93 580 c 0,33,34
 143 841 143 841 262.5 971 c 128,-1,35
 382 1101 382 1101 588 1101 c 0,36,37
 645 1101 645 1101 696 1087.5 c 128,-1,38
 747 1074 747 1074 787.5 1047.5 c 128,-1,39
 828 1021 828 1021 857.5 983 c 128,-1,40
 887 945 887 945 900 897 c 1,41,-1
 902 897 l 1,42,43
 907 922 907 922 914.5 953 c 128,-1,44
 922 984 922 984 929 1011.5 c 128,-1,45
 936 1039 936 1039 942 1059 c 128,-1,46
 948 1079 948 1079 950 1082 c 1,47,-1
 1121 1082 l 1,48,49
 1119 1073 1119 1073 1114 1051.5 c 128,-1,50
 1109 1030 1109 1030 1102 1000 c 128,-1,51
 1095 970 1095 970 1087.5 933.5 c 128,-1,52
 1080 897 1080 897 1072 858 c 2,53,-1
 911 31 l 2,54,55
 890 -76 890 -76 853 -160.5 c 128,-1,56
 816 -245 816 -245 755 -304 c 128,-1,57
 694 -363 694 -363 606.5 -394 c 128,-1,58
 519 -425 519 -425 397 -425 c 0,0,1
259 373 m 0,59,60
 259 252 259 252 311.5 188.5 c 128,-1,61
 364 125 364 125 466 125 c 0,62,63
 520 125 520 125 575.5 148 c 128,-1,64
 631 171 631 171 680.5 221 c 128,-1,65
 730 271 730 271 769.5 350 c 128,-1,66
 809 429 809 429 831 541 c 0,67,68
 839 583 839 583 843 627.5 c 128,-1,69
 847 672 847 672 847 704 c 0,70,71
 847 771 847 771 829 820.5 c 128,-1,72
 811 870 811 870 778.5 903 c 128,-1,73
 746 936 746 936 702 952 c 128,-1,74
 658 968 658 968 607 968 c 0,75,76
 545 968 545 968 494.5 949.5 c 128,-1,77
 444 931 444 931 404 886.5 c 128,-1,78
 364 842 364 842 334 767.5 c 128,-1,79
 304 693 304 693 282 580 c 0,80,81
 271 521 271 521 265 467 c 128,-1,82
 259 413 259 413 259 373 c 0,59,60
EndSplineSet
EndChar

StartChar: h
Encoding: 104 104 75
Width: 1139
Flags: W
LayerCount: 2
Fore
SplineSet
383 897 m 1,0,1
 417 944 417 944 453 982 c 128,-1,2
 489 1020 489 1020 532.5 1046.5 c 128,-1,3
 576 1073 576 1073 628.5 1087 c 128,-1,4
 681 1101 681 1101 748 1101 c 0,5,6
 896 1101 896 1101 970.5 1028 c 128,-1,7
 1045 955 1045 955 1045 817 c 0,8,9
 1045 781 1045 781 1038.5 736 c 128,-1,10
 1032 691 1032 691 1024 653 c 2,11,-1
 897 0 l 1,12,-1
 716 0 l 1,13,-1
 842 645 l 2,14,15
 850 684 850 684 855 724.5 c 128,-1,16
 860 765 860 765 860 795 c 0,17,18
 860 874 860 874 818 918 c 128,-1,19
 776 962 776 962 681 962 c 0,20,21
 617 962 617 962 560.5 936.5 c 128,-1,22
 504 911 504 911 458 864.5 c 128,-1,23
 412 818 412 818 379.5 752.5 c 128,-1,24
 347 687 347 687 331 606 c 2,25,-1
 213 0 l 1,26,-1
 34 0 l 1,27,-1
 322 1484 l 1,28,-1
 502 1484 l 1,29,-1
 427 1098 l 2,30,31
 421 1065 421 1065 413.5 1032 c 128,-1,32
 406 999 406 999 399 971.5 c 128,-1,33
 392 944 392 944 387 924 c 128,-1,34
 382 904 382 904 380 897 c 1,35,-1
 383 897 l 1,0,1
EndSplineSet
EndChar

StartChar: i
Encoding: 105 105 76
Width: 455
Flags: W
LayerCount: 2
Fore
SplineSet
287 1312 m 1,0,-1
 321 1484 l 1,1,-1
 501 1484 l 1,2,-1
 467 1312 l 1,3,-1
 287 1312 l 1,0,-1
33 0 m 1,4,-1
 243 1082 l 1,5,-1
 423 1082 l 1,6,-1
 212 0 l 1,7,-1
 33 0 l 1,4,-1
EndSplineSet
EndChar

StartChar: j
Encoding: 106 106 77
Width: 455
Flags: W
LayerCount: 2
Fore
SplineSet
289 1312 m 1,0,-1
 322 1484 l 1,1,-1
 502 1484 l 1,2,-1
 469 1312 l 1,3,-1
 289 1312 l 1,0,-1
-100 -425 m 0,4,5
 -134 -425 -134 -425 -168.5 -420.5 c 128,-1,6
 -203 -416 -203 -416 -229 -411 c 1,7,-1
 -206 -275 l 1,8,9
 -193 -277 -193 -277 -168 -280 c 128,-1,10
 -143 -283 -143 -283 -123 -283 c 0,11,12
 -64 -283 -64 -283 -34 -241 c 128,-1,13
 -4 -199 -4 -199 13 -107 c 2,14,-1
 244 1082 l 1,15,-1
 424 1082 l 1,16,-1
 187 -134 l 2,17,18
 175 -196 175 -196 155.5 -249 c 128,-1,19
 136 -302 136 -302 103 -341 c 128,-1,20
 70 -380 70 -380 20.5 -402.5 c 128,-1,21
 -29 -425 -29 -425 -100 -425 c 0,4,5
EndSplineSet
EndChar

StartChar: k
Encoding: 107 107 78
Width: 1024
Flags: W
LayerCount: 2
Fore
SplineSet
721 0 m 1,0,-1
 453 502 l 1,1,-1
 285 378 l 1,2,-1
 213 0 l 1,3,-1
 34 0 l 1,4,-1
 322 1484 l 1,5,-1
 502 1484 l 1,6,-1
 323 567 l 1,7,-1
 527 757 l 1,8,-1
 888 1082 l 1,9,-1
 1110 1082 l 1,10,-1
 580 617 l 1,11,-1
 916 0 l 1,12,-1
 721 0 l 1,0,-1
EndSplineSet
EndChar

StartChar: l
Encoding: 108 108 79
Width: 455
Flags: W
LayerCount: 2
Fore
SplineSet
33 0 m 1,0,-1
 321 1484 l 1,1,-1
 501 1484 l 1,2,-1
 212 0 l 1,3,-1
 33 0 l 1,0,-1
EndSplineSet
EndChar

StartChar: m
Encoding: 109 109 80
Width: 1706
Flags: W
LayerCount: 2
Fore
SplineSet
660 0 m 1,0,-1
 784 634 l 2,1,2
 788 654 788 654 792.5 678 c 128,-1,3
 797 702 797 702 800.5 726 c 128,-1,4
 804 750 804 750 806.5 771.5 c 128,-1,5
 809 793 809 793 809 808 c 0,6,7
 809 883 809 883 771 922.5 c 128,-1,8
 733 962 733 962 647 962 c 0,9,10
 590 962 590 962 538.5 936.5 c 128,-1,11
 487 911 487 911 446 864.5 c 128,-1,12
 405 818 405 818 375 751.5 c 128,-1,13
 345 685 345 685 331 604 c 1,14,-1
 213 0 l 1,15,-1
 34 0 l 1,16,-1
 200 851 l 2,17,18
 207 885 207 885 213.5 922.5 c 128,-1,19
 220 960 220 960 225.5 993.5 c 128,-1,20
 231 1027 231 1027 234.5 1051 c 128,-1,21
 238 1075 238 1075 239 1082 c 1,22,-1
 409 1082 l 1,23,24
 409 1077 409 1077 406 1055 c 128,-1,25
 403 1033 403 1033 398.5 1004.5 c 128,-1,26
 394 976 394 976 389.5 946.5 c 128,-1,27
 385 917 385 917 381 897 c 1,28,-1
 384 897 l 1,29,30
 414 944 414 944 446 982 c 128,-1,31
 478 1020 478 1020 516 1046.5 c 128,-1,32
 554 1073 554 1073 600.5 1087 c 128,-1,33
 647 1101 647 1101 706 1101 c 0,34,35
 827 1101 827 1101 898 1041.5 c 128,-1,36
 969 982 969 982 983 869 c 1,37,38
 1015 919 1015 919 1049 961 c 128,-1,39
 1083 1003 1083 1003 1124.5 1034.5 c 128,-1,40
 1166 1066 1166 1066 1216.5 1083.5 c 128,-1,41
 1267 1101 1267 1101 1331 1101 c 0,42,43
 1466 1101 1466 1101 1538.5 1028 c 128,-1,44
 1611 955 1611 955 1611 817 c 0,45,46
 1611 781 1611 781 1604.5 736 c 128,-1,47
 1598 691 1598 691 1590 653 c 2,48,-1
 1463 0 l 1,49,-1
 1285 0 l 1,50,-1
 1409 634 l 2,51,52
 1413 654 1413 654 1417.5 678 c 128,-1,53
 1422 702 1422 702 1425.5 726 c 128,-1,54
 1429 750 1429 750 1431.5 771.5 c 128,-1,55
 1434 793 1434 793 1434 808 c 0,56,57
 1434 883 1434 883 1396 922.5 c 128,-1,58
 1358 962 1358 962 1272 962 c 0,59,60
 1215 962 1215 962 1163.5 937 c 128,-1,61
 1112 912 1112 912 1071 866 c 128,-1,62
 1030 820 1030 820 1000 754 c 128,-1,63
 970 688 970 688 956 607 c 1,64,-1
 838 0 l 1,65,-1
 660 0 l 1,0,-1
EndSplineSet
EndChar

StartChar: n
Encoding: 110 110 81
Width: 1139
Flags: W
LayerCount: 2
Fore
SplineSet
717 0 m 1,0,-1
 843 645 l 2,1,2
 851 684 851 684 856 724.5 c 128,-1,3
 861 765 861 765 861 795 c 0,4,5
 861 874 861 874 819 918 c 128,-1,6
 777 962 777 962 682 962 c 0,7,8
 618 962 618 962 561.5 936.5 c 128,-1,9
 505 911 505 911 459 864.5 c 128,-1,10
 413 818 413 818 380.5 752.5 c 128,-1,11
 348 687 348 687 332 606 c 2,12,-1
 214 0 l 1,13,-1
 34 0 l 1,14,-1
 200 851 l 2,15,16
 207 885 207 885 213.5 922.5 c 128,-1,17
 220 960 220 960 225.5 993.5 c 128,-1,18
 231 1027 231 1027 234.5 1051 c 128,-1,19
 238 1075 238 1075 239 1082 c 1,20,-1
 409 1082 l 1,21,22
 409 1077 409 1077 406 1055 c 128,-1,23
 403 1033 403 1033 398.5 1004.5 c 128,-1,24
 394 976 394 976 389.5 946.5 c 128,-1,25
 385 917 385 917 381 897 c 1,26,-1
 384 897 l 1,27,28
 418 944 418 944 454 982 c 128,-1,29
 490 1020 490 1020 533.5 1046.5 c 128,-1,30
 577 1073 577 1073 629.5 1087 c 128,-1,31
 682 1101 682 1101 749 1101 c 0,32,33
 897 1101 897 1101 971.5 1028 c 128,-1,34
 1046 955 1046 955 1046 817 c 0,35,36
 1046 781 1046 781 1039.5 736 c 128,-1,37
 1033 691 1033 691 1025 653 c 2,38,-1
 898 0 l 1,39,-1
 717 0 l 1,0,-1
EndSplineSet
EndChar

StartChar: o
Encoding: 111 111 82
Width: 1139
Flags: W
LayerCount: 2
Fore
SplineSet
1074 683 m 0,0,1
 1074 631 1074 631 1068 578.5 c 128,-1,2
 1062 526 1062 526 1048 467 c 0,3,4
 1018 335 1018 335 964.5 242 c 128,-1,5
 911 149 911 149 839 91 c 128,-1,6
 767 33 767 33 679 6.5 c 128,-1,7
 591 -20 591 -20 491 -20 c 0,8,9
 395 -20 395 -20 317 9.5 c 128,-1,10
 239 39 239 39 183.5 95.5 c 128,-1,11
 128 152 128 152 97.5 233.5 c 128,-1,12
 67 315 67 315 67 419 c 1,13,14
 68 466 68 466 72.5 516 c 128,-1,15
 77 566 77 566 89 620 c 0,16,17
 118 746 118 746 169 836.5 c 128,-1,18
 220 927 220 927 290 986 c 128,-1,19
 360 1045 360 1045 448.5 1073 c 128,-1,20
 537 1101 537 1101 642 1101 c 0,21,22
 748 1101 748 1101 828.5 1073 c 128,-1,23
 909 1045 909 1045 963.5 991 c 128,-1,24
 1018 937 1018 937 1046 859.5 c 128,-1,25
 1074 782 1074 782 1074 683 c 0,0,1
888 683 m 1,26,27
 888 760 888 760 871 814 c 128,-1,28
 854 868 854 868 821.5 902.5 c 128,-1,29
 789 937 789 937 743 953 c 128,-1,30
 697 969 697 969 640 969 c 0,31,32
 587 969 587 969 533.5 956.5 c 128,-1,33
 480 944 480 944 431.5 906 c 128,-1,34
 383 868 383 868 343 798 c 128,-1,35
 303 728 303 728 276 612 c 0,36,37
 263 557 263 557 257.5 507.5 c 128,-1,38
 252 458 252 458 252 416 c 0,39,40
 252 334 252 334 271 276 c 128,-1,41
 290 218 290 218 323.5 182 c 128,-1,42
 357 146 357 146 402.5 129.5 c 128,-1,43
 448 113 448 113 502 113 c 256,44,45
 556 113 556 113 608.5 125 c 128,-1,46
 661 137 661 137 708 175.5 c 128,-1,47
 755 214 755 214 794.5 285 c 128,-1,48
 834 356 834 356 861 473 c 0,49,50
 875 533 875 533 880.5 583 c 128,-1,51
 886 633 886 633 888 683 c 1,26,27
EndSplineSet
EndChar

StartChar: p
Encoding: 112 112 83
Width: 1139
Flags: W
LayerCount: 2
Fore
SplineSet
554 -20 m 0,0,1
 431 -20 431 -20 353.5 32 c 128,-1,2
 276 84 276 84 244 178 c 1,3,-1
 239 178 l 1,4,5
 239 176 239 176 237 158.5 c 128,-1,6
 235 141 235 141 231 115 c 128,-1,7
 227 89 227 89 221.5 58 c 128,-1,8
 216 27 216 27 210 -2 c 2,9,-1
 128 -425 l 1,10,-1
 -51 -425 l 1,11,-1
 198 861 l 2,12,13
 206 900 206 900 212 936 c 128,-1,14
 218 972 218 972 222.5 1001.5 c 128,-1,15
 227 1031 227 1031 229.5 1052 c 128,-1,16
 232 1073 232 1073 233 1082 c 1,17,-1
 400 1082 l 1,18,19
 400 1074 400 1074 399 1056 c 128,-1,20
 398 1038 398 1038 395.5 1015.5 c 128,-1,21
 393 993 393 993 390 968 c 128,-1,22
 387 943 387 943 383 921 c 1,23,-1
 387 921 l 1,24,25
 423 968 423 968 460.5 1002 c 128,-1,26
 498 1036 498 1036 540.5 1058.5 c 128,-1,27
 583 1081 583 1081 632 1091.5 c 128,-1,28
 681 1102 681 1102 741 1102 c 0,29,30
 821 1102 821 1102 883 1077 c 128,-1,31
 945 1052 945 1052 987 1006 c 128,-1,32
 1029 960 1029 960 1051 894.5 c 128,-1,33
 1073 829 1073 829 1073 748 c 0,34,35
 1073 698 1073 698 1068.5 638.5 c 128,-1,36
 1064 579 1064 579 1052 516 c 0,37,38
 1025 374 1025 374 981 272.5 c 128,-1,39
 937 171 937 171 875 106 c 128,-1,40
 813 41 813 41 733 10.5 c 128,-1,41
 653 -20 653 -20 554 -20 c 0,0,1
689 963 m 0,42,43
 625 963 625 963 567.5 944 c 128,-1,44
 510 925 510 925 461 878.5 c 128,-1,45
 412 832 412 832 374.5 753 c 128,-1,46
 337 674 337 674 314 554 c 0,47,48
 295 456 295 456 295 377 c 0,49,50
 295 313 295 313 312 263.5 c 128,-1,51
 329 214 329 214 360.5 180.5 c 128,-1,52
 392 147 392 147 436.5 130 c 128,-1,53
 481 113 481 113 535 113 c 0,54,55
 597 113 597 113 647 131.5 c 128,-1,56
 697 150 697 150 737.5 195.5 c 128,-1,57
 778 241 778 241 809 317.5 c 128,-1,58
 840 394 840 394 862 510 c 0,59,60
 885 631 885 631 885 716 c 0,61,62
 885 839 885 839 838 901 c 128,-1,63
 791 963 791 963 689 963 c 0,42,43
EndSplineSet
EndChar

StartChar: q
Encoding: 113 113 84
Width: 1139
Flags: W
LayerCount: 2
Fore
SplineSet
401 -21 m 0,0,1
 321 -21 321 -21 259 4 c 128,-1,2
 197 29 197 29 155 75 c 128,-1,3
 113 121 113 121 91 186.5 c 128,-1,4
 69 252 69 252 69 333 c 0,5,6
 69 378 69 378 73.5 440 c 128,-1,7
 78 502 78 502 90 565 c 0,8,9
 117 707 117 707 161 808.5 c 128,-1,10
 205 910 205 910 267 975 c 128,-1,11
 329 1040 329 1040 409 1070.5 c 128,-1,12
 489 1101 489 1101 588 1101 c 0,13,14
 711 1101 711 1101 788.5 1049 c 128,-1,15
 866 997 866 997 898 903 c 1,16,-1
 903 903 l 1,17,18
 908 928 908 928 915 958.5 c 128,-1,19
 922 989 922 989 929 1016.5 c 128,-1,20
 936 1044 936 1044 942 1066 c 128,-1,21
 948 1088 948 1088 952 1096 c 1,22,-1
 1125 1096 l 1,23,24
 1120 1079 1120 1079 1103 1007 c 128,-1,25
 1086 935 1086 935 1060 801 c 2,26,-1
 822 -425 l 1,27,-1
 642 -425 l 1,28,-1
 727 14 l 2,29,30
 732 40 732 40 737.5 66 c 128,-1,31
 743 92 743 92 748 113 c 0,32,33
 753 138 753 138 759 160 c 1,34,-1
 755 160 l 1,35,36
 719 113 719 113 681.5 79 c 128,-1,37
 644 45 644 45 601.5 22.5 c 128,-1,38
 559 0 559 0 510 -10.5 c 128,-1,39
 461 -21 461 -21 401 -21 c 0,0,1
453 118 m 0,40,41
 517 118 517 118 574.5 137 c 128,-1,42
 632 156 632 156 681 202.5 c 128,-1,43
 730 249 730 249 767.5 328 c 128,-1,44
 805 407 805 407 828 527 c 0,45,46
 847 625 847 625 847 704 c 0,47,48
 847 769 847 769 830 818 c 128,-1,49
 813 867 813 867 781.5 900.5 c 128,-1,50
 750 934 750 934 705.5 951 c 128,-1,51
 661 968 661 968 607 968 c 0,52,53
 546 968 546 968 495.5 949.5 c 128,-1,54
 445 931 445 931 404.5 885.5 c 128,-1,55
 364 840 364 840 333.5 763.5 c 128,-1,56
 303 687 303 687 280 571 c 0,57,58
 257 450 257 450 257 365 c 0,59,60
 257 242 257 242 304 180 c 128,-1,61
 351 118 351 118 453 118 c 0,40,41
EndSplineSet
EndChar

StartChar: r
Encoding: 114 114 85
Width: 682
Flags: W
LayerCount: 2
Fore
SplineSet
718 938 m 1,0,1
 701 943 701 943 677.5 947 c 128,-1,2
 654 951 654 951 628 951 c 0,3,4
 564 951 564 951 513 914 c 128,-1,5
 462 877 462 877 423.5 820 c 128,-1,6
 385 763 385 763 360 694.5 c 128,-1,7
 335 626 335 626 324 564 c 1,8,-1
 214 0 l 1,9,-1
 34 0 l 1,10,-1
 196 830 l 2,11,12
 203 865 203 865 209 900 c 128,-1,13
 215 935 215 935 220.5 968 c 128,-1,14
 226 1001 226 1001 231 1030.5 c 128,-1,15
 236 1060 236 1060 239 1082 c 1,16,-1
 409 1082 l 1,17,18
 406 1060 406 1060 401.5 1030 c 128,-1,19
 397 1000 397 1000 392 969 c 128,-1,20
 387 938 387 938 382.5 909.5 c 128,-1,21
 378 881 378 881 374 861 c 1,22,-1
 378 861 l 1,23,24
 409 923 409 923 439.5 968.5 c 128,-1,25
 470 1014 470 1014 503 1043.5 c 128,-1,26
 536 1073 536 1073 573.5 1087.5 c 128,-1,27
 611 1102 611 1102 656 1102 c 0,28,29
 667 1102 667 1102 680 1100.5 c 128,-1,30
 693 1099 693 1099 706.5 1097 c 128,-1,31
 720 1095 720 1095 732 1092.5 c 128,-1,32
 744 1090 744 1090 751 1088 c 1,33,-1
 718 938 l 1,0,1
EndSplineSet
EndChar

StartChar: s
Encoding: 115 115 86
Width: 1024
Flags: W
LayerCount: 2
Fore
SplineSet
907 317 m 0,0,1
 907 232 907 232 873 168.5 c 128,-1,2
 839 105 839 105 776.5 63 c 128,-1,3
 714 21 714 21 625 0.5 c 128,-1,4
 536 -20 536 -20 425 -20 c 0,5,6
 332 -20 332 -20 262 -4 c 128,-1,7
 192 12 192 12 141.5 42.5 c 128,-1,8
 91 73 91 73 57.5 118.5 c 128,-1,9
 24 164 24 164 5 223 c 1,10,-1
 152 279 l 1,11,12
 167 239 167 239 190.5 207.5 c 128,-1,13
 214 176 214 176 248.5 154.5 c 128,-1,14
 283 133 283 133 330.5 122 c 128,-1,15
 378 111 378 111 441 111 c 0,16,17
 505 111 505 111 558.5 121.5 c 128,-1,18
 612 132 612 132 650.5 155 c 128,-1,19
 689 178 689 178 710.5 214 c 128,-1,20
 732 250 732 250 732 301 c 0,21,22
 732 341 732 341 713 369.5 c 128,-1,23
 694 398 694 398 659.5 419.5 c 128,-1,24
 625 441 625 441 575.5 459.5 c 128,-1,25
 526 478 526 478 465 497 c 0,26,27
 400 518 400 518 341.5 543 c 128,-1,28
 283 568 283 568 238.5 603 c 128,-1,29
 194 638 194 638 167.5 685.5 c 128,-1,30
 141 733 141 733 141 797 c 0,31,32
 141 879 141 879 176.5 936.5 c 128,-1,33
 212 994 212 994 272.5 1030 c 128,-1,34
 333 1066 333 1066 413.5 1082.5 c 128,-1,35
 494 1099 494 1099 584 1099 c 0,36,37
 666 1099 666 1099 734 1085 c 128,-1,38
 802 1071 802 1071 853 1040.5 c 128,-1,39
 904 1010 904 1010 937 961.5 c 128,-1,40
 970 913 970 913 982 844 c 1,41,-1
 819 819 l 1,42,43
 797 898 797 898 736 933 c 128,-1,44
 675 968 675 968 572 968 c 0,45,46
 519 968 519 968 472.5 960 c 128,-1,47
 426 952 426 952 391 934 c 128,-1,48
 356 916 356 916 335.5 887 c 128,-1,49
 315 858 315 858 315 817 c 256,50,51
 315 776 315 776 334 748.5 c 128,-1,52
 353 721 353 721 387.5 700 c 128,-1,53
 422 679 422 679 470.5 662.5 c 128,-1,54
 519 646 519 646 579 627 c 0,55,56
 636 609 636 609 694.5 585 c 128,-1,57
 753 561 753 561 800 525.5 c 128,-1,58
 847 490 847 490 877 439.5 c 128,-1,59
 907 389 907 389 907 317 c 0,0,1
EndSplineSet
EndChar

StartChar: t
Encoding: 116 116 87
Width: 569
Flags: W
LayerCount: 2
Fore
SplineSet
448 4 m 1,0,1
 411 -5 411 -5 367 -12.5 c 128,-1,2
 323 -20 323 -20 275 -20 c 0,3,4
 190 -20 190 -20 141.5 31 c 128,-1,5
 93 82 93 82 93 166 c 0,6,7
 93 198 93 198 98 234.5 c 128,-1,8
 103 271 103 271 108 296 c 2,9,-1
 234 951 l 1,10,-1
 109 951 l 1,11,-1
 135 1082 l 1,12,-1
 262 1082 l 1,13,-1
 367 1324 l 1,14,-1
 487 1324 l 1,15,-1
 440 1082 l 1,16,-1
 640 1082 l 1,17,-1
 614 951 l 1,18,-1
 414 951 l 1,19,-1
 289 306 l 2,20,21
 285 286 285 286 281 257 c 128,-1,22
 277 228 277 228 277 211 c 0,23,24
 277 169 277 169 298 146 c 128,-1,25
 319 123 319 123 367 123 c 0,26,27
 393 123 393 123 415.5 126.5 c 128,-1,28
 438 130 438 130 467 137 c 1,29,-1
 448 4 l 1,0,1
EndSplineSet
EndChar

StartChar: u
Encoding: 117 117 88
Width: 1139
Flags: W
LayerCount: 2
Fore
SplineSet
415 1082 m 1,0,-1
 289 437 l 2,1,2
 281 398 281 398 276 357.5 c 128,-1,3
 271 317 271 317 271 287 c 0,4,5
 271 208 271 208 313 164 c 128,-1,6
 355 120 355 120 450 120 c 0,7,8
 514 120 514 120 570.5 145.5 c 128,-1,9
 627 171 627 171 673 217.5 c 128,-1,10
 719 264 719 264 751.5 329.5 c 128,-1,11
 784 395 784 395 800 476 c 2,12,-1
 918 1082 l 1,13,-1
 1098 1082 l 1,14,-1
 932 231 l 2,15,16
 925 197 925 197 918.5 159.5 c 128,-1,17
 912 122 912 122 906.5 88.5 c 128,-1,18
 901 55 901 55 897.5 31 c 128,-1,19
 894 7 894 7 893 0 c 1,20,-1
 723 0 l 1,21,22
 723 5 723 5 726 27 c 128,-1,23
 729 49 729 49 733.5 77.5 c 128,-1,24
 738 106 738 106 742.5 135.5 c 128,-1,25
 747 165 747 165 751 185 c 1,26,-1
 748 185 l 1,27,28
 714 138 714 138 678 100 c 128,-1,29
 642 62 642 62 598.5 35.5 c 128,-1,30
 555 9 555 9 502.5 -5 c 128,-1,31
 450 -19 450 -19 383 -19 c 0,32,33
 235 -19 235 -19 160.5 54 c 128,-1,34
 86 127 86 127 86 265 c 0,35,36
 86 301 86 301 92.5 346 c 128,-1,37
 99 391 99 391 107 429 c 2,38,-1
 234 1082 l 1,39,-1
 415 1082 l 1,0,-1
EndSplineSet
EndChar

StartChar: v
Encoding: 118 118 89
Width: 1024
Flags: W
LayerCount: 2
Fore
SplineSet
507 0 m 1,0,-1
 294 0 l 1,1,-1
 112 1082 l 1,2,-1
 299 1082 l 1,3,-1
 400 378 l 2,4,5
 403 356 403 356 406.5 324.5 c 128,-1,6
 410 293 410 293 413 259 c 128,-1,7
 416 225 416 225 418.5 193.5 c 128,-1,8
 421 162 421 162 423 141 c 1,9,10
 434 162 434 162 449 193.5 c 128,-1,11
 464 225 464 225 480.5 258 c 128,-1,12
 497 291 497 291 513.5 322.5 c 128,-1,13
 530 354 530 354 542 376 c 2,14,-1
 926 1082 l 1,15,-1
 1122 1082 l 1,16,-1
 507 0 l 1,0,-1
EndSplineSet
EndChar

StartChar: w
Encoding: 119 119 90
Width: 1479
Flags: W
LayerCount: 2
Fore
SplineSet
1068 0 m 1,0,-1
 859 0 l 1,1,-1
 822 698 l 2,2,3
 821 718 821 718 820 757 c 128,-1,4
 819 796 819 796 818 836 c 0,5,6
 817 883 817 883 816 934 c 1,7,8
 798 889 798 889 780 845 c 0,9,10
 764 807 764 807 746.5 766 c 128,-1,11
 729 725 729 725 715 694 c 2,12,-1
 402 0 l 1,13,-1
 194 0 l 1,14,-1
 102 1082 l 1,15,-1
 280 1082 l 1,16,-1
 320 347 l 2,17,18
 321 335 321 335 322 307.5 c 128,-1,19
 323 280 323 280 324 249.5 c 128,-1,20
 325 219 325 219 326 190.5 c 128,-1,21
 327 162 327 162 327 149 c 1,22,23
 342 185 342 185 357 220 c 0,24,25
 370 250 370 250 383.5 283 c 128,-1,26
 397 316 397 316 408 339 c 2,27,-1
 749 1082 l 1,28,-1
 942 1082 l 1,29,-1
 986 339 l 2,30,31
 989 285 989 285 990.5 235 c 128,-1,32
 992 185 992 185 992 149 c 1,33,34
 1007 185 1007 185 1023 220 c 0,35,36
 1037 250 1037 250 1051.5 284 c 128,-1,37
 1066 318 1066 318 1079 347 c 2,38,-1
 1413 1082 l 1,39,-1
 1589 1082 l 1,40,-1
 1068 0 l 1,0,-1
EndSplineSet
EndChar

StartChar: x
Encoding: 120 120 91
Width: 1024
Flags: W
LayerCount: 2
Fore
SplineSet
706 0 m 1,0,-1
 497 444 l 1,1,-1
 117 0 l 1,2,-1
 -82 0 l 1,3,-1
 410 556 l 1,4,-1
 146 1082 l 1,5,-1
 335 1082 l 1,6,-1
 528 661 l 1,7,-1
 878 1082 l 1,8,-1
 1084 1082 l 1,9,-1
 615 558 l 1,10,-1
 896 0 l 1,11,-1
 706 0 l 1,0,-1
EndSplineSet
EndChar

StartChar: y
Encoding: 121 121 92
Width: 1024
Flags: W
LayerCount: 2
Fore
SplineSet
501 0 m 2,0,1
 446 -95 446 -95 395 -173 c 128,-1,2
 344 -251 344 -251 288 -307 c 128,-1,3
 232 -363 232 -363 166.5 -394 c 128,-1,4
 101 -425 101 -425 16 -425 c 0,5,6
 -17 -425 -17 -425 -51.5 -421.5 c 128,-1,7
 -86 -418 -86 -418 -116 -411 c 1,8,-1
 -85 -277 l 1,9,10
 -68 -280 -68 -280 -46.5 -282.5 c 128,-1,11
 -25 -285 -25 -285 -8 -285 c 0,12,13
 87 -285 87 -285 159.5 -221 c 128,-1,14
 232 -157 232 -157 302 -35 c 2,15,-1
 329 12 l 1,16,-1
 112 1082 l 1,17,-1
 295 1082 l 1,18,-1
 407 484 l 2,19,20
 413 452 413 452 420 410 c 128,-1,21
 427 368 427 368 433 326.5 c 128,-1,22
 439 285 439 285 443.5 249.5 c 128,-1,23
 448 214 448 214 449 196 c 1,24,25
 459 218 459 218 475 249.5 c 128,-1,26
 491 281 491 281 510.5 316.5 c 128,-1,27
 530 352 530 352 550.5 389.5 c 128,-1,28
 571 427 571 427 590 462 c 2,29,-1
 928 1082 l 1,30,-1
 1127 1082 l 1,31,-1
 501 0 l 2,0,1
EndSplineSet
EndChar

StartChar: z
Encoding: 122 122 93
Width: 1024
Flags: W
LayerCount: 2
Fore
SplineSet
-44 0 m 1,0,-1
 -17 137 l 1,1,-1
 780 943 l 1,2,-1
 179 943 l 1,3,-1
 206 1082 l 1,4,-1
 1030 1082 l 1,5,-1
 1003 945 l 1,6,-1
 204 139 l 1,7,-1
 883 139 l 1,8,-1
 856 0 l 1,9,-1
 -44 0 l 1,0,-1
EndSplineSet
EndChar

StartChar: braceleft
Encoding: 123 123 94
Width: 684
Flags: W
LayerCount: 2
Fore
SplineSet
366 -425 m 2,0,1
 307 -425 307 -425 261.5 -406 c 128,-1,2
 216 -387 216 -387 185.5 -354 c 128,-1,3
 155 -321 155 -321 139.5 -275 c 128,-1,4
 124 -229 124 -229 124 -175 c 0,5,6
 124 -163 124 -163 124.5 -147.5 c 128,-1,7
 125 -132 125 -132 126.5 -116 c 128,-1,8
 128 -100 128 -100 130 -84.5 c 128,-1,9
 132 -69 132 -69 134 -58 c 2,10,-1
 190 229 l 2,11,12
 199 273 199 273 199 306 c 0,13,14
 199 389 199 389 152.5 425.5 c 128,-1,15
 106 462 106 462 21 466 c 1,16,-1
 46 593 l 1,17,18
 97 595 97 595 140 609 c 128,-1,19
 183 623 183 623 216 651 c 128,-1,20
 249 679 249 679 272 723 c 128,-1,21
 295 767 295 767 307 829 c 2,22,-1
 377 1191 l 2,23,24
 405 1334 405 1334 480.5 1409 c 128,-1,25
 556 1484 556 1484 698 1484 c 2,26,-1
 833 1484 l 1,27,-1
 808 1355 l 1,28,-1
 745 1355 l 2,29,30
 696 1355 696 1355 661.5 1342 c 128,-1,31
 627 1329 627 1329 602.5 1303 c 128,-1,32
 578 1277 578 1277 562 1236.5 c 128,-1,33
 546 1196 546 1196 535 1140 c 2,34,-1
 466 784 l 2,35,36
 456 734 456 734 433 692 c 128,-1,37
 410 650 410 650 378 618 c 128,-1,38
 346 586 346 586 306 564 c 128,-1,39
 266 542 266 542 223 532 c 1,40,-1
 223 530 l 1,41,42
 292 513 292 513 332.5 463 c 128,-1,43
 373 413 373 413 373 335 c 0,44,45
 373 308 373 308 367 276 c 2,46,-1
 306 -43 l 2,47,48
 303 -58 303 -58 301 -74.5 c 128,-1,49
 299 -91 299 -91 297.5 -107.5 c 128,-1,50
 296 -124 296 -124 294.5 -139 c 128,-1,51
 293 -154 293 -154 293 -165 c 0,52,53
 291 -225 291 -225 326.5 -260.5 c 128,-1,54
 362 -296 362 -296 439 -296 c 2,55,-1
 487 -296 l 1,56,-1
 462 -425 l 1,57,-1
 366 -425 l 2,0,1
EndSplineSet
EndChar

StartChar: bar
Encoding: 124 124 95
Width: 532
Flags: W
LayerCount: 2
Fore
SplineSet
213 -454 m 1,0,-1
 213 1484 l 1,1,-1
 379 1484 l 1,2,-1
 379 -454 l 1,3,-1
 213 -454 l 1,0,-1
EndSplineSet
EndChar

StartChar: braceright
Encoding: 125 125 96
Width: 684
Flags: W
LayerCount: 2
Fore
SplineSet
308 1484 m 2,0,1
 367 1484 367 1484 412.5 1465 c 128,-1,2
 458 1446 458 1446 488.5 1413 c 128,-1,3
 519 1380 519 1380 534.5 1334 c 128,-1,4
 550 1288 550 1288 550 1234 c 0,5,6
 550 1222 550 1222 549.5 1206.5 c 128,-1,7
 549 1191 549 1191 547.5 1175 c 128,-1,8
 546 1159 546 1159 544 1143.5 c 128,-1,9
 542 1128 542 1128 540 1117 c 2,10,-1
 484 830 l 2,11,12
 475 787 475 787 475 753 c 0,13,14
 475 670 475 670 521.5 633.5 c 128,-1,15
 568 597 568 597 653 593 c 1,16,-1
 628 466 l 1,17,18
 577 464 577 464 534 450 c 128,-1,19
 491 436 491 436 458 408 c 128,-1,20
 425 380 425 380 402 336 c 128,-1,21
 379 292 379 292 367 230 c 2,22,-1
 297 -132 l 2,23,24
 269 -275 269 -275 193.5 -350 c 128,-1,25
 118 -425 118 -425 -24 -425 c 2,26,-1
 -159 -425 l 1,27,-1
 -134 -296 l 1,28,-1
 -71 -296 l 2,29,30
 -22 -296 -22 -296 12.5 -283 c 128,-1,31
 47 -270 47 -270 71.5 -244 c 128,-1,32
 96 -218 96 -218 112 -177.5 c 128,-1,33
 128 -137 128 -137 139 -81 c 2,34,-1
 208 275 l 2,35,36
 218 325 218 325 241 367 c 128,-1,37
 264 409 264 409 296 441 c 128,-1,38
 328 473 328 473 368 495 c 128,-1,39
 408 517 408 517 451 527 c 1,40,-1
 451 529 l 1,41,42
 382 546 382 546 341.5 596 c 128,-1,43
 301 646 301 646 301 724 c 0,44,45
 301 752 301 752 307 783 c 2,46,-1
 368 1102 l 2,47,48
 371 1117 371 1117 373 1133.5 c 128,-1,49
 375 1150 375 1150 376.5 1166.5 c 128,-1,50
 378 1183 378 1183 379.5 1198 c 128,-1,51
 381 1213 381 1213 381 1224 c 0,52,53
 383 1284 383 1284 347.5 1319.5 c 128,-1,54
 312 1355 312 1355 235 1355 c 2,55,-1
 187 1355 l 1,56,-1
 212 1484 l 1,57,-1
 308 1484 l 2,0,1
EndSplineSet
EndChar

StartChar: asciitilde
Encoding: 126 126 97
Width: 1196
Flags: W
LayerCount: 2
Fore
SplineSet
874 553 m 0,0,1
 805 553 805 553 732.5 575 c 128,-1,2
 660 597 660 597 587 623 c 0,3,4
 458 668 458 668 370 668 c 0,5,6
 332 668 332 668 299.5 662 c 128,-1,7
 267 656 267 656 237 644.5 c 128,-1,8
 207 633 207 633 179 617 c 128,-1,9
 151 601 151 601 122 580 c 1,10,-1
 122 723 l 1,11,12
 172 761 172 761 238 784 c 128,-1,13
 304 807 304 807 385 807 c 0,14,15
 426 807 426 807 465.5 800.5 c 128,-1,16
 505 794 505 794 543.5 784 c 128,-1,17
 582 774 582 774 619.5 761 c 128,-1,18
 657 748 657 748 694 735 c 0,19,20
 715 728 715 728 740 720 c 128,-1,21
 765 712 765 712 790.5 705 c 128,-1,22
 816 698 816 698 841.5 694 c 128,-1,23
 867 690 867 690 890 690 c 0,24,25
 959 690 959 690 1020.5 715 c 128,-1,26
 1082 740 1082 740 1134 782 c 1,27,-1
 1134 633 l 1,28,29
 1103 611 1103 611 1073 595.5 c 128,-1,30
 1043 580 1043 580 1012.5 570.5 c 128,-1,31
 982 561 982 561 948 557 c 128,-1,32
 914 553 914 553 874 553 c 0,0,1
EndSplineSet
EndChar

StartChar: exclamdown
Encoding: 161 161 98
Width: 682
Flags: W
LayerCount: 2
Fore
SplineSet
284 686 m 1,0,-1
 432 686 l 1,1,-1
 260 -326 l 1,2,-1
 64 -326 l 1,3,-1
 284 686 l 1,0,-1
536 1083 m 1,4,-1
 496 882 l 1,5,-1
 302 882 l 1,6,-1
 342 1083 l 1,7,-1
 536 1083 l 1,4,-1
EndSplineSet
EndChar

StartChar: cent
Encoding: 162 162 99
Width: 1139
Flags: W
HStem: 136.018 146.707<616.784 719.33> 1108.55 142.448<806 853.461> 1389 20G<707.125 835>
VStem: 158 184<359.941 841.451> 915 177<937.975 1047.9>
LayerCount: 2
Fore
SplineSet
493.242 285.088 m 1,0,-1
 653.721 1113.37 l 1,1,2
 552.983 1099.74 552.983 1099.74 498.492 1043.37 c 128,-1,3
 444 987 444 987 413 914.5 c 128,-1,4
 382 842 382 842 367 765.5 c 0,5,6
 342 638 342 638 342 528 c 128,-1,7
 342 418 342 418 385.306 359.137 c 128,-1,8
 428.612 300.275 428.612 300.275 493.242 285.088 c 1,0,-1
616.784 282.725 m 1,9,10
 777.002 310.954 777.002 310.954 849 508 c 1,11,-1
 1005 459 l 1,12,13
 889.523 151.062 889.523 151.062 588.36 136.018 c 1,14,-1
 556 -31 l 1,15,-1
 432 -31 l 1,16,-1
 465.532 142.07 l 1,17,18
 310.542 165.18 310.542 165.18 231.5 279 c 0,19,20
 158 384.84 158 384.84 158 551 c 0,21,22
 158 743.5 158 743.5 227 916 c 0,23,24
 339.914 1198.28 339.914 1198.28 580.5 1245 c 0,25,26
 631.262 1254.86 631.262 1254.86 681.539 1256.94 c 1,27,-1
 711 1409 l 1,28,-1
 835 1409 l 1,29,-1
 806 1251 l 1,30,31
 1004.25 1221.85 1004.25 1221.85 1068 1054.5 c 0,32,33
 1088 1002 1088 1002 1092 940 c 1,34,-1
 915 915 l 1,35,36
 904.493 1072.61 904.493 1072.61 776.788 1108.55 c 1,37,-1
 616.784 282.725 l 1,9,10
EndSplineSet
EndChar

StartChar: sterling
Encoding: 163 163 100
Width: 1139
Flags: W
LayerCount: 2
Fore
SplineSet
1075 310 m 1,0,1
 1038 158 1038 158 938 79 c 128,-1,2
 838 0 838 0 688 0 c 2,3,-1
 -12 0 l 1,4,-1
 17 154 l 1,5,6
 114 200 114 200 172.5 278.5 c 128,-1,7
 231 357 231 357 255 481 c 2,8,-1
 283 625 l 1,9,-1
 97 625 l 1,10,-1
 122 754 l 1,11,-1
 308 754 l 1,12,-1
 363 1034 l 2,13,14
 381 1126 381 1126 415 1199.5 c 128,-1,15
 449 1273 449 1273 504 1324 c 128,-1,16
 559 1375 559 1375 636 1402.5 c 128,-1,17
 713 1430 713 1430 816 1430 c 0,18,19
 886 1430 886 1430 947 1415 c 128,-1,20
 1008 1400 1008 1400 1055 1370.5 c 128,-1,21
 1102 1341 1102 1341 1134 1298.5 c 128,-1,22
 1166 1256 1166 1256 1178 1200 c 1,23,-1
 1014 1150 l 1,24,25
 994 1214 994 1214 938 1248 c 128,-1,26
 882 1282 882 1282 809 1282 c 0,27,28
 695 1282 695 1282 631.5 1224.5 c 128,-1,29
 568 1167 568 1167 544 1042 c 2,30,-1
 488 754 l 1,31,-1
 896 754 l 1,32,-1
 871 625 l 1,33,-1
 463 625 l 1,34,-1
 436 478 l 2,35,36
 426 423 426 423 405 373 c 128,-1,37
 384 323 384 323 353.5 281 c 128,-1,38
 323 239 323 239 285 206.5 c 128,-1,39
 247 174 247 174 202 153 c 1,40,-1
 666 153 l 2,41,42
 769 153 769 153 833.5 195.5 c 128,-1,43
 898 238 898 238 924 334 c 1,44,-1
 1075 310 l 1,0,1
EndSplineSet
EndChar

StartChar: currency
Encoding: 164 164 101
Width: 1139
Flags: W
LayerCount: 2
Fore
SplineSet
165 684 m 256,0,1
 165 755 165 755 185.5 818.5 c 128,-1,2
 206 882 206 882 243 936 c 1,3,-1
 143 1036 l 1,4,-1
 247 1139 l 1,5,-1
 346 1038 l 1,6,7
 400 1077 400 1077 463.5 1098.5 c 128,-1,8
 527 1120 527 1120 600 1120 c 0,9,10
 671 1120 671 1120 734 1099 c 128,-1,11
 797 1078 797 1078 851 1040 c 1,12,-1
 948 1137 l 1,13,-1
 1052 1032 l 1,14,-1
 956 936 l 1,15,16
 993 882 993 882 1014.5 818.5 c 128,-1,17
 1036 755 1036 755 1036 684 c 256,18,19
 1036 613 1036 613 1014 549 c 128,-1,20
 992 485 992 485 954 432 c 1,21,-1
 1054 332 l 1,22,-1
 952 227 l 1,23,-1
 851 328 l 1,24,25
 797 291 797 291 734 270.5 c 128,-1,26
 671 250 671 250 600 250 c 0,27,28
 528 250 528 250 464 271 c 128,-1,29
 400 292 400 292 348 330 c 1,30,-1
 243 225 l 1,31,-1
 141 330 l 1,32,-1
 243 432 l 1,33,34
 206 486 206 486 185.5 549.5 c 128,-1,35
 165 613 165 613 165 684 c 256,0,1
319 686 m 256,36,37
 319 628 319 628 341.5 577 c 128,-1,38
 364 526 364 526 402 488 c 128,-1,39
 440 450 440 450 491 428 c 128,-1,40
 542 406 542 406 600 406 c 0,41,42
 657 406 657 406 708 428 c 128,-1,43
 759 450 759 450 797.5 488 c 128,-1,44
 836 526 836 526 858 577 c 128,-1,45
 880 628 880 628 880 686 c 256,46,47
 880 744 880 744 858 795 c 128,-1,48
 836 846 836 846 797.5 884.5 c 128,-1,49
 759 923 759 923 708 945 c 128,-1,50
 657 967 657 967 600 967 c 0,51,52
 542 967 542 967 491 945 c 128,-1,53
 440 923 440 923 402 884.5 c 128,-1,54
 364 846 364 846 341.5 795 c 128,-1,55
 319 744 319 744 319 686 c 256,36,37
EndSplineSet
EndChar

StartChar: yen
Encoding: 165 165 102
Width: 1139
Flags: W
LayerCount: 2
Fore
SplineSet
745 709 m 1,0,-1
 1066 709 l 1,1,-1
 1042 584 l 1,2,-1
 659 584 l 1,3,-1
 629 430 l 1,4,-1
 1012 430 l 1,5,-1
 987 303 l 1,6,-1
 604 303 l 1,7,-1
 545 0 l 1,8,-1
 367 0 l 1,9,-1
 426 303 l 1,10,-1
 45 303 l 1,11,-1
 70 430 l 1,12,-1
 451 430 l 1,13,-1
 483 584 l 1,14,-1
 100 584 l 1,15,-1
 124 709 l 1,16,-1
 444 709 l 1,17,-1
 159 1409 l 1,18,-1
 352 1409 l 1,19,-1
 598 762 l 1,20,-1
 1098 1409 l 1,21,-1
 1303 1409 l 1,22,-1
 745 709 l 1,0,-1
EndSplineSet
EndChar

StartChar: brokenbar
Encoding: 166 166 103
Width: 532
Flags: W
LayerCount: 2
Fore
SplineSet
213 707 m 1,0,-1
 213 1485 l 1,1,-1
 379 1485 l 1,2,-1
 379 707 l 1,3,-1
 213 707 l 1,0,-1
213 -455 m 1,4,-1
 213 324 l 1,5,-1
 379 324 l 1,6,-1
 379 -455 l 1,7,-1
 213 -455 l 1,4,-1
EndSplineSet
EndChar

StartChar: section
Encoding: 167 167 104
Width: 1139
Flags: W
LayerCount: 2
Fore
SplineSet
1010 673 m 0,0,1
 1010 612 1010 612 991 565 c 128,-1,2
 972 518 972 518 936 483.5 c 128,-1,3
 900 449 900 449 849.5 425.5 c 128,-1,4
 799 402 799 402 736 388 c 1,5,6
 793 352 793 352 830.5 298.5 c 128,-1,7
 868 245 868 245 868 165 c 0,8,9
 868 80 868 80 834 16.5 c 128,-1,10
 800 -47 800 -47 737 -89 c 128,-1,11
 674 -131 674 -131 584.5 -151.5 c 128,-1,12
 495 -172 495 -172 383 -172 c 0,13,14
 292 -172 292 -172 222.5 -156 c 128,-1,15
 153 -140 153 -140 102.5 -109.5 c 128,-1,16
 52 -79 52 -79 18.5 -33.5 c 128,-1,17
 -15 12 -15 12 -34 71 c 1,18,-1
 113 127 l 1,19,20
 128 87 128 87 151.5 55.5 c 128,-1,21
 175 24 175 24 209.5 2.5 c 128,-1,22
 244 -19 244 -19 291.5 -30 c 128,-1,23
 339 -41 339 -41 402 -41 c 0,24,25
 466 -41 466 -41 519.5 -30.5 c 128,-1,26
 573 -20 573 -20 611.5 3 c 128,-1,27
 650 26 650 26 671.5 62 c 128,-1,28
 693 98 693 98 693 149 c 0,29,30
 693 189 693 189 673.5 218.5 c 128,-1,31
 654 248 654 248 619 270.5 c 128,-1,32
 584 293 584 293 535 311.5 c 128,-1,33
 486 330 486 330 427 348 c 0,34,35
 362 368 362 368 303 396 c 128,-1,36
 244 424 244 424 199.5 463 c 128,-1,37
 155 502 155 502 128.5 554 c 128,-1,38
 102 606 102 606 102 673 c 0,39,40
 102 734 102 734 122.5 781 c 128,-1,41
 143 828 143 828 179.5 862.5 c 128,-1,42
 216 897 216 897 267 920.5 c 128,-1,43
 318 944 318 944 378 957 c 1,44,45
 318 995 318 995 281 1049.5 c 128,-1,46
 244 1104 244 1104 244 1182 c 0,47,48
 244 1264 244 1264 279.5 1321.5 c 128,-1,49
 315 1379 315 1379 376 1415 c 128,-1,50
 437 1451 437 1451 519.5 1467.5 c 128,-1,51
 602 1484 602 1484 695 1484 c 0,52,53
 774 1484 774 1484 840.5 1470 c 128,-1,54
 907 1456 907 1456 957 1425.5 c 128,-1,55
 1007 1395 1007 1395 1040 1346.5 c 128,-1,56
 1073 1298 1073 1298 1085 1229 c 1,57,-1
 922 1204 l 1,58,59
 900 1283 900 1283 840.5 1318 c 128,-1,60
 781 1353 781 1353 688 1353 c 0,61,62
 630 1353 630 1353 580.5 1344.5 c 128,-1,63
 531 1336 531 1336 495 1317 c 128,-1,64
 459 1298 459 1298 438.5 1267 c 128,-1,65
 418 1236 418 1236 418 1190 c 0,66,67
 418 1154 418 1154 438 1126.5 c 128,-1,68
 458 1099 458 1099 493 1076.5 c 128,-1,69
 528 1054 528 1054 576 1035.5 c 128,-1,70
 624 1017 624 1017 680 999 c 0,71,72
 737 981 737 981 795.5 956 c 128,-1,73
 854 931 854 931 902 893.5 c 128,-1,74
 950 856 950 856 980 802 c 128,-1,75
 1010 748 1010 748 1010 673 c 0,0,1
276 688 m 0,76,77
 276 641 276 641 300.5 606.5 c 128,-1,78
 325 572 325 572 364 546.5 c 128,-1,79
 403 521 403 521 452 502 c 128,-1,80
 501 483 501 483 550 468 c 1,81,82
 607 470 607 470 658.5 482 c 128,-1,83
 710 494 710 494 749.5 517.5 c 128,-1,84
 789 541 789 541 812 577 c 128,-1,85
 835 613 835 613 835 662 c 0,86,87
 835 710 835 710 811 744.5 c 128,-1,88
 787 779 787 779 746 804.5 c 128,-1,89
 705 830 705 830 650 849 c 128,-1,90
 595 868 595 868 533 886 c 1,91,92
 477 883 477 883 429.5 868 c 128,-1,93
 382 853 382 853 348 827.5 c 128,-1,94
 314 802 314 802 295 766.5 c 128,-1,95
 276 731 276 731 276 688 c 0,76,77
EndSplineSet
EndChar

StartChar: dieresis
Encoding: 168 168 105
Width: 682
Flags: W
LayerCount: 2
Fore
SplineSet
521 1219 m 1,0,-1
 556 1403 l 1,1,-1
 729 1403 l 1,2,-1
 694 1219 l 1,3,-1
 521 1219 l 1,0,-1
137 1219 m 1,4,-1
 172 1403 l 1,5,-1
 347 1403 l 1,6,-1
 312 1219 l 1,7,-1
 137 1219 l 1,4,-1
EndSplineSet
EndChar

StartChar: copyright
Encoding: 169 169 106
Width: 1509
Flags: W
LayerCount: 2
Fore
SplineSet
1509 707 m 0,0,1
 1509 607 1509 607 1483 514.5 c 128,-1,2
 1457 422 1457 422 1410 341.5 c 128,-1,3
 1363 261 1363 261 1297.5 195.5 c 128,-1,4
 1232 130 1232 130 1151.5 83 c 128,-1,5
 1071 36 1071 36 978.5 10 c 128,-1,6
 886 -16 886 -16 786 -16 c 0,7,8
 687 -16 687 -16 594.5 10 c 128,-1,9
 502 36 502 36 422 83 c 128,-1,10
 342 130 342 130 275.5 195.5 c 128,-1,11
 209 261 209 261 162 341.5 c 128,-1,12
 115 422 115 422 89 514.5 c 128,-1,13
 63 607 63 607 63 707 c 256,14,15
 63 807 63 807 89 899 c 128,-1,16
 115 991 115 991 162 1071.5 c 128,-1,17
 209 1152 209 1152 275 1218 c 128,-1,18
 341 1284 341 1284 421.5 1331 c 128,-1,19
 502 1378 502 1378 594 1404 c 128,-1,20
 686 1430 686 1430 786 1430 c 0,21,22
 936 1430 936 1430 1067.5 1373 c 128,-1,23
 1199 1316 1199 1316 1297.5 1218 c 128,-1,24
 1396 1120 1396 1120 1452.5 988.5 c 128,-1,25
 1509 857 1509 857 1509 707 c 0,0,1
1417 707 m 0,26,27
 1417 837 1417 837 1367.5 951 c 128,-1,28
 1318 1065 1318 1065 1232 1150.5 c 128,-1,29
 1146 1236 1146 1236 1031.5 1285.5 c 128,-1,30
 917 1335 917 1335 786 1335 c 0,31,32
 656 1335 656 1335 542 1285.5 c 128,-1,33
 428 1236 428 1236 342.5 1150.5 c 128,-1,34
 257 1065 257 1065 207.5 951 c 128,-1,35
 158 837 158 837 158 707 c 0,36,37
 158 576 158 576 207.5 461.5 c 128,-1,38
 257 347 257 347 342.5 261.5 c 128,-1,39
 428 176 428 176 542 127 c 128,-1,40
 656 78 656 78 786 78 c 0,41,42
 917 78 917 78 1031.5 127 c 128,-1,43
 1146 176 1146 176 1232 261.5 c 128,-1,44
 1318 347 1318 347 1367.5 461.5 c 128,-1,45
 1417 576 1417 576 1417 707 c 0,26,27
797 279 m 0,46,47
 696 279 696 279 621.5 311 c 128,-1,48
 547 343 547 343 498 400 c 128,-1,49
 449 457 449 457 425 536 c 128,-1,50
 401 615 401 615 401 709 c 0,51,52
 401 807 401 807 425 885 c 128,-1,53
 449 963 449 963 497.5 1018.5 c 128,-1,54
 546 1074 546 1074 619 1103.5 c 128,-1,55
 692 1133 692 1133 790 1133 c 0,56,57
 865 1133 865 1133 921 1115 c 128,-1,58
 977 1097 977 1097 1017 1067.5 c 128,-1,59
 1057 1038 1057 1038 1084.5 1000.5 c 128,-1,60
 1112 963 1112 963 1130 924 c 1,61,-1
 1016 891 l 1,62,63
 1004 917 1004 917 985 942 c 128,-1,64
 966 967 966 967 938.5 986 c 128,-1,65
 911 1005 911 1005 875 1016.5 c 128,-1,66
 839 1028 839 1028 792 1028 c 0,67,68
 723 1028 723 1028 673.5 1005 c 128,-1,69
 624 982 624 982 592 940.5 c 128,-1,70
 560 899 560 899 545 840 c 128,-1,71
 530 781 530 781 530 709 c 256,72,73
 530 637 530 637 546.5 577 c 128,-1,74
 563 517 563 517 596.5 474 c 128,-1,75
 630 431 630 431 680 407 c 128,-1,76
 730 383 730 383 797 383 c 0,77,78
 846 383 846 383 883.5 396.5 c 128,-1,79
 921 410 921 410 949 432.5 c 128,-1,80
 977 455 977 455 996.5 483 c 128,-1,81
 1016 511 1016 511 1030 539 c 1,82,-1
 1145 504 l 1,83,84
 1123 461 1123 461 1094 420.5 c 128,-1,85
 1065 380 1065 380 1024 348.5 c 128,-1,86
 983 317 983 317 927.5 298 c 128,-1,87
 872 279 872 279 797 279 c 0,46,47
EndSplineSet
EndChar

StartChar: ordfeminine
Encoding: 170 170 107
Width: 758
Flags: W
LayerCount: 2
Fore
SplineSet
799 670 m 1,0,1
 782 664 782 664 763.5 660.5 c 128,-1,2
 745 657 745 657 723 657 c 0,3,4
 687 657 687 657 661 665.5 c 128,-1,5
 635 674 635 674 618.5 689 c 128,-1,6
 602 704 602 704 594 723.5 c 128,-1,7
 586 743 586 743 586 765 c 0,8,9
 586 771 586 771 587 784 c 128,-1,10
 588 797 588 797 590 805 c 1,11,-1
 586 805 l 1,12,13
 559 770 559 770 530.5 741.5 c 128,-1,14
 502 713 502 713 469 693 c 128,-1,15
 436 673 436 673 397 662 c 128,-1,16
 358 651 358 651 311 651 c 0,17,18
 257 651 257 651 216 666.5 c 128,-1,19
 175 682 175 682 146.5 709.5 c 128,-1,20
 118 737 118 737 103.5 775 c 128,-1,21
 89 813 89 813 89 858 c 0,22,23
 89 936 89 936 120.5 984.5 c 128,-1,24
 152 1033 152 1033 203.5 1061 c 128,-1,25
 255 1089 255 1089 320.5 1100 c 128,-1,26
 386 1111 386 1111 453 1112 c 2,27,-1
 632 1116 l 1,28,-1
 644 1176 l 2,29,30
 650 1206 650 1206 650 1229 c 0,31,32
 650 1282 650 1282 616 1306.5 c 128,-1,33
 582 1331 582 1331 523 1331 c 0,34,35
 490 1331 490 1331 460.5 1324.5 c 128,-1,36
 431 1318 431 1318 407 1302 c 128,-1,37
 383 1286 383 1286 365.5 1260 c 128,-1,38
 348 1234 348 1234 339 1196 c 1,39,-1
 207 1213 l 1,40,41
 220 1262 220 1262 244.5 1302 c 128,-1,42
 269 1342 269 1342 308 1371 c 128,-1,43
 347 1400 347 1400 400.5 1416 c 128,-1,44
 454 1432 454 1432 525 1432 c 0,45,46
 652 1432 652 1432 721.5 1378.5 c 128,-1,47
 791 1325 791 1325 791 1233 c 0,48,49
 791 1226 791 1226 790 1215 c 128,-1,50
 789 1204 789 1204 787.5 1192.5 c 128,-1,51
 786 1181 786 1181 784.5 1169.5 c 128,-1,52
 783 1158 783 1158 781 1149 c 2,53,-1
 728 874 l 2,54,55
 722 843 722 843 722 821 c 0,56,57
 722 792 722 792 733.5 779 c 128,-1,58
 745 766 745 766 770 766 c 0,59,60
 782 766 782 766 793.5 768.5 c 128,-1,61
 805 771 805 771 814 774 c 1,62,-1
 799 670 l 1,0,1
614 1024 m 1,63,-1
 475 1020 l 2,64,65
 432 1019 432 1019 390 1012.5 c 128,-1,66
 348 1006 348 1006 315.5 989.5 c 128,-1,67
 283 973 283 973 263 943 c 128,-1,68
 243 913 243 913 243 865 c 0,69,70
 243 845 243 845 249 826.5 c 128,-1,71
 255 808 255 808 268.5 793.5 c 128,-1,72
 282 779 282 779 302.5 770.5 c 128,-1,73
 323 762 323 762 352 762 c 0,74,75
 398 762 398 762 440.5 779.5 c 128,-1,76
 483 797 483 797 516.5 826.5 c 128,-1,77
 550 856 550 856 573 894 c 128,-1,78
 596 932 596 932 604 972 c 2,79,-1
 614 1024 l 1,63,-1
EndSplineSet
EndChar

StartChar: guillemotleft
Encoding: 171 171 108
Width: 1139
Flags: W
LayerCount: 2
Fore
SplineSet
818 141 m 1,0,-1
 551 506 l 1,1,-1
 563 569 l 1,2,-1
 973 940 l 1,3,-1
 1131 940 l 1,4,-1
 1125 903 l 1,5,-1
 715 531 l 1,6,-1
 983 164 l 1,7,-1
 978 141 l 1,8,-1
 818 141 l 1,0,-1
341 141 m 1,9,-1
 76 506 l 1,10,-1
 88 569 l 1,11,-1
 496 940 l 1,12,-1
 653 940 l 1,13,-1
 647 902 l 1,14,-1
 240 530 l 1,15,-1
 505 163 l 1,16,-1
 500 141 l 1,17,-1
 341 141 l 1,9,-1
EndSplineSet
EndChar

StartChar: logicalnot
Encoding: 172 172 109
Width: 1196
Flags: W
LayerCount: 2
Fore
SplineSet
950 180 m 1,0,-1
 950 608 l 1,1,-1
 100 608 l 1,2,-1
 100 754 l 1,3,-1
 1095 754 l 1,4,-1
 1095 180 l 1,5,-1
 950 180 l 1,0,-1
EndSplineSet
EndChar

StartChar: registered
Encoding: 174 174 110
Width: 1509
Flags: W
LayerCount: 2
Fore
SplineSet
1509 707 m 0,0,1
 1509 607 1509 607 1483 514.5 c 128,-1,2
 1457 422 1457 422 1410 341.5 c 128,-1,3
 1363 261 1363 261 1297.5 195.5 c 128,-1,4
 1232 130 1232 130 1151.5 83 c 128,-1,5
 1071 36 1071 36 978.5 10 c 128,-1,6
 886 -16 886 -16 786 -16 c 0,7,8
 687 -16 687 -16 594.5 10 c 128,-1,9
 502 36 502 36 422 83 c 128,-1,10
 342 130 342 130 275.5 195.5 c 128,-1,11
 209 261 209 261 162 341.5 c 128,-1,12
 115 422 115 422 89 514.5 c 128,-1,13
 63 607 63 607 63 707 c 256,14,15
 63 807 63 807 89 899 c 128,-1,16
 115 991 115 991 162 1071.5 c 128,-1,17
 209 1152 209 1152 275 1218 c 128,-1,18
 341 1284 341 1284 421.5 1331 c 128,-1,19
 502 1378 502 1378 594 1404 c 128,-1,20
 686 1430 686 1430 786 1430 c 0,21,22
 936 1430 936 1430 1067.5 1373 c 128,-1,23
 1199 1316 1199 1316 1297.5 1218 c 128,-1,24
 1396 1120 1396 1120 1452.5 988.5 c 128,-1,25
 1509 857 1509 857 1509 707 c 0,0,1
1417 707 m 0,26,27
 1417 837 1417 837 1367.5 951 c 128,-1,28
 1318 1065 1318 1065 1232 1150.5 c 128,-1,29
 1146 1236 1146 1236 1031.5 1285.5 c 128,-1,30
 917 1335 917 1335 786 1335 c 0,31,32
 656 1335 656 1335 542 1285.5 c 128,-1,33
 428 1236 428 1236 342.5 1150.5 c 128,-1,34
 257 1065 257 1065 207.5 951 c 128,-1,35
 158 837 158 837 158 707 c 0,36,37
 158 576 158 576 207.5 461.5 c 128,-1,38
 257 347 257 347 342.5 261.5 c 128,-1,39
 428 176 428 176 542 127 c 128,-1,40
 656 78 656 78 786 78 c 0,41,42
 917 78 917 78 1031.5 127 c 128,-1,43
 1146 176 1146 176 1232 261.5 c 128,-1,44
 1318 347 1318 347 1367.5 461.5 c 128,-1,45
 1417 576 1417 576 1417 707 c 0,26,27
987 289 m 1,46,-1
 788 625 l 1,47,-1
 627 625 l 1,48,-1
 627 289 l 1,49,-1
 500 289 l 1,50,-1
 500 1120 l 1,51,-1
 807 1120 l 2,52,53
 949 1120 949 1120 1024.5 1057 c 128,-1,54
 1100 994 1100 994 1100 883 c 0,55,56
 1100 781 1100 781 1048 719.5 c 128,-1,57
 996 658 996 658 911 639 c 1,58,-1
 1132 289 l 1,59,-1
 987 289 l 1,46,-1
973 881 m 0,60,61
 973 950 973 950 925.5 986 c 128,-1,62
 878 1022 878 1022 797 1022 c 2,63,-1
 627 1022 l 1,64,-1
 627 721 l 1,65,-1
 809 721 l 2,66,67
 889 721 889 721 931 763.5 c 128,-1,68
 973 806 973 806 973 881 c 0,60,61
EndSplineSet
EndChar

StartChar: macron
Encoding: 175 175 111
Width: 1131
Flags: W
LayerCount: 2
Fore
SplineSet
1148 1503 m 1,0,-1
 -17 1503 l 1,1,-1
 -17 1620 l 1,2,-1
 1148 1620 l 1,3,-1
 1148 1503 l 1,0,-1
EndSplineSet
EndChar

StartChar: degree
Encoding: 176 176 112
Width: 819
Flags: W
LayerCount: 2
Fore
SplineSet
770 1145 m 0,0,1
 770 1086 770 1086 747.5 1034 c 128,-1,2
 725 982 725 982 686 943.5 c 128,-1,3
 647 905 647 905 594.5 882.5 c 128,-1,4
 542 860 542 860 483 860 c 256,5,6
 424 860 424 860 372 882.5 c 128,-1,7
 320 905 320 905 281 943.5 c 128,-1,8
 242 982 242 982 219 1034 c 128,-1,9
 196 1086 196 1086 196 1145 c 0,10,11
 196 1205 196 1205 219 1257 c 128,-1,12
 242 1309 242 1309 281 1347.5 c 128,-1,13
 320 1386 320 1386 372 1408 c 128,-1,14
 424 1430 424 1430 483 1430 c 256,15,16
 542 1430 542 1430 594.5 1408 c 128,-1,17
 647 1386 647 1386 686 1347.5 c 128,-1,18
 725 1309 725 1309 747.5 1257 c 128,-1,19
 770 1205 770 1205 770 1145 c 0,0,1
661 1145 m 0,20,21
 661 1183 661 1183 647.5 1215.5 c 128,-1,22
 634 1248 634 1248 610 1272.5 c 128,-1,23
 586 1297 586 1297 553.5 1311 c 128,-1,24
 521 1325 521 1325 483 1325 c 0,25,26
 446 1325 446 1325 413.5 1311 c 128,-1,27
 381 1297 381 1297 357 1272.5 c 128,-1,28
 333 1248 333 1248 319 1215.5 c 128,-1,29
 305 1183 305 1183 305 1145 c 0,30,31
 305 1108 305 1108 319 1075.5 c 128,-1,32
 333 1043 333 1043 357 1018.5 c 128,-1,33
 381 994 381 994 413.5 979.5 c 128,-1,34
 446 965 446 965 483 965 c 0,35,36
 521 965 521 965 553.5 979.5 c 128,-1,37
 586 994 586 994 610 1018.5 c 128,-1,38
 634 1043 634 1043 647.5 1075.5 c 128,-1,39
 661 1108 661 1108 661 1145 c 0,20,21
EndSplineSet
EndChar

StartChar: plusminus
Encoding: 177 177 113
Width: 1124
Flags: W
LayerCount: 2
Fore
SplineSet
636 680 m 1,0,-1
 636 285 l 1,1,-1
 489 285 l 1,2,-1
 489 680 l 1,3,-1
 65 680 l 1,4,-1
 65 825 l 1,5,-1
 489 825 l 1,6,-1
 489 1219 l 1,7,-1
 636 1219 l 1,8,-1
 636 825 l 1,9,-1
 1060 825 l 1,10,-1
 1060 680 l 1,11,-1
 636 680 l 1,0,-1
65 0 m 1,12,-1
 65 145 l 1,13,-1
 1060 145 l 1,14,-1
 1060 0 l 1,15,-1
 65 0 l 1,12,-1
EndSplineSet
EndChar

StartChar: uni00B2
Encoding: 178 178 114
Width: 682
Flags: W
LayerCount: 2
Fore
SplineSet
30 563 m 1,0,-1
 48 666 l 1,1,2
 77 712 77 712 113 749.5 c 128,-1,3
 149 787 149 787 188.5 818 c 128,-1,4
 228 849 228 849 269.5 875 c 128,-1,5
 311 901 311 901 351 925 c 0,6,7
 402 955 402 955 448 983 c 128,-1,8
 494 1011 494 1011 529.5 1042 c 128,-1,9
 565 1073 565 1073 585.5 1109.5 c 128,-1,10
 606 1146 606 1146 606 1192 c 0,11,12
 606 1243 606 1243 572 1279 c 128,-1,13
 538 1315 538 1315 473 1315 c 0,14,15
 441 1315 441 1315 411.5 1306 c 128,-1,16
 382 1297 382 1297 357.5 1279 c 128,-1,17
 333 1261 333 1261 315 1234.5 c 128,-1,18
 297 1208 297 1208 289 1174 c 1,19,-1
 164 1189 l 1,20,21
 177 1241 177 1241 202.5 1284 c 128,-1,22
 228 1327 228 1327 267 1357.5 c 128,-1,23
 306 1388 306 1388 359.5 1404.5 c 128,-1,24
 413 1421 413 1421 480 1421 c 0,25,26
 543 1421 543 1421 592 1404 c 128,-1,27
 641 1387 641 1387 674 1358 c 128,-1,28
 707 1329 707 1329 724.5 1290 c 128,-1,29
 742 1251 742 1251 742 1206 c 0,30,31
 742 1140 742 1140 714 1088 c 128,-1,32
 686 1036 686 1036 641 993.5 c 128,-1,33
 596 951 596 951 540 916 c 128,-1,34
 484 881 484 881 427 848 c 0,35,36
 392 828 392 828 358 807 c 128,-1,37
 324 786 324 786 294.5 765 c 128,-1,38
 265 744 265 744 241.5 721.5 c 128,-1,39
 218 699 218 699 203 676 c 1,40,-1
 651 676 l 1,41,-1
 631 563 l 1,42,-1
 30 563 l 1,0,-1
EndSplineSet
EndChar

StartChar: uni00B3
Encoding: 179 179 115
Width: 682
Flags: W
LayerCount: 2
Fore
SplineSet
332 1049 m 1,0,-1
 389 1049 l 2,1,2
 420 1049 420 1049 455 1055 c 128,-1,3
 490 1061 490 1061 520 1078.5 c 128,-1,4
 550 1096 550 1096 570 1126 c 128,-1,5
 590 1156 590 1156 590 1204 c 256,6,7
 590 1252 590 1252 557 1283.5 c 128,-1,8
 524 1315 524 1315 467 1315 c 0,9,10
 399 1315 399 1315 350.5 1280 c 128,-1,11
 302 1245 302 1245 283 1180 c 1,12,-1
 158 1205 l 1,13,14
 176 1263 176 1263 206 1304 c 128,-1,15
 236 1345 236 1345 276.5 1371 c 128,-1,16
 317 1397 317 1397 368 1409 c 128,-1,17
 419 1421 419 1421 477 1421 c 0,18,19
 534 1421 534 1421 580.5 1405.5 c 128,-1,20
 627 1390 627 1390 660 1362.5 c 128,-1,21
 693 1335 693 1335 710.5 1298 c 128,-1,22
 728 1261 728 1261 728 1218 c 0,23,24
 728 1039 728 1039 510 995 c 1,25,-1
 510 993 l 1,26,27
 549 986 549 986 579 969.5 c 128,-1,28
 609 953 609 953 630 930 c 128,-1,29
 651 907 651 907 662 878 c 128,-1,30
 673 849 673 849 673 817 c 0,31,32
 673 753 673 753 648 703.5 c 128,-1,33
 623 654 623 654 579.5 620 c 128,-1,34
 536 586 536 586 477 568.5 c 128,-1,35
 418 551 418 551 350 551 c 0,36,37
 266 551 266 551 211.5 573 c 128,-1,38
 157 595 157 595 123.5 629.5 c 128,-1,39
 90 664 90 664 74.5 705 c 128,-1,40
 59 746 59 746 53 785 c 1,41,-1
 182 801 l 1,42,43
 186 770 186 770 198 743 c 128,-1,44
 210 716 210 716 231.5 696.5 c 128,-1,45
 253 677 253 677 284 666 c 128,-1,46
 315 655 315 655 356 655 c 0,47,48
 393 655 393 655 426 664.5 c 128,-1,49
 459 674 459 674 483.5 694.5 c 128,-1,50
 508 715 508 715 522.5 746 c 128,-1,51
 537 777 537 777 537 820 c 0,52,53
 537 855 537 855 521 878 c 128,-1,54
 505 901 505 901 481 915 c 128,-1,55
 457 929 457 929 428 934.5 c 128,-1,56
 399 940 399 940 372 940 c 2,57,-1
 311 940 l 1,58,-1
 332 1049 l 1,0,-1
EndSplineSet
EndChar

StartChar: acute
Encoding: 180 180 116
Width: 682
Flags: W
LayerCount: 2
Fore
SplineSet
175 1201 m 1,0,-1
 178 1221 l 1,1,-1
 431 1508 l 1,2,-1
 648 1508 l 1,3,-1
 643 1479 l 1,4,-1
 269 1201 l 1,5,-1
 175 1201 l 1,0,-1
EndSplineSet
EndChar

StartChar: uni00B5
Encoding: 181 181 117
Width: 1180
Flags: W
LayerCount: 2
Fore
SplineSet
-1 -425 m 1,0,-1
 292 1082 l 1,1,-1
 473 1082 l 1,2,-1
 339 396 l 2,3,4
 334 367 334 367 331 342 c 128,-1,5
 328 317 328 317 328 295 c 0,6,7
 328 247 328 247 339 213.5 c 128,-1,8
 350 180 350 180 371 159 c 128,-1,9
 392 138 392 138 422 128.5 c 128,-1,10
 452 119 452 119 490 119 c 0,11,12
 547 119 547 119 596.5 144 c 128,-1,13
 646 169 646 169 685.5 215 c 128,-1,14
 725 261 725 261 753 326 c 128,-1,15
 781 391 781 391 795 472 c 1,16,-1
 913 1082 l 1,17,-1
 1093 1082 l 1,18,-1
 936 275 l 2,19,20
 931 252 931 252 929 229.5 c 128,-1,21
 927 207 927 207 927 193 c 0,22,23
 927 156 927 156 942 138.5 c 128,-1,24
 957 121 957 121 984 121 c 0,25,26
 995 121 995 121 1012 124 c 128,-1,27
 1029 127 1029 127 1040 129 c 1,28,-1
 1018 0 l 1,29,30
 989 -8 989 -8 961 -14 c 128,-1,31
 933 -20 933 -20 895 -20 c 0,32,33
 821 -20 821 -20 790 28.5 c 128,-1,34
 759 77 759 77 759 169 c 1,35,-1
 757 169 l 1,36,37
 692 74 692 74 616 27 c 128,-1,38
 540 -20 540 -20 448 -20 c 0,39,40
 386 -20 386 -20 341 1 c 128,-1,41
 296 22 296 22 273 59 c 1,42,-1
 179 -425 l 1,43,-1
 -1 -425 l 1,0,-1
EndSplineSet
EndChar

StartChar: paragraph
Encoding: 182 182 118
Width: 1100
Flags: W
LayerCount: 2
Fore
SplineSet
948 1307 m 1,0,-1
 948 -264 l 1,1,-1
 836 -264 l 1,2,-1
 836 1307 l 1,3,-1
 619 1307 l 1,4,-1
 619 -264 l 1,5,-1
 506 -264 l 1,6,-1
 506 694 l 1,7,8
 426 694 426 694 359.5 716.5 c 128,-1,9
 293 739 293 739 245 783 c 128,-1,10
 197 827 197 827 170.5 894 c 128,-1,11
 144 961 144 961 144 1049 c 0,12,13
 144 1133 144 1133 169 1199.5 c 128,-1,14
 194 1266 194 1266 241.5 1312.5 c 128,-1,15
 289 1359 289 1359 358 1384 c 128,-1,16
 427 1409 427 1409 514 1409 c 2,17,-1
 1077 1409 l 1,18,-1
 1077 1307 l 1,19,-1
 948 1307 l 1,0,-1
EndSplineSet
EndChar

StartChar: uni2219
Encoding: 8729 8729 119
AltUni2: 0000b7.ffffffff.0 0000b7.ffffffff.0 0000b7.ffffffff.0 0000b7.ffffffff.0
Width: 569
Flags: W
LayerCount: 2
Fore
SplineSet
165 446 m 1,0,-1
 208 666 l 1,1,-1
 403 666 l 1,2,-1
 360 446 l 1,3,-1
 165 446 l 1,0,-1
EndSplineSet
EndChar

StartChar: cedilla
Encoding: 184 184 120
Width: 682
Flags: W
LayerCount: 2
Fore
SplineSet
318 -96 m 1,0,1
 399 -101 399 -101 439.5 -137 c 128,-1,2
 480 -173 480 -173 480 -232 c 0,3,4
 480 -277 480 -277 463 -313 c 128,-1,5
 446 -349 446 -349 409.5 -373.5 c 128,-1,6
 373 -398 373 -398 315.5 -411.5 c 128,-1,7
 258 -425 258 -425 177 -425 c 0,8,9
 149 -425 149 -425 122 -423 c 128,-1,10
 95 -421 95 -421 71 -418 c 1,11,-1
 92 -327 l 1,12,13
 140 -333 140 -333 180 -333 c 0,14,15
 271 -333 271 -333 308.5 -311 c 128,-1,16
 346 -289 346 -289 346 -244 c 0,17,18
 346 -213 346 -213 318.5 -192.5 c 128,-1,19
 291 -172 291 -172 227 -172 c 0,20,21
 213 -172 213 -172 198 -172 c 128,-1,22
 183 -172 183 -172 169 -174 c 1,23,-1
 270 0 l 1,24,-1
 377 0 l 1,25,-1
 318 -96 l 1,0,1
EndSplineSet
EndChar

StartChar: uni00B9
Encoding: 185 185 121
Width: 682
Flags: W
LayerCount: 2
Fore
SplineSet
61 563 m 1,0,-1
 81 670 l 1,1,-1
 292 670 l 1,2,-1
 410 1279 l 1,3,-1
 181 1141 l 1,4,-1
 207 1272 l 1,5,-1
 444 1409 l 1,6,-1
 567 1409 l 1,7,-1
 423 670 l 1,8,-1
 638 670 l 1,9,-1
 617 563 l 1,10,-1
 61 563 l 1,0,-1
EndSplineSet
EndChar

StartChar: ordmasculine
Encoding: 186 186 122
Width: 748
Flags: W
LayerCount: 2
Fore
SplineSet
403 651 m 0,0,1
 327 651 327 651 270 672.5 c 128,-1,2
 213 694 213 694 175.5 733.5 c 128,-1,3
 138 773 138 773 119.5 828 c 128,-1,4
 101 883 101 883 101 950 c 0,5,6
 101 979 101 979 104.5 1012.5 c 128,-1,7
 108 1046 108 1046 114 1078 c 0,8,9
 132 1172 132 1172 168 1239 c 128,-1,10
 204 1306 204 1306 256 1349 c 128,-1,11
 308 1392 308 1392 374.5 1412 c 128,-1,12
 441 1432 441 1432 520 1432 c 0,13,14
 597 1432 597 1432 653.5 1410.5 c 128,-1,15
 710 1389 710 1389 747.5 1349.5 c 128,-1,16
 785 1310 785 1310 803.5 1255 c 128,-1,17
 822 1200 822 1200 822 1133 c 0,18,19
 822 1104 822 1104 818.5 1070.5 c 128,-1,20
 815 1037 815 1037 809 1005 c 0,21,22
 791 911 791 911 755 844 c 128,-1,23
 719 777 719 777 667 734 c 128,-1,24
 615 691 615 691 549 671 c 128,-1,25
 483 651 483 651 403 651 c 0,0,1
513 1325 m 0,26,27
 471 1325 471 1325 434 1315.5 c 128,-1,28
 397 1306 397 1306 365.5 1279 c 128,-1,29
 334 1252 334 1252 309 1204 c 128,-1,30
 284 1156 284 1156 266 1079 c 0,31,32
 256 1037 256 1037 252 1003 c 128,-1,33
 248 969 248 969 248 938 c 0,34,35
 248 889 248 889 259.5 854.5 c 128,-1,36
 271 820 271 820 292 798.5 c 128,-1,37
 313 777 313 777 342.5 767.5 c 128,-1,38
 372 758 372 758 408 758 c 0,39,40
 451 758 451 758 488.5 768 c 128,-1,41
 526 778 526 778 558 806 c 128,-1,42
 590 834 590 834 615.5 884 c 128,-1,43
 641 934 641 934 659 1013 c 0,44,45
 668 1055 668 1055 673 1090 c 128,-1,46
 678 1125 678 1125 678 1154 c 0,47,48
 678 1248 678 1248 634.5 1286.5 c 128,-1,49
 591 1325 591 1325 513 1325 c 0,26,27
EndSplineSet
EndChar

StartChar: guillemotright
Encoding: 187 187 123
Width: 1139
Flags: W
LayerCount: 2
Fore
SplineSet
640 141 m 1,0,-1
 482 141 l 1,1,-1
 489 180 l 1,2,-1
 899 547 l 1,3,-1
 635 919 l 1,4,-1
 639 940 l 1,5,-1
 795 940 l 1,6,-1
 1061 569 l 1,7,-1
 1049 506 l 1,8,-1
 640 141 l 1,0,-1
165 141 m 1,9,-1
 5 141 l 1,10,-1
 12 180 l 1,11,-1
 422 547 l 1,12,-1
 158 919 l 1,13,-1
 162 940 l 1,14,-1
 320 940 l 1,15,-1
 583 569 l 1,16,-1
 571 506 l 1,17,-1
 165 141 l 1,9,-1
EndSplineSet
EndChar

StartChar: questiondown
Encoding: 191 191 127
Width: 1251
Flags: W
LayerCount: 2
Fore
SplineSet
497 -347 m 0,0,1
 397 -347 397 -347 316.5 -320 c 128,-1,2
 236 -293 236 -293 180.5 -245 c 128,-1,3
 125 -197 125 -197 95 -132 c 128,-1,4
 65 -67 65 -67 65 10 c 0,5,6
 65 107 65 107 95.5 175.5 c 128,-1,7
 126 244 126 244 174.5 294.5 c 128,-1,8
 223 345 223 345 283.5 382.5 c 128,-1,9
 344 420 344 420 404 454 c 0,10,11
 446 478 446 478 485.5 503.5 c 128,-1,12
 525 529 525 529 557 558.5 c 128,-1,13
 589 588 589 588 611.5 624 c 128,-1,14
 634 660 634 660 643 706 c 1,15,-1
 818 706 l 1,16,17
 805 628 805 628 772.5 571.5 c 128,-1,18
 740 515 740 515 695.5 472.5 c 128,-1,19
 651 430 651 430 599 398 c 128,-1,20
 547 366 547 366 496 337 c 0,21,22
 448 310 448 310 404 281.5 c 128,-1,23
 360 253 360 253 326 218 c 128,-1,24
 292 183 292 183 272 138 c 128,-1,25
 252 93 252 93 252 31 c 0,26,27
 252 -17 252 -17 271 -57.5 c 128,-1,28
 290 -98 290 -98 324.5 -126.5 c 128,-1,29
 359 -155 359 -155 407 -171 c 128,-1,30
 455 -187 455 -187 514 -187 c 0,31,32
 654 -187 654 -187 745 -117 c 128,-1,33
 836 -47 836 -47 874 75 c 1,34,-1
 1039 35 l 1,35,36
 1012 -49 1012 -49 968.5 -119 c 128,-1,37
 925 -189 925 -189 859.5 -239.5 c 128,-1,38
 794 -290 794 -290 705 -318.5 c 128,-1,39
 616 -347 616 -347 497 -347 c 0,0,1
899 1083 m 1,40,-1
 860 882 l 1,41,-1
 665 882 l 1,42,-1
 704 1083 l 1,43,-1
 899 1083 l 1,40,-1
EndSplineSet
EndChar

StartChar: AE
Encoding: 198 198 134
Width: 2048
Flags: W
LayerCount: 2
Fore
SplineSet
863 0 m 1,0,-1
 944 412 l 1,1,-1
 401 412 l 1,2,-1
 122 0 l 1,3,-1
 -81 0 l 1,4,-1
 878 1409 l 1,5,-1
 2067 1409 l 1,6,-1
 2037 1253 l 1,7,-1
 1298 1253 l 1,8,-1
 1210 801 l 1,9,-1
 1889 801 l 1,10,-1
 1859 647 l 1,11,-1
 1180 647 l 1,12,-1
 1085 156 l 1,13,-1
 1865 156 l 1,14,-1
 1834 0 l 1,15,-1
 863 0 l 1,0,-1
1109 1262 m 1,16,-1
 958 1262 l 1,17,18
 957 1259 957 1259 946 1241.5 c 128,-1,19
 935 1224 935 1224 919 1199 c 128,-1,20
 903 1174 903 1174 885 1145 c 128,-1,21
 867 1116 867 1116 850.5 1090.5 c 128,-1,22
 834 1065 834 1065 822 1046 c 128,-1,23
 810 1027 810 1027 806 1022 c 2,24,-1
 500 561 l 1,25,-1
 973 561 l 1,26,-1
 1109 1262 l 1,16,-1
EndSplineSet
EndChar

StartChar: Eth
Encoding: 208 208 144
Width: 1479
Flags: W
LayerCount: 2
Fore
SplineSet
764 1409 m 2,0,1
 912 1409 912 1409 1035 1369.5 c 128,-1,2
 1158 1330 1158 1330 1246.5 1252 c 128,-1,3
 1335 1174 1335 1174 1384 1058.5 c 128,-1,4
 1433 943 1433 943 1433 791 c 0,5,6
 1433 658 1433 658 1402.5 548 c 128,-1,7
 1372 438 1372 438 1317.5 350 c 128,-1,8
 1263 262 1263 262 1187 196.5 c 128,-1,9
 1111 131 1111 131 1019.5 87 c 128,-1,10
 928 43 928 43 825 21.5 c 128,-1,11
 722 0 722 0 612 0 c 2,12,-1
 63 0 l 1,13,-1
 188 647 l 1,14,-1
 34 647 l 1,15,-1
 64 801 l 1,16,-1
 218 801 l 1,17,-1
 336 1409 l 1,18,-1
 764 1409 l 2,0,1
409 801 m 1,19,-1
 815 801 l 1,20,-1
 785 647 l 1,21,-1
 379 647 l 1,22,-1
 283 153 l 1,23,-1
 587 153 l 2,24,25
 734 153 734 153 854.5 197 c 128,-1,26
 975 241 975 241 1060.5 323.5 c 128,-1,27
 1146 406 1146 406 1192.5 524.5 c 128,-1,28
 1239 643 1239 643 1239 793 c 0,29,30
 1239 913 1239 913 1202.5 1000 c 128,-1,31
 1166 1087 1166 1087 1102 1144 c 128,-1,32
 1038 1201 1038 1201 950 1228.5 c 128,-1,33
 862 1256 862 1256 760 1256 c 2,34,-1
 498 1256 l 1,35,-1
 409 801 l 1,19,-1
EndSplineSet
EndChar

StartChar: multiply
Encoding: 215 215 151
Width: 1196
Flags: W
LayerCount: 2
Fore
SplineSet
172 330 m 1,0,-1
 526 684 l 1,1,-1
 174 1036 l 1,2,-1
 278 1139 l 1,3,-1
 628 786 l 1,4,-1
 978 1137 l 1,5,-1
 1083 1032 l 1,6,-1
 733 684 l 1,7,-1
 1085 332 l 1,8,-1
 983 227 l 1,9,-1
 630 580 l 1,10,-1
 274 225 l 1,11,-1
 172 330 l 1,0,-1
EndSplineSet
EndChar

StartChar: Oslash
Encoding: 216 216 152
Width: 1593
Flags: W
LayerCount: 2
Fore
SplineSet
1423 1205 m 1,0,1
 1474 1133 1474 1133 1500 1043.5 c 128,-1,2
 1526 954 1526 954 1526 851 c 1,3,4
 1525 802 1525 802 1520.5 749.5 c 128,-1,5
 1516 697 1516 697 1506 649 c 0,6,7
 1476 495 1476 495 1405 371.5 c 128,-1,8
 1334 248 1334 248 1229.5 161 c 128,-1,9
 1125 74 1125 74 990.5 27 c 128,-1,10
 856 -20 856 -20 699 -20 c 0,11,12
 569 -20 569 -20 468.5 12 c 128,-1,13
 368 44 368 44 294 104 c 1,14,-1
 133 -53 l 1,15,-1
 -56 -53 l 1,16,-1
 204 201 l 1,17,18
 152 276 152 276 126.5 369.5 c 128,-1,19
 101 463 101 463 101 573 c 0,20,21
 101 619 101 619 105.5 667 c 128,-1,22
 110 715 110 715 120 764 c 0,23,24
 150 914 150 914 220 1037 c 128,-1,25
 290 1160 290 1160 394.5 1247.5 c 128,-1,26
 499 1335 499 1335 634 1382.5 c 128,-1,27
 769 1430 769 1430 928 1430 c 0,28,29
 1055 1430 1055 1430 1156 1397 c 128,-1,30
 1257 1364 1257 1364 1332 1303 c 1,31,-1
 1499 1466 l 1,32,-1
 1691 1466 l 1,33,-1
 1423 1205 l 1,0,1
919 1276 m 0,34,35
 788 1276 788 1276 686 1239 c 128,-1,36
 584 1202 584 1202 508.5 1132 c 128,-1,37
 433 1062 433 1062 384 961 c 128,-1,38
 335 860 335 860 309 732 c 0,39,40
 300 689 300 689 296 645.5 c 128,-1,41
 292 602 292 602 292 563 c 0,42,43
 292 427 292 427 338 332 c 1,44,-1
 1208 1182 l 1,45,46
 1099 1276 1099 1276 919 1276 c 0,34,35
1335 847 m 0,47,48
 1335 980 1335 980 1289 1074 c 1,49,-1
 419 226 l 1,50,51
 472 180 472 180 544.5 157.5 c 128,-1,52
 617 135 617 135 708 135 c 0,53,54
 840 135 840 135 942.5 172.5 c 128,-1,55
 1045 210 1045 210 1120 280.5 c 128,-1,56
 1195 351 1195 351 1244.5 451.5 c 128,-1,57
 1294 552 1294 552 1319 677 c 0,58,59
 1328 719 1328 719 1331.5 764 c 128,-1,60
 1335 809 1335 809 1335 847 c 0,47,48
EndSplineSet
EndChar

StartChar: Thorn
Encoding: 222 222 158
Width: 1366
Flags: W
LayerCount: 2
Fore
SplineSet
221 0 m 1,0,-1
 30 0 l 1,1,-1
 304 1409 l 1,2,-1
 495 1409 l 1,3,-1
 446 1157 l 1,4,-1
 773 1157 l 2,5,6
 894 1157 894 1157 987.5 1130 c 128,-1,7
 1081 1103 1081 1103 1144.5 1053 c 128,-1,8
 1208 1003 1208 1003 1241 930.5 c 128,-1,9
 1274 858 1274 858 1274 768 c 0,10,11
 1274 658 1274 658 1234.5 570.5 c 128,-1,12
 1195 483 1195 483 1121.5 422.5 c 128,-1,13
 1048 362 1048 362 942.5 329.5 c 128,-1,14
 837 297 837 297 705 297 c 2,15,-1
 281 297 l 1,16,-1
 221 0 l 1,0,-1
311 448 m 1,17,-1
 698 448 l 2,18,19
 890 448 890 448 985 526 c 128,-1,20
 1080 604 1080 604 1080 759 c 0,21,22
 1080 824 1080 824 1057.5 870 c 128,-1,23
 1035 916 1035 916 994 946 c 128,-1,24
 953 976 953 976 895.5 990 c 128,-1,25
 838 1004 838 1004 768 1004 c 2,26,-1
 419 1004 l 1,27,-1
 311 448 l 1,17,-1
EndSplineSet
EndChar

StartChar: germandbls
Encoding: 223 223 159
Width: 1251
Flags: W
LayerCount: 2
Fore
SplineSet
34 0 m 1,0,-1
 234 1027 l 2,1,2
 281 1264 281 1264 411.5 1374 c 128,-1,3
 542 1484 542 1484 762 1484 c 0,4,5
 857 1484 857 1484 929.5 1461 c 128,-1,6
 1002 1438 1002 1438 1051.5 1398.5 c 128,-1,7
 1101 1359 1101 1359 1126.5 1307 c 128,-1,8
 1152 1255 1152 1255 1152 1196 c 0,9,10
 1152 1131 1152 1131 1129 1084.5 c 128,-1,11
 1106 1038 1106 1038 1071.5 1002.5 c 128,-1,12
 1037 967 1037 967 997 940 c 128,-1,13
 957 913 957 913 922.5 888 c 128,-1,14
 888 863 888 863 865 837 c 128,-1,15
 842 811 842 811 842 777 c 0,16,17
 842 741 842 741 863 709 c 128,-1,18
 884 677 884 677 915 645 c 128,-1,19
 946 613 946 613 982.5 579 c 128,-1,20
 1019 545 1019 545 1050 505 c 128,-1,21
 1081 465 1081 465 1102 416.5 c 128,-1,22
 1123 368 1123 368 1123 308 c 0,23,24
 1123 232 1123 232 1097 170 c 128,-1,25
 1071 108 1071 108 1019 63.5 c 128,-1,26
 967 19 967 19 891 -5 c 128,-1,27
 815 -29 815 -29 714 -29 c 0,28,29
 672 -29 672 -29 630 -25 c 128,-1,30
 588 -21 588 -21 549 -13.5 c 128,-1,31
 510 -6 510 -6 476 4 c 128,-1,32
 442 14 442 14 417 26 c 1,33,-1
 473 169 l 1,34,35
 518 148 518 148 581.5 131.5 c 128,-1,36
 645 115 645 115 719 115 c 0,37,38
 778 115 778 115 821 129 c 128,-1,39
 864 143 864 143 892 168 c 128,-1,40
 920 193 920 193 933.5 228 c 128,-1,41
 947 263 947 263 947 305 c 0,42,43
 947 354 947 354 926.5 392.5 c 128,-1,44
 906 431 906 431 875 464.5 c 128,-1,45
 844 498 844 498 808.5 529 c 128,-1,46
 773 560 773 560 742 594 c 128,-1,47
 711 628 711 628 690.5 667 c 128,-1,48
 670 706 670 706 670 756 c 0,49,50
 670 820 670 820 692.5 862.5 c 128,-1,51
 715 905 715 905 749 936 c 128,-1,52
 783 967 783 967 822.5 990.5 c 128,-1,53
 862 1014 862 1014 896 1040.5 c 128,-1,54
 930 1067 930 1067 952.5 1101 c 128,-1,55
 975 1135 975 1135 975 1186 c 0,56,57
 975 1218 975 1218 960.5 1246.5 c 128,-1,58
 946 1275 946 1275 918 1296.5 c 128,-1,59
 890 1318 890 1318 848.5 1330.5 c 128,-1,60
 807 1343 807 1343 753 1343 c 0,61,62
 686 1343 686 1343 630.5 1325.5 c 128,-1,63
 575 1308 575 1308 532.5 1269.5 c 128,-1,64
 490 1231 490 1231 459.5 1170 c 128,-1,65
 429 1109 429 1109 412 1021 c 2,66,-1
 214 0 l 1,67,-1
 34 0 l 1,0,-1
EndSplineSet
EndChar

StartChar: ae
Encoding: 230 230 166
Width: 1821
Flags: W
LayerCount: 2
Fore
SplineSet
989 503 m 1,0,1
 984 475 984 475 982.5 446.5 c 128,-1,2
 981 418 981 418 980 390 c 1,3,4
 980 257 980 257 1041.5 186 c 128,-1,5
 1103 115 1103 115 1224 115 c 0,6,7
 1275 115 1275 115 1317 129.5 c 128,-1,8
 1359 144 1359 144 1393 168.5 c 128,-1,9
 1427 193 1427 193 1452.5 225.5 c 128,-1,10
 1478 258 1478 258 1496 294 c 1,11,-1
 1634 231 l 1,12,13
 1610 186 1610 186 1576 141.5 c 128,-1,14
 1542 97 1542 97 1491.5 61 c 128,-1,15
 1441 25 1441 25 1370.5 2.5 c 128,-1,16
 1300 -20 1300 -20 1202 -20 c 0,17,18
 1051 -20 1051 -20 956 50 c 128,-1,19
 861 120 861 120 826 248 c 1,20,21
 787 192 787 192 739.5 143 c 128,-1,22
 692 94 692 94 633 58 c 128,-1,23
 574 22 574 22 503 1 c 128,-1,24
 432 -20 432 -20 347 -20 c 0,25,26
 267 -20 267 -20 208 5 c 128,-1,27
 149 30 149 30 110 71.5 c 128,-1,28
 71 113 71 113 51.5 167 c 128,-1,29
 32 221 32 221 32 278 c 0,30,31
 32 359 32 359 56 418 c 128,-1,32
 80 477 80 477 121.5 519 c 128,-1,33
 163 561 163 561 219 587.5 c 128,-1,34
 275 614 275 614 338 629 c 128,-1,35
 401 644 401 644 468.5 650 c 128,-1,36
 536 656 536 656 601 657 c 2,37,-1
 839 660 l 1,38,-1
 846 696 l 2,39,40
 851 721 851 721 854.5 744 c 128,-1,41
 858 767 858 767 858 787 c 0,42,43
 858 878 858 878 803.5 921.5 c 128,-1,44
 749 965 749 965 650 965 c 0,45,46
 598 965 598 965 554 957.5 c 128,-1,47
 510 950 510 950 475 930.5 c 128,-1,48
 440 911 440 911 413.5 877.5 c 128,-1,49
 387 844 387 844 370 793 c 1,50,-1
 192 822 l 1,51,52
 212 884 212 884 246.5 935.5 c 128,-1,53
 281 987 281 987 336.5 1024 c 128,-1,54
 392 1061 392 1061 472.5 1081.5 c 128,-1,55
 553 1102 553 1102 665 1102 c 0,56,57
 787 1102 787 1102 865 1059 c 128,-1,58
 943 1016 943 1016 990 944 c 1,59,60
 1049 1019 1049 1019 1136 1060.5 c 128,-1,61
 1223 1102 1223 1102 1335 1102 c 0,62,63
 1439 1102 1439 1102 1516 1073 c 128,-1,64
 1593 1044 1593 1044 1644 992 c 128,-1,65
 1695 940 1695 940 1720.5 867.5 c 128,-1,66
 1746 795 1746 795 1746 708 c 0,67,68
 1746 687 1746 687 1744.5 662 c 128,-1,69
 1743 637 1743 637 1740 610 c 128,-1,70
 1737 583 1737 583 1733 555.5 c 128,-1,71
 1729 528 1729 528 1723 503 c 1,72,-1
 989 503 l 1,0,1
814 534 m 1,73,-1
 608 530 l 2,74,75
 567 529 567 529 522.5 526 c 128,-1,76
 478 523 478 523 435 514 c 128,-1,77
 392 505 392 505 353.5 489 c 128,-1,78
 315 473 315 473 286 446 c 128,-1,79
 257 419 257 419 240 380 c 128,-1,80
 223 341 223 341 223 286 c 0,81,82
 223 249 223 249 235 217.5 c 128,-1,83
 247 186 247 186 269 164 c 128,-1,84
 291 142 291 142 322.5 129.5 c 128,-1,85
 354 117 354 117 394 117 c 0,86,87
 483 117 483 117 553.5 148.5 c 128,-1,88
 624 180 624 180 674.5 228 c 128,-1,89
 725 276 725 276 756 334 c 128,-1,90
 787 392 787 392 797 445 c 2,91,-1
 814 534 l 1,73,-1
1563 641 m 1,92,93
 1565 661 1565 661 1566 678.5 c 128,-1,94
 1567 696 1567 696 1567 713 c 0,95,96
 1567 779 1567 779 1550.5 827.5 c 128,-1,97
 1534 876 1534 876 1504 907.5 c 128,-1,98
 1474 939 1474 939 1431.5 954 c 128,-1,99
 1389 969 1389 969 1338 969 c 0,100,101
 1293 969 1293 969 1244.5 954.5 c 128,-1,102
 1196 940 1196 940 1151.5 903 c 128,-1,103
 1107 866 1107 866 1070.5 802.5 c 128,-1,104
 1034 739 1034 739 1013 641 c 1,105,-1
 1563 641 l 1,92,93
EndSplineSet
EndChar

StartChar: eth
Encoding: 240 240 176
Width: 1139
Flags: W
LayerCount: 2
Fore
SplineSet
625 1328 m 1,0,1
 577 1373 577 1373 530.5 1410.5 c 128,-1,2
 484 1448 484 1448 430 1484 c 1,3,-1
 606 1484 l 1,4,5
 646 1464 646 1464 686 1437.5 c 128,-1,6
 726 1411 726 1411 762 1382 c 1,7,-1
 1025 1484 l 1,8,-1
 1006 1376 l 1,9,-1
 837 1309 l 1,10,11
 885 1252 885 1252 925 1190.5 c 128,-1,12
 965 1129 965 1129 993.5 1058.5 c 128,-1,13
 1022 988 1022 988 1038 906.5 c 128,-1,14
 1054 825 1054 825 1054 728 c 0,15,16
 1054 701 1054 701 1052.5 669 c 128,-1,17
 1051 637 1051 637 1047.5 603.5 c 128,-1,18
 1044 570 1044 570 1039.5 537.5 c 128,-1,19
 1035 505 1035 505 1029 478 c 0,20,21
 1000 346 1000 346 953.5 252.5 c 128,-1,22
 907 159 907 159 840.5 99.5 c 128,-1,23
 774 40 774 40 687.5 12.5 c 128,-1,24
 601 -15 601 -15 491 -15 c 0,25,26
 386 -15 386 -15 306.5 16.5 c 128,-1,27
 227 48 227 48 174 104 c 128,-1,28
 121 160 121 160 94 236.5 c 128,-1,29
 67 313 67 313 67 403 c 0,30,31
 67 433 67 433 70 467 c 128,-1,32
 73 501 73 501 79 533 c 0,33,34
 119 747 119 747 251 863 c 128,-1,35
 383 979 383 979 605 979 c 0,36,37
 639 979 639 979 676 972.5 c 128,-1,38
 713 966 713 966 747.5 953 c 128,-1,39
 782 940 782 940 812.5 920.5 c 128,-1,40
 843 901 843 901 864 874 c 1,41,42
 855 928 855 928 839.5 980.5 c 128,-1,43
 824 1033 824 1033 802.5 1081 c 128,-1,44
 781 1129 781 1129 754.5 1172 c 128,-1,45
 728 1215 728 1215 698 1249 c 1,46,-1
 425 1136 l 1,47,-1
 446 1256 l 1,48,-1
 625 1328 l 1,0,1
603 846 m 0,49,50
 533 846 533 846 477.5 827 c 128,-1,51
 422 808 422 808 380 767.5 c 128,-1,52
 338 727 338 727 309 662.5 c 128,-1,53
 280 598 280 598 263 506 c 0,54,55
 257 474 257 474 254 443 c 128,-1,56
 251 412 251 412 251 388 c 0,57,58
 251 258 251 258 314 188 c 128,-1,59
 377 118 377 118 494 118 c 0,60,61
 553 118 553 118 604 132.5 c 128,-1,62
 655 147 655 147 697.5 181.5 c 128,-1,63
 740 216 740 216 773 274.5 c 128,-1,64
 806 333 806 333 828 420 c 0,65,66
 833 437 833 437 838 462.5 c 128,-1,67
 843 488 843 488 848 517.5 c 128,-1,68
 853 547 853 547 856 577.5 c 128,-1,69
 859 608 859 608 859 635 c 0,70,71
 859 671 859 671 843 708.5 c 128,-1,72
 827 746 827 746 794.5 776.5 c 128,-1,73
 762 807 762 807 714 826.5 c 128,-1,74
 666 846 666 846 603 846 c 0,49,50
EndSplineSet
EndChar

StartChar: divide
Encoding: 247 247 183
Width: 1124
Flags: W
LayerCount: 2
Fore
SplineSet
495 958 m 1,0,-1
 495 1141 l 1,1,-1
 663 1141 l 1,2,-1
 663 958 l 1,3,-1
 495 958 l 1,0,-1
82 608 m 1,4,-1
 82 754 l 1,5,-1
 1077 754 l 1,6,-1
 1077 608 l 1,7,-1
 82 608 l 1,4,-1
495 223 m 1,8,-1
 495 406 l 1,9,-1
 663 406 l 1,10,-1
 663 223 l 1,11,-1
 495 223 l 1,8,-1
EndSplineSet
EndChar

StartChar: oslash
Encoding: 248 248 184
Width: 1251
Flags: W
LayerCount: 2
Fore
SplineSet
201 145 m 1,0,1
 164 198 164 198 144.5 266 c 128,-1,2
 125 334 125 334 125 419 c 1,3,4
 126 466 126 466 130.5 516 c 128,-1,5
 135 566 135 566 147 620 c 0,6,7
 176 746 176 746 227 836.5 c 128,-1,8
 278 927 278 927 348 986 c 128,-1,9
 418 1045 418 1045 506.5 1073 c 128,-1,10
 595 1101 595 1101 700 1101 c 0,11,12
 862 1101 862 1101 967 1034 c 1,13,-1
 1037 1116 l 1,14,-1
 1204 1116 l 1,15,-1
 1058 947 l 1,16,17
 1132 844 1132 844 1132 683 c 0,18,19
 1132 631 1132 631 1126 578.5 c 128,-1,20
 1120 526 1120 526 1106 467 c 0,21,22
 1076 335 1076 335 1022.5 243 c 128,-1,23
 969 151 969 151 897 93.5 c 128,-1,24
 825 36 825 36 737 10.5 c 128,-1,25
 649 -15 649 -15 549 -15 c 0,26,27
 395 -15 395 -15 291 56 c 1,28,-1
 211 -38 l 1,29,-1
 44 -38 l 1,30,-1
 201 145 l 1,0,1
310 416 m 0,31,32
 310 343 310 343 325 289 c 1,33,-1
 865 916 l 1,34,35
 833 943 833 943 791 956 c 128,-1,36
 749 969 749 969 698 969 c 0,37,38
 645 969 645 969 591.5 956.5 c 128,-1,39
 538 944 538 944 489.5 906 c 128,-1,40
 441 868 441 868 401 798 c 128,-1,41
 361 728 361 728 334 612 c 0,42,43
 321 557 321 557 315.5 507.5 c 128,-1,44
 310 458 310 458 310 416 c 0,31,32
946 683 m 1,45,46
 946 749 946 749 932 800 c 1,47,-1
 392 173 l 1,48,49
 425 144 425 144 467.5 131 c 128,-1,50
 510 118 510 118 560 118 c 0,51,52
 614 118 614 118 666.5 129.5 c 128,-1,53
 719 141 719 141 766 178 c 128,-1,54
 813 215 813 215 852.5 285.5 c 128,-1,55
 892 356 892 356 919 473 c 0,56,57
 933 533 933 533 938.5 583 c 128,-1,58
 944 633 944 633 946 683 c 1,45,46
EndSplineSet
EndChar

StartChar: thorn
Encoding: 254 254 190
Width: 1139
Flags: W
LayerCount: 2
Fore
SplineSet
554 -20 m 0,0,1
 431 -20 431 -20 353.5 32 c 128,-1,2
 276 84 276 84 244 178 c 1,3,-1
 239 178 l 1,4,5
 238 169 238 169 235.5 150.5 c 128,-1,6
 233 132 233 132 229.5 108 c 128,-1,7
 226 84 226 84 221 55.5 c 128,-1,8
 216 27 216 27 210 -2 c 2,9,-1
 128 -425 l 1,10,-1
 -51 -425 l 1,11,-1
 320 1484 l 1,12,-1
 500 1484 l 1,13,-1
 417 1061 l 2,14,15
 412 1032 412 1032 405.5 1006 c 128,-1,16
 399 980 399 980 394 961 c 0,17,18
 388 939 388 939 383 921 c 1,19,-1
 387 921 l 1,20,21
 423 968 423 968 460.5 1002 c 128,-1,22
 498 1036 498 1036 540.5 1058.5 c 128,-1,23
 583 1081 583 1081 632 1091.5 c 128,-1,24
 681 1102 681 1102 741 1102 c 0,25,26
 821 1102 821 1102 883 1077 c 128,-1,27
 945 1052 945 1052 987 1006 c 128,-1,28
 1029 960 1029 960 1051 894.5 c 128,-1,29
 1073 829 1073 829 1073 748 c 0,30,31
 1073 698 1073 698 1068.5 638.5 c 128,-1,32
 1064 579 1064 579 1052 516 c 0,33,34
 1025 374 1025 374 981 272.5 c 128,-1,35
 937 171 937 171 875 106 c 128,-1,36
 813 41 813 41 733 10.5 c 128,-1,37
 653 -20 653 -20 554 -20 c 0,0,1
689 963 m 0,38,39
 625 963 625 963 567.5 944 c 128,-1,40
 510 925 510 925 461 878.5 c 128,-1,41
 412 832 412 832 374.5 753 c 128,-1,42
 337 674 337 674 314 554 c 0,43,44
 295 456 295 456 295 377 c 0,45,46
 295 313 295 313 312 263.5 c 128,-1,47
 329 214 329 214 360.5 180.5 c 128,-1,48
 392 147 392 147 436.5 130 c 128,-1,49
 481 113 481 113 535 113 c 0,50,51
 597 113 597 113 647 131.5 c 128,-1,52
 697 150 697 150 737.5 195.5 c 128,-1,53
 778 241 778 241 809 317.5 c 128,-1,54
 840 394 840 394 862 510 c 0,55,56
 885 631 885 631 885 716 c 0,57,58
 885 839 885 839 838 901 c 128,-1,59
 791 963 791 963 689 963 c 0,38,39
EndSplineSet
EndChar

StartChar: dcroat
Encoding: 273 273 209
Width: 1139
Flags: W
LayerCount: 2
Fore
SplineSet
453 118 m 0,0,1
 517 118 517 118 574.5 137 c 128,-1,2
 632 156 632 156 681 202.5 c 128,-1,3
 730 249 730 249 767.5 328 c 128,-1,4
 805 407 805 407 828 527 c 0,5,6
 847 625 847 625 847 704 c 0,7,8
 847 769 847 769 830 818 c 128,-1,9
 813 867 813 867 781.5 900.5 c 128,-1,10
 750 934 750 934 705.5 951 c 128,-1,11
 661 968 661 968 607 968 c 0,12,13
 546 968 546 968 495.5 949.5 c 128,-1,14
 445 931 445 931 404.5 885.5 c 128,-1,15
 364 840 364 840 333.5 763.5 c 128,-1,16
 303 687 303 687 280 571 c 0,17,18
 257 450 257 450 257 365 c 0,19,20
 257 242 257 242 304 180 c 128,-1,21
 351 118 351 118 453 118 c 0,0,1
401 -21 m 0,22,23
 321 -21 321 -21 259 4 c 128,-1,24
 197 29 197 29 155 75 c 128,-1,25
 113 121 113 121 91 186.5 c 128,-1,26
 69 252 69 252 69 333 c 0,27,28
 69 378 69 378 73.5 440 c 128,-1,29
 78 502 78 502 90 565 c 0,30,31
 117 707 117 707 161 808.5 c 128,-1,32
 205 910 205 910 267 975 c 128,-1,33
 329 1040 329 1040 409 1070.5 c 128,-1,34
 489 1101 489 1101 588 1101 c 0,35,36
 711 1101 711 1101 788.5 1049 c 128,-1,37
 866 997 866 997 898 903 c 1,38,-1
 903 903 l 1,39,40
 905 913 905 913 909 936 c 128,-1,41
 913 959 913 959 917.5 984.5 c 128,-1,42
 922 1010 922 1010 926.5 1033 c 128,-1,43
 931 1056 931 1056 933 1065 c 2,44,-1
 960 1206 l 1,45,-1
 660 1206 l 1,46,-1
 685 1337 l 1,47,-1
 985 1337 l 1,48,-1
 1014 1484 l 1,49,-1
 1194 1484 l 1,50,-1
 1165 1337 l 1,51,-1
 1297 1337 l 1,52,-1
 1272 1206 l 1,53,-1
 1140 1206 l 1,54,-1
 948 223 l 2,55,56
 940 184 940 184 933.5 148 c 128,-1,57
 927 112 927 112 922 82 c 128,-1,58
 917 52 917 52 914 30.5 c 128,-1,59
 911 9 911 9 910 0 c 1,60,-1
 738 0 l 1,61,62
 738 20 738 20 743.5 64 c 128,-1,63
 749 108 749 108 759 160 c 1,64,-1
 755 160 l 1,65,66
 719 113 719 113 681.5 79 c 128,-1,67
 644 45 644 45 601.5 22.5 c 128,-1,68
 559 0 559 0 510 -10.5 c 128,-1,69
 461 -21 461 -21 401 -21 c 0,22,23
EndSplineSet
EndChar

StartChar: Hbar
Encoding: 294 294 230
Width: 1479
Flags: W
LayerCount: 2
Fore
SplineSet
1020 0 m 1,0,-1
 1146 653 l 1,1,-1
 379 653 l 1,2,-1
 253 0 l 1,3,-1
 62 0 l 1,4,-1
 261 1025 l 1,5,-1
 107 1025 l 1,6,-1
 137 1179 l 1,7,-1
 291 1179 l 1,8,-1
 335 1409 l 1,9,-1
 526 1409 l 1,10,-1
 482 1179 l 1,11,-1
 1249 1179 l 1,12,-1
 1293 1409 l 1,13,-1
 1479 1409 l 1,14,-1
 1435 1179 l 1,15,-1
 1588 1179 l 1,16,-1
 1558 1025 l 1,17,-1
 1405 1025 l 1,18,-1
 1206 0 l 1,19,-1
 1020 0 l 1,0,-1
1178 813 m 1,20,-1
 1219 1025 l 1,21,-1
 452 1025 l 1,22,-1
 411 813 l 1,23,-1
 1178 813 l 1,20,-1
EndSplineSet
EndChar

StartChar: hbar
Encoding: 295 295 231
Width: 1139
Flags: W
LayerCount: 2
Fore
SplineSet
375 857 m 1,0,1
 409 904 409 904 445 942 c 128,-1,2
 481 980 481 980 524.5 1006.5 c 128,-1,3
 568 1033 568 1033 620.5 1047 c 128,-1,4
 673 1061 673 1061 740 1061 c 0,5,6
 888 1061 888 1061 962.5 988 c 128,-1,7
 1037 915 1037 915 1037 777 c 0,8,9
 1037 741 1037 741 1030.5 696 c 128,-1,10
 1024 651 1024 651 1016 613 c 2,11,-1
 897 0 l 1,12,-1
 716 0 l 1,13,-1
 834 605 l 2,14,15
 842 644 842 644 847 684.5 c 128,-1,16
 852 725 852 725 852 755 c 0,17,18
 852 834 852 834 810 878 c 128,-1,19
 768 922 768 922 673 922 c 0,20,21
 609 922 609 922 552.5 896.5 c 128,-1,22
 496 871 496 871 450 824.5 c 128,-1,23
 404 778 404 778 371.5 712.5 c 128,-1,24
 339 647 339 647 323 566 c 2,25,-1
 213 0 l 1,26,-1
 34 0 l 1,27,-1
 268 1206 l 1,28,-1
 137 1206 l 1,29,-1
 162 1337 l 1,30,-1
 293 1337 l 1,31,-1
 322 1484 l 1,32,-1
 502 1484 l 1,33,-1
 473 1337 l 1,34,-1
 774 1337 l 1,35,-1
 749 1206 l 1,36,-1
 448 1206 l 1,37,-1
 419 1058 l 2,38,39
 413 1025 413 1025 405.5 992 c 128,-1,40
 398 959 398 959 391 931.5 c 128,-1,41
 384 904 384 904 379 884 c 128,-1,42
 374 864 374 864 372 857 c 1,43,-1
 375 857 l 1,0,1
EndSplineSet
EndChar

StartChar: dotlessi
Encoding: 305 305 241
Width: 569
Flags: W
LayerCount: 2
Fore
SplineSet
89 0 m 1,0,-1
 299 1082 l 1,1,-1
 479 1082 l 1,2,-1
 268 0 l 1,3,-1
 89 0 l 1,0,-1
EndSplineSet
EndChar

StartChar: jcircumflex
Encoding: 309 309 245
Width: 455
Flags: W
LayerCount: 2
Fore
SplineSet
669 1221 m 1,0,-1
 665 1201 l 1,1,-1
 573 1201 l 1,2,-1
 387 1370 l 1,3,-1
 385 1370 l 1,4,-1
 120 1201 l 1,5,-1
 4 1201 l 1,6,-1
 8 1221 l 1,7,-1
 294 1491 l 1,8,-1
 498 1491 l 1,9,-1
 669 1221 l 1,0,-1
-100 -425 m 0,10,11
 -134 -425 -134 -425 -168.5 -420.5 c 128,-1,12
 -203 -416 -203 -416 -229 -411 c 1,13,-1
 -206 -275 l 1,14,15
 -193 -277 -193 -277 -168 -280 c 128,-1,16
 -143 -283 -143 -283 -123 -283 c 0,17,18
 -64 -283 -64 -283 -34 -241 c 128,-1,19
 -4 -199 -4 -199 13 -107 c 2,20,-1
 244 1082 l 1,21,-1
 424 1082 l 1,22,-1
 187 -134 l 2,23,24
 175 -196 175 -196 155.5 -249 c 128,-1,25
 136 -302 136 -302 103 -341 c 128,-1,26
 70 -380 70 -380 20.5 -402.5 c 128,-1,27
 -29 -425 -29 -425 -100 -425 c 0,10,11
EndSplineSet
EndChar

StartChar: kgreenlandic
Encoding: 312 312 248
Width: 1024
Flags: W
LayerCount: 2
Fore
SplineSet
721 0 m 1,0,-1
 453 502 l 1,1,-1
 285 378 l 1,2,-1
 213 0 l 1,3,-1
 34 0 l 1,4,-1
 244 1082 l 1,5,-1
 424 1082 l 1,6,-1
 323 567 l 1,7,-1
 527 757 l 1,8,-1
 888 1082 l 1,9,-1
 1110 1082 l 1,10,-1
 580 617 l 1,11,-1
 916 0 l 1,12,-1
 721 0 l 1,0,-1
EndSplineSet
EndChar

StartChar: Lslash
Encoding: 321 321 257
Width: 1139
Flags: W
LayerCount: 2
Fore
SplineSet
683 797 m 1,0,-1
 377 648 l 1,1,-1
 282 156 l 1,2,-1
 994 156 l 1,3,-1
 963 0 l 1,4,-1
 60 0 l 1,5,-1
 165 538 l 1,6,-1
 2 453 l 1,7,-1
 31 611 l 1,8,-1
 196 696 l 1,9,-1
 334 1409 l 1,10,-1
 525 1409 l 1,11,-1
 408 806 l 1,12,-1
 714 954 l 1,13,-1
 683 797 l 1,0,-1
EndSplineSet
EndChar

StartChar: lslash
Encoding: 322 322 258
Width: 455
Flags: W
LayerCount: 2
Fore
SplineSet
32 0 m 1,0,-1
 137 542 l 1,1,-1
 2 474 l 1,2,-1
 33 632 l 1,3,-1
 167 700 l 1,4,-1
 320 1484 l 1,5,-1
 500 1484 l 1,6,-1
 368 804 l 1,7,-1
 506 876 l 1,8,-1
 475 717 l 1,9,-1
 337 646 l 1,10,-1
 211 0 l 1,11,-1
 32 0 l 1,0,-1
EndSplineSet
EndChar

StartChar: Eng
Encoding: 330 330 266
Width: 1481
Flags: W
LayerCount: 2
Fore
SplineSet
852 -20 m 0,0,1
 741 -20 741 -20 662.5 23.5 c 128,-1,2
 584 67 584 67 540 135 c 1,3,-1
 681 243 l 1,4,5
 715 195 715 195 762.5 164 c 128,-1,6
 810 133 810 133 864 133 c 0,7,8
 924 133 924 133 966 157.5 c 128,-1,9
 1008 182 1008 182 1038 232.5 c 128,-1,10
 1068 283 1068 283 1089.5 361 c 128,-1,11
 1111 439 1111 439 1132 546 c 2,12,-1
 1205 924 l 2,13,14
 1211 954 1211 954 1215 988.5 c 128,-1,15
 1219 1023 1219 1023 1219 1048 c 0,16,17
 1219 1157 1219 1157 1153.5 1215.5 c 128,-1,18
 1088 1274 1088 1274 945 1274 c 0,19,20
 852 1274 852 1274 765.5 1243 c 128,-1,21
 679 1212 679 1212 608.5 1159.5 c 128,-1,22
 538 1107 538 1107 490 1037.5 c 128,-1,23
 442 968 442 968 427 891 c 2,24,-1
 254 0 l 1,25,-1
 63 0 l 1,26,-1
 275 1092 l 2,27,28
 282 1129 282 1129 290.5 1175 c 128,-1,29
 299 1221 299 1221 307 1266 c 128,-1,30
 315 1311 315 1311 322 1349 c 128,-1,31
 329 1387 329 1387 332 1409 c 1,32,-1
 516 1409 l 1,33,34
 513 1387 513 1387 508 1355.5 c 128,-1,35
 503 1324 503 1324 497.5 1289.5 c 128,-1,36
 492 1255 492 1255 486 1220.5 c 128,-1,37
 480 1186 480 1186 475 1158 c 1,38,-1
 479 1158 l 1,39,40
 524 1220 524 1220 579 1270 c 128,-1,41
 634 1320 634 1320 698.5 1355 c 128,-1,42
 763 1390 763 1390 837.5 1409.5 c 128,-1,43
 912 1429 912 1429 997 1429 c 0,44,45
 1408 1429 1408 1429 1408 1072 c 0,46,47
 1408 1017 1408 1017 1402.5 976.5 c 128,-1,48
 1397 936 1397 936 1391 904 c 2,49,-1
 1321 542 l 2,50,51
 1295 409 1295 409 1266 304.5 c 128,-1,52
 1237 200 1237 200 1187.5 128 c 128,-1,53
 1138 56 1138 56 1058.5 18 c 128,-1,54
 979 -20 979 -20 852 -20 c 0,0,1
EndSplineSet
EndChar

StartChar: eng
Encoding: 331 331 267
Width: 1139
Flags: W
LayerCount: 2
Fore
SplineSet
871 -134 m 2,0,1
 859 -196 859 -196 839.5 -249 c 128,-1,2
 820 -302 820 -302 787 -341 c 128,-1,3
 754 -380 754 -380 704.5 -402.5 c 128,-1,4
 655 -425 655 -425 584 -425 c 0,5,6
 550 -425 550 -425 515.5 -420.5 c 128,-1,7
 481 -416 481 -416 455 -411 c 1,8,-1
 478 -275 l 1,9,10
 491 -277 491 -277 516 -280 c 128,-1,11
 541 -283 541 -283 561 -283 c 0,12,13
 620 -283 620 -283 650 -241 c 128,-1,14
 680 -199 680 -199 697 -107 c 2,15,-1
 843 645 l 2,16,17
 851 684 851 684 856 724.5 c 128,-1,18
 861 765 861 765 861 795 c 0,19,20
 861 874 861 874 819 918 c 128,-1,21
 777 962 777 962 682 962 c 0,22,23
 618 962 618 962 561.5 936.5 c 128,-1,24
 505 911 505 911 459 864.5 c 128,-1,25
 413 818 413 818 380.5 752.5 c 128,-1,26
 348 687 348 687 332 606 c 2,27,-1
 214 0 l 1,28,-1
 34 0 l 1,29,-1
 200 851 l 2,30,31
 207 885 207 885 213.5 922.5 c 128,-1,32
 220 960 220 960 225.5 993.5 c 128,-1,33
 231 1027 231 1027 234.5 1051 c 128,-1,34
 238 1075 238 1075 239 1082 c 1,35,-1
 409 1082 l 1,36,37
 409 1077 409 1077 406 1055 c 128,-1,38
 403 1033 403 1033 398.5 1004.5 c 128,-1,39
 394 976 394 976 389.5 946.5 c 128,-1,40
 385 917 385 917 381 897 c 1,41,-1
 384 897 l 1,42,43
 418 944 418 944 454 982 c 128,-1,44
 490 1020 490 1020 533.5 1046.5 c 128,-1,45
 577 1073 577 1073 629.5 1087 c 128,-1,46
 682 1101 682 1101 749 1101 c 0,47,48
 897 1101 897 1101 971.5 1028 c 128,-1,49
 1046 955 1046 955 1046 817 c 0,50,51
 1046 781 1046 781 1039.5 736 c 128,-1,52
 1033 691 1033 691 1025 653 c 2,53,-1
 871 -134 l 2,0,1
EndSplineSet
EndChar

StartChar: OE
Encoding: 338 338 274
Width: 2048
Flags: W
LayerCount: 2
Fore
SplineSet
893 0 m 1,0,1
 855 -5 855 -5 802.5 -7.5 c 128,-1,2
 750 -10 750 -10 702 -10 c 0,3,4
 557 -10 557 -10 444.5 32 c 128,-1,5
 332 74 332 74 256 150.5 c 128,-1,6
 180 227 180 227 140.5 334.5 c 128,-1,7
 101 442 101 442 101 573 c 0,8,9
 101 667 101 667 119 764 c 0,10,11
 148 914 148 914 219.5 1035.5 c 128,-1,12
 291 1157 291 1157 396 1242.5 c 128,-1,13
 501 1328 501 1328 635.5 1374 c 128,-1,14
 770 1420 770 1420 925 1420 c 0,15,16
 950 1420 950 1420 985 1419 c 128,-1,17
 1020 1418 1020 1418 1057.5 1416.5 c 128,-1,18
 1095 1415 1095 1415 1131 1413 c 128,-1,19
 1167 1411 1167 1411 1194 1409 c 1,20,-1
 2067 1409 l 1,21,-1
 2037 1253 l 1,22,-1
 1327 1253 l 1,23,-1
 1239 801 l 1,24,-1
 1889 801 l 1,25,-1
 1859 647 l 1,26,-1
 1209 647 l 1,27,-1
 1114 156 l 1,28,-1
 1865 156 l 1,29,-1
 1835 0 l 1,30,-1
 893 0 l 1,0,1
712 145 m 0,31,32
 744 145 744 145 775 146 c 128,-1,33
 806 147 806 147 834 148.5 c 128,-1,34
 862 150 862 150 885 152 c 128,-1,35
 908 154 908 154 923 156 c 1,36,-1
 1136 1255 l 1,37,38
 1113 1258 1113 1258 1083.5 1260 c 128,-1,39
 1054 1262 1054 1262 1024 1263.5 c 128,-1,40
 994 1265 994 1265 965.5 1265.5 c 128,-1,41
 937 1266 937 1266 915 1266 c 0,42,43
 789 1266 789 1266 687.5 1230.5 c 128,-1,44
 586 1195 586 1195 510 1127 c 128,-1,45
 434 1059 434 1059 383.5 959.5 c 128,-1,46
 333 860 333 860 308 732 c 0,47,48
 300 689 300 689 296 645.5 c 128,-1,49
 292 602 292 602 292 563 c 0,50,51
 292 456 292 456 322 377 c 128,-1,52
 352 298 352 298 407.5 246.5 c 128,-1,53
 463 195 463 195 540.5 170 c 128,-1,54
 618 145 618 145 712 145 c 0,31,32
EndSplineSet
EndChar

StartChar: oe
Encoding: 339 339 275
Width: 1933
Flags: W
LayerCount: 2
Fore
SplineSet
1055 503 m 1,0,1
 1050 480 1050 480 1047 448.5 c 128,-1,2
 1044 417 1044 417 1044 390 c 0,3,4
 1044 257 1044 257 1110.5 186 c 128,-1,5
 1177 115 1177 115 1311 115 c 0,6,7
 1367 115 1367 115 1412.5 129.5 c 128,-1,8
 1458 144 1458 144 1495 168.5 c 128,-1,9
 1532 193 1532 193 1560 225.5 c 128,-1,10
 1588 258 1588 258 1607 294 c 1,11,-1
 1745 231 l 1,12,13
 1720 186 1720 186 1684.5 141.5 c 128,-1,14
 1649 97 1649 97 1596 61 c 128,-1,15
 1543 25 1543 25 1468.5 2.5 c 128,-1,16
 1394 -20 1394 -20 1290 -20 c 0,17,18
 1156 -20 1156 -20 1062 29.5 c 128,-1,19
 968 79 968 79 917 173 c 1,20,21
 838 72 838 72 729.5 28.5 c 128,-1,22
 621 -15 621 -15 491 -15 c 0,23,24
 395 -15 395 -15 317 13.5 c 128,-1,25
 239 42 239 42 184 97.5 c 128,-1,26
 129 153 129 153 99 234 c 128,-1,27
 69 315 69 315 69 419 c 1,28,29
 70 466 70 466 74.5 516 c 128,-1,30
 79 566 79 566 91 620 c 0,31,32
 120 746 120 746 170.5 836.5 c 128,-1,33
 221 927 221 927 291 986 c 128,-1,34
 361 1045 361 1045 449 1073 c 128,-1,35
 537 1101 537 1101 642 1101 c 0,36,37
 784 1101 784 1101 879.5 1051.5 c 128,-1,38
 975 1002 975 1002 1024 909 c 1,39,40
 1100 1002 1100 1002 1203 1052 c 128,-1,41
 1306 1102 1306 1102 1427 1102 c 0,42,43
 1537 1102 1537 1102 1617.5 1073 c 128,-1,44
 1698 1044 1698 1044 1751.5 992 c 128,-1,45
 1805 940 1805 940 1831 867.5 c 128,-1,46
 1857 795 1857 795 1857 708 c 0,47,48
 1857 687 1857 687 1855.5 662 c 128,-1,49
 1854 637 1854 637 1851 610 c 128,-1,50
 1848 583 1848 583 1843.5 555.5 c 128,-1,51
 1839 528 1839 528 1833 503 c 1,52,-1
 1055 503 l 1,0,1
888 683 m 1,53,54
 888 760 888 760 871 814 c 128,-1,55
 854 868 854 868 821.5 902.5 c 128,-1,56
 789 937 789 937 743 953 c 128,-1,57
 697 969 697 969 640 969 c 0,58,59
 587 969 587 969 534 956.5 c 128,-1,60
 481 944 481 944 433 906 c 128,-1,61
 385 868 385 868 345 798 c 128,-1,62
 305 728 305 728 278 612 c 0,63,64
 265 557 265 557 259.5 507.5 c 128,-1,65
 254 458 254 458 254 416 c 0,66,67
 254 334 254 334 272.5 277 c 128,-1,68
 291 220 291 220 324 184.5 c 128,-1,69
 357 149 357 149 402.5 133.5 c 128,-1,70
 448 118 448 118 502 118 c 256,71,72
 556 118 556 118 608.5 129.5 c 128,-1,73
 661 141 661 141 708 178 c 128,-1,74
 755 215 755 215 794.5 285.5 c 128,-1,75
 834 356 834 356 861 473 c 0,76,77
 875 533 875 533 880.5 583 c 128,-1,78
 886 633 886 633 888 683 c 1,53,54
1674 641 m 1,79,80
 1676 661 1676 661 1677 678.5 c 128,-1,81
 1678 696 1678 696 1678 713 c 0,82,83
 1678 779 1678 779 1660.5 827.5 c 128,-1,84
 1643 876 1643 876 1611 907.5 c 128,-1,85
 1579 939 1579 939 1533 954 c 128,-1,86
 1487 969 1487 969 1431 969 c 0,87,88
 1383 969 1383 969 1330 954.5 c 128,-1,89
 1277 940 1277 940 1228.5 903 c 128,-1,90
 1180 866 1180 866 1140 802.5 c 128,-1,91
 1100 739 1100 739 1077 641 c 1,92,-1
 1674 641 l 1,79,80
EndSplineSet
EndChar

StartChar: Tbar
Encoding: 358 358 294
Width: 1251
Flags: W
LayerCount: 2
Fore
SplineSet
858 1253 m 1,0,-1
 770 801 l 1,1,-1
 1051 801 l 1,2,-1
 1021 647 l 1,3,-1
 740 647 l 1,4,-1
 615 0 l 1,5,-1
 425 0 l 1,6,-1
 550 647 l 1,7,-1
 271 647 l 1,8,-1
 301 801 l 1,9,-1
 580 801 l 1,10,-1
 668 1253 l 1,11,-1
 184 1253 l 1,12,-1
 214 1409 l 1,13,-1
 1372 1409 l 1,14,-1
 1342 1253 l 1,15,-1
 858 1253 l 1,0,-1
EndSplineSet
EndChar

StartChar: tbar
Encoding: 359 359 295
Width: 569
Flags: W
LayerCount: 2
Fore
SplineSet
289 306 m 2,0,1
 285 286 285 286 281 257 c 128,-1,2
 277 228 277 228 277 211 c 0,3,4
 277 169 277 169 298 146 c 128,-1,5
 319 123 319 123 367 123 c 0,6,7
 393 123 393 123 415.5 126.5 c 128,-1,8
 438 130 438 130 467 137 c 1,9,-1
 448 4 l 1,10,11
 411 -5 411 -5 367 -12.5 c 128,-1,12
 323 -20 323 -20 275 -20 c 0,13,14
 190 -20 190 -20 141.5 31 c 128,-1,15
 93 82 93 82 93 166 c 0,16,17
 93 198 93 198 98 234.5 c 128,-1,18
 103 271 103 271 108 296 c 2,19,-1
 150 516 l 1,20,-1
 25 516 l 1,21,-1
 50 647 l 1,22,-1
 175 647 l 1,23,-1
 234 951 l 1,24,-1
 109 951 l 1,25,-1
 135 1082 l 1,26,-1
 262 1082 l 1,27,-1
 367 1324 l 1,28,-1
 487 1324 l 1,29,-1
 440 1082 l 1,30,-1
 640 1082 l 1,31,-1
 614 951 l 1,32,-1
 414 951 l 1,33,-1
 355 647 l 1,34,-1
 555 647 l 1,35,-1
 530 516 l 1,36,-1
 329 516 l 1,37,-1
 289 306 l 2,0,1
EndSplineSet
EndChar

StartChar: longs
Encoding: 383 383 319
Width: 455
Flags: W
LayerCount: 2
Fore
SplineSet
33 0 m 1,0,-1
 267 1204 l 2,1,2
 278 1263 278 1263 296.5 1314 c 128,-1,3
 315 1365 315 1365 348.5 1403 c 128,-1,4
 382 1441 382 1441 436 1462.5 c 128,-1,5
 490 1484 490 1484 572 1484 c 0,6,7
 603 1484 603 1484 634.5 1481 c 128,-1,8
 666 1478 666 1478 690 1472 c 1,9,-1
 666 1335 l 1,10,11
 650 1338 650 1338 624.5 1340.5 c 128,-1,12
 599 1343 599 1343 582 1343 c 0,13,14
 546 1343 546 1343 523 1332 c 128,-1,15
 500 1321 500 1321 484.5 1300 c 128,-1,16
 469 1279 469 1279 460 1248.5 c 128,-1,17
 451 1218 451 1218 443 1179 c 2,18,-1
 213 0 l 1,19,-1
 33 0 l 1,0,-1
EndSplineSet
EndChar

StartChar: florin
Encoding: 402 402 320
Width: 1139
Flags: W
LayerCount: 2
Fore
SplineSet
1028 1312 m 1,0,1
 1011 1317 1011 1317 980 1322 c 128,-1,2
 949 1327 949 1327 918 1327 c 256,3,4
 887 1327 887 1327 864 1317.5 c 128,-1,5
 841 1308 841 1308 824.5 1288 c 128,-1,6
 808 1268 808 1268 796 1236 c 128,-1,7
 784 1204 784 1204 775 1159 c 2,8,-1
 749 1022 l 1,9,-1
 960 1022 l 1,10,-1
 935 891 l 1,11,-1
 722 891 l 1,12,-1
 464 -456 l 1,13,-1
 284 -456 l 1,14,-1
 542 891 l 1,15,-1
 390 891 l 1,16,-1
 417 1022 l 1,17,-1
 568 1022 l 1,18,-1
 597 1174 l 2,19,20
 609 1233 609 1233 629 1284 c 128,-1,21
 649 1335 649 1335 684.5 1373 c 128,-1,22
 720 1411 720 1411 774.5 1432.5 c 128,-1,23
 829 1454 829 1454 910 1454 c 0,24,25
 942 1454 942 1454 983 1449 c 128,-1,26
 1024 1444 1024 1444 1059 1434 c 1,27,-1
 1028 1312 l 1,0,1
EndSplineSet
EndChar

StartChar: circumflex
Encoding: 710 710 327
Width: 682
Flags: W
LayerCount: 2
Fore
SplineSet
742 1221 m 1,0,-1
 738 1201 l 1,1,-1
 646 1201 l 1,2,-1
 460 1370 l 1,3,-1
 458 1370 l 1,4,-1
 193 1201 l 1,5,-1
 77 1201 l 1,6,-1
 81 1221 l 1,7,-1
 367 1491 l 1,8,-1
 571 1491 l 1,9,-1
 742 1221 l 1,0,-1
EndSplineSet
EndChar

StartChar: caron
Encoding: 711 711 328
Width: 682
Flags: W
LayerCount: 2
Fore
SplineSet
521 1201 m 1,0,-1
 317 1201 l 1,1,-1
 136 1471 l 1,2,-1
 140 1491 l 1,3,-1
 237 1491 l 1,4,-1
 436 1322 l 1,5,-1
 438 1322 l 1,6,-1
 690 1491 l 1,7,-1
 802 1491 l 1,8,-1
 798 1471 l 1,9,-1
 521 1201 l 1,0,-1
EndSplineSet
EndChar

StartChar: uni02C9
Encoding: 713 713 329
Width: 682
Flags: W
LayerCount: 2
Fore
SplineSet
692 1236 m 1,0,-1
 142 1236 l 1,1,-1
 168 1363 l 1,2,-1
 718 1363 l 1,3,-1
 692 1236 l 1,0,-1
EndSplineSet
EndChar

StartChar: breve
Encoding: 728 728 330
Width: 682
Flags: W
LayerCount: 2
Fore
SplineSet
426 1201 m 256,0,1
 352 1201 352 1201 297 1226.5 c 128,-1,2
 242 1252 242 1252 205 1295 c 128,-1,3
 168 1338 168 1338 149.5 1393.5 c 128,-1,4
 131 1449 131 1449 130 1510 c 1,5,-1
 246 1510 l 1,6,7
 249 1425 249 1425 300.5 1386 c 128,-1,8
 352 1347 352 1347 435 1347 c 0,9,10
 614 1347 614 1347 678 1510 c 1,11,-1
 795 1510 l 1,12,13
 774 1449 774 1449 741.5 1393.5 c 128,-1,14
 709 1338 709 1338 663.5 1295 c 128,-1,15
 618 1252 618 1252 559 1226.5 c 128,-1,16
 500 1201 500 1201 426 1201 c 256,0,1
EndSplineSet
EndChar

StartChar: dotaccent
Encoding: 729 729 331
Width: 682
Flags: W
LayerCount: 2
Fore
SplineSet
342 1312 m 1,0,-1
 376 1484 l 1,1,-1
 556 1484 l 1,2,-1
 522 1312 l 1,3,-1
 342 1312 l 1,0,-1
EndSplineSet
EndChar

StartChar: ring
Encoding: 730 730 332
Width: 682
Flags: W
LayerCount: 2
Fore
SplineSet
685 1410 m 256,0,1
 685 1360 685 1360 666 1316 c 128,-1,2
 647 1272 647 1272 614 1239 c 128,-1,3
 581 1206 581 1206 537 1187 c 128,-1,4
 493 1168 493 1168 443 1168 c 256,5,6
 393 1168 393 1168 349 1187 c 128,-1,7
 305 1206 305 1206 272 1239 c 128,-1,8
 239 1272 239 1272 220 1316 c 128,-1,9
 201 1360 201 1360 201 1410 c 256,10,11
 201 1460 201 1460 220 1504 c 128,-1,12
 239 1548 239 1548 272 1580.5 c 128,-1,13
 305 1613 305 1613 349 1632 c 128,-1,14
 393 1651 393 1651 443 1651 c 256,15,16
 493 1651 493 1651 537 1632 c 128,-1,17
 581 1613 581 1613 614 1580.5 c 128,-1,18
 647 1548 647 1548 666 1504 c 128,-1,19
 685 1460 685 1460 685 1410 c 256,0,1
577 1410 m 0,20,21
 577 1439 577 1439 567 1463.5 c 128,-1,22
 557 1488 557 1488 539 1506 c 128,-1,23
 521 1524 521 1524 496.5 1534 c 128,-1,24
 472 1544 472 1544 443 1544 c 0,25,26
 415 1544 415 1544 390 1534 c 128,-1,27
 365 1524 365 1524 347 1506 c 128,-1,28
 329 1488 329 1488 318.5 1463.5 c 128,-1,29
 308 1439 308 1439 308 1410 c 0,30,31
 308 1382 308 1382 318.5 1357 c 128,-1,32
 329 1332 329 1332 347 1313 c 128,-1,33
 365 1294 365 1294 390 1283.5 c 128,-1,34
 415 1273 415 1273 443 1273 c 0,35,36
 472 1273 472 1273 496.5 1283.5 c 128,-1,37
 521 1294 521 1294 539 1313 c 128,-1,38
 557 1332 557 1332 567 1357 c 128,-1,39
 577 1382 577 1382 577 1410 c 0,20,21
EndSplineSet
EndChar

StartChar: ogonek
Encoding: 731 731 333
Width: 682
Flags: W
LayerCount: 2
Fore
SplineSet
249 -427 m 0,0,1
 161 -427 161 -427 116 -380 c 128,-1,2
 71 -333 71 -333 71 -259 c 0,3,4
 71 -207 71 -207 91.5 -164 c 128,-1,5
 112 -121 112 -121 142.5 -89 c 128,-1,6
 173 -57 173 -57 209 -34.5 c 128,-1,7
 245 -12 245 -12 276 0 c 1,8,-1
 409 0 l 1,9,10
 382 -14 382 -14 348 -36.5 c 128,-1,11
 314 -59 314 -59 285 -89 c 128,-1,12
 256 -119 256 -119 236 -156 c 128,-1,13
 216 -193 216 -193 216 -236 c 0,14,15
 216 -270 216 -270 236 -293.5 c 128,-1,16
 256 -317 256 -317 294 -317 c 0,17,18
 326 -317 326 -317 352 -311.5 c 128,-1,19
 378 -306 378 -306 408 -295 c 1,20,-1
 393 -400 l 1,21,22
 363 -412 363 -412 328 -419.5 c 128,-1,23
 293 -427 293 -427 249 -427 c 0,0,1
EndSplineSet
EndChar

StartChar: tilde
Encoding: 732 732 334
Width: 682
Flags: W
LayerCount: 2
Fore
SplineSet
567 1201 m 0,0,1
 525 1201 525 1201 487 1219.5 c 128,-1,2
 449 1238 449 1238 414.5 1260.5 c 128,-1,3
 380 1283 380 1283 348 1301.5 c 128,-1,4
 316 1320 316 1320 285 1320 c 0,5,6
 230 1320 230 1320 196.5 1289 c 128,-1,7
 163 1258 163 1258 143 1201 c 1,8,-1
 53 1201 l 1,9,10
 67 1246 67 1246 86 1293.5 c 128,-1,11
 105 1341 105 1341 133.5 1380 c 128,-1,12
 162 1419 162 1419 203.5 1444 c 128,-1,13
 245 1469 245 1469 304 1469 c 0,14,15
 348 1469 348 1469 386 1450.5 c 128,-1,16
 424 1432 424 1432 458.5 1409.5 c 128,-1,17
 493 1387 493 1387 524 1368.5 c 128,-1,18
 555 1350 555 1350 585 1350 c 0,19,20
 639 1350 639 1350 673 1381.5 c 128,-1,21
 707 1413 707 1413 726 1469 c 1,22,-1
 818 1469 l 1,23,24
 804 1425 804 1425 785.5 1377.5 c 128,-1,25
 767 1330 767 1330 738.5 1291 c 128,-1,26
 710 1252 710 1252 668.5 1226.5 c 128,-1,27
 627 1201 627 1201 567 1201 c 0,0,1
EndSplineSet
EndChar

StartChar: hungarumlaut
Encoding: 733 733 335
Width: 682
Flags: W
LayerCount: 2
Fore
SplineSet
23 1201 m 1,0,-1
 26 1221 l 1,1,-1
 278 1508 l 1,2,-1
 485 1508 l 1,3,-1
 480 1479 l 1,4,-1
 116 1201 l 1,5,-1
 23 1201 l 1,0,-1
369 1201 m 1,6,-1
 372 1221 l 1,7,-1
 625 1508 l 1,8,-1
 832 1508 l 1,9,-1
 827 1479 l 1,10,-1
 463 1201 l 1,11,-1
 369 1201 l 1,6,-1
EndSplineSet
EndChar

StartChar: tonos
Encoding: 900 900 336
Width: 682
Flags: W
LayerCount: 2
Fore
SplineSet
233 1218 m 1,0,-1
 239 1251 l 1,1,-1
 365 1543 l 1,2,-1
 572 1543 l 1,3,-1
 565 1506 l 1,4,-1
 308 1218 l 1,5,-1
 233 1218 l 1,0,-1
EndSplineSet
EndChar

StartChar: dieresistonos
Encoding: 901 901 337
Width: 682
Flags: W
LayerCount: 2
Fore
SplineSet
210 1200 m 1,0,-1
 217 1233 l 1,1,-1
 357 1601 l 1,2,-1
 544 1601 l 1,3,-1
 537 1564 l 1,4,-1
 285 1200 l 1,5,-1
 210 1200 l 1,0,-1
-4 1231 m 1,6,-1
 29 1403 l 1,7,-1
 179 1403 l 1,8,-1
 145 1231 l 1,9,-1
 -4 1231 l 1,6,-1
467 1231 m 1,10,-1
 501 1403 l 1,11,-1
 651 1403 l 1,12,-1
 617 1231 l 1,13,-1
 467 1231 l 1,10,-1
EndSplineSet
EndChar

StartChar: anoteleia
Encoding: 903 903 339
Width: 569
Flags: W
LayerCount: 2
Fore
SplineSet
165 446 m 1,0,-1
 208 666 l 1,1,-1
 403 666 l 1,2,-1
 360 446 l 1,3,-1
 165 446 l 1,0,-1
EndSplineSet
EndChar

StartChar: Gamma
Encoding: 915 915 349
Width: 1168
Flags: W
LayerCount: 2
Fore
SplineSet
1241 1410 m 1,0,-1
 1211 1254 l 1,1,-1
 498 1254 l 1,2,-1
 254 1 l 1,3,-1
 63 1 l 1,4,-1
 337 1410 l 1,5,-1
 1241 1410 l 1,0,-1
EndSplineSet
EndChar

StartChar: Delta
Encoding: 916 916 350
Width: 1374
Flags: W
LayerCount: 2
Fore
SplineSet
-11 141 m 1,0,-1
 751 1409 l 1,1,-1
 968 1409 l 1,2,-1
 1232 141 l 1,3,-1
 1204 0 l 1,4,-1
 -40 0 l 1,5,-1
 -11 141 l 1,0,-1
1042 156 m 1,6,-1
 871 1018 l 2,7,8
 863 1059 863 1059 856.5 1099 c 128,-1,9
 850 1139 850 1139 845.5 1172.5 c 128,-1,10
 841 1206 841 1206 838.5 1230.5 c 128,-1,11
 836 1255 836 1255 836 1265 c 1,12,13
 833 1258 833 1258 821 1233 c 128,-1,14
 809 1208 809 1208 791 1173 c 128,-1,15
 773 1138 773 1138 751 1097 c 128,-1,16
 729 1056 729 1056 705 1016 c 2,17,-1
 199 156 l 1,18,-1
 1042 156 l 1,6,-1
EndSplineSet
EndChar

StartChar: Theta
Encoding: 920 920 354
Width: 1593
Flags: W
LayerCount: 2
Fore
SplineSet
541 794 m 1,0,-1
 1128 794 l 1,1,-1
 1097 634 l 1,2,-1
 510 634 l 1,3,-1
 541 794 l 1,0,-1
928 1430 m 0,4,5
 1072 1430 1072 1430 1183 1387.5 c 128,-1,6
 1294 1345 1294 1345 1370.5 1268 c 128,-1,7
 1447 1191 1447 1191 1486.5 1085 c 128,-1,8
 1526 979 1526 979 1526 851 c 1,9,10
 1525 802 1525 802 1520.5 749.5 c 128,-1,11
 1516 697 1516 697 1506 649 c 0,12,13
 1476 495 1476 495 1405 371.5 c 128,-1,14
 1334 248 1334 248 1229.5 161 c 128,-1,15
 1125 74 1125 74 990.5 27 c 128,-1,16
 856 -20 856 -20 699 -20 c 0,17,18
 549 -20 549 -20 437 23.5 c 128,-1,19
 325 67 325 67 250.5 145.5 c 128,-1,20
 176 224 176 224 138.5 333 c 128,-1,21
 101 442 101 442 101 573 c 0,22,23
 101 619 101 619 105.5 667 c 128,-1,24
 110 715 110 715 120 764 c 0,25,26
 150 914 150 914 220 1037 c 128,-1,27
 290 1160 290 1160 394.5 1247.5 c 128,-1,28
 499 1335 499 1335 634 1382.5 c 128,-1,29
 769 1430 769 1430 928 1430 c 0,4,5
919 1276 m 0,30,31
 788 1276 788 1276 686 1239 c 128,-1,32
 584 1202 584 1202 508.5 1132 c 128,-1,33
 433 1062 433 1062 384 961 c 128,-1,34
 335 860 335 860 309 732 c 0,35,36
 300 689 300 689 296 645.5 c 128,-1,37
 292 602 292 602 292 563 c 0,38,39
 292 456 292 456 320 375.5 c 128,-1,40
 348 295 348 295 401.5 241.5 c 128,-1,41
 455 188 455 188 532.5 161.5 c 128,-1,42
 610 135 610 135 708 135 c 0,43,44
 840 135 840 135 942.5 172.5 c 128,-1,45
 1045 210 1045 210 1120 280.5 c 128,-1,46
 1195 351 1195 351 1244.5 451.5 c 128,-1,47
 1294 552 1294 552 1319 677 c 0,48,49
 1328 719 1328 719 1331.5 764 c 128,-1,50
 1335 809 1335 809 1335 847 c 0,51,52
 1335 954 1335 954 1306 1034.5 c 128,-1,53
 1277 1115 1277 1115 1223 1168.5 c 128,-1,54
 1169 1222 1169 1222 1092 1249 c 128,-1,55
 1015 1276 1015 1276 919 1276 c 0,30,31
EndSplineSet
EndChar

StartChar: Lambda
Encoding: 923 923 357
Width: 1366
Flags: W
LayerCount: 2
Fore
SplineSet
1253 1 m 1,0,-1
 1058 1 l 1,1,-1
 863 993 l 2,2,3
 854 1040 854 1040 848 1084.5 c 128,-1,4
 842 1129 842 1129 837 1164 c 0,5,6
 832 1205 832 1205 828 1242 c 1,7,8
 809 1203 809 1203 787 1161 c 0,9,10
 768 1125 768 1125 744.5 1081 c 128,-1,11
 721 1037 721 1037 695 993 c 2,12,-1
 112 1 l 1,13,-1
 -94 1 l 1,14,-1
 754 1410 l 1,15,-1
 952 1410 l 1,16,-1
 1253 1 l 1,0,-1
EndSplineSet
EndChar

StartChar: Xi
Encoding: 926 926 360
Width: 1328
Flags: W
LayerCount: 2
Fore
SplineSet
294 1409 m 1,0,-1
 1375 1409 l 1,1,-1
 1345 1253 l 1,2,-1
 264 1253 l 1,3,-1
 294 1409 l 1,0,-1
1167 156 m 1,4,-1
 1136 0 l 1,5,-1
 -14 0 l 1,6,-1
 17 156 l 1,7,-1
 1167 156 l 1,4,-1
1137 801 m 1,8,-1
 1107 647 l 1,9,-1
 266 647 l 1,10,-1
 296 801 l 1,11,-1
 1137 801 l 1,8,-1
EndSplineSet
EndChar

StartChar: Pi
Encoding: 928 928 362
Width: 1484
Flags: W
LayerCount: 2
Fore
SplineSet
1021 0 m 1,0,-1
 1264 1248 l 1,1,-1
 497 1248 l 1,2,-1
 254 0 l 1,3,-1
 63 0 l 1,4,-1
 337 1409 l 1,5,-1
 1486 1409 l 1,6,-1
 1212 0 l 1,7,-1
 1021 0 l 1,0,-1
EndSplineSet
EndChar

StartChar: Sigma
Encoding: 931 931 364
Width: 1228
Flags: W
LayerCount: 2
Fore
SplineSet
-6 0 m 1,0,-1
 27 171 l 1,1,-1
 678 752 l 1,2,-1
 255 1257 l 1,3,-1
 284 1409 l 1,4,-1
 1283 1409 l 1,5,-1
 1253 1253 l 1,6,-1
 463 1253 l 1,7,-1
 847 796 l 1,8,-1
 823 681 l 1,9,-1
 234 156 l 1,10,-1
 1101 156 l 1,11,-1
 1070 0 l 1,12,-1
 -6 0 l 1,0,-1
EndSplineSet
EndChar

StartChar: Phi
Encoding: 934 934 367
Width: 1714
Flags: W
LayerCount: 2
Fore
SplineSet
640 216 m 2,0,1
 523 216 523 216 428.5 248.5 c 128,-1,2
 334 281 334 281 266.5 342 c 128,-1,3
 199 403 199 403 162.5 490 c 128,-1,4
 126 577 126 577 126 686 c 0,5,6
 126 815 126 815 169 917 c 128,-1,7
 212 1019 212 1019 291 1090 c 128,-1,8
 370 1161 370 1161 480.5 1199 c 128,-1,9
 591 1237 591 1237 726 1237 c 2,10,-1
 887 1237 l 1,11,-1
 922 1419 l 1,12,-1
 1105 1419 l 1,13,-1
 1072 1237 l 1,14,-1
 1121 1237 l 2,15,16
 1238 1237 1238 1237 1332.5 1204.5 c 128,-1,17
 1427 1172 1427 1172 1494.5 1111.5 c 128,-1,18
 1562 1051 1562 1051 1598.5 964 c 128,-1,19
 1635 877 1635 877 1635 768 c 0,20,21
 1635 639 1635 639 1591.5 537 c 128,-1,22
 1548 435 1548 435 1469.5 363.5 c 128,-1,23
 1391 292 1391 292 1280 254 c 128,-1,24
 1169 216 1169 216 1034 216 c 2,25,-1
 874 216 l 1,26,-1
 828 -11 l 1,27,-1
 645 -11 l 1,28,-1
 689 216 l 1,29,-1
 640 216 l 2,0,1
901 358 m 1,30,-1
 1025 358 l 2,31,32
 1124 358 1124 358 1201 383.5 c 128,-1,33
 1278 409 1278 409 1331.5 459.5 c 128,-1,34
 1385 510 1385 510 1413 585 c 128,-1,35
 1441 660 1441 660 1441 759 c 0,36,37
 1441 847 1441 847 1415 910.5 c 128,-1,38
 1389 974 1389 974 1344 1014.5 c 128,-1,39
 1299 1055 1299 1055 1239.5 1074.5 c 128,-1,40
 1180 1094 1180 1094 1113 1094 c 2,41,-1
 1044 1094 l 1,42,-1
 901 358 l 1,30,-1
859 1094 m 1,43,-1
 735 1094 l 2,44,45
 636 1094 636 1094 559 1068.5 c 128,-1,46
 482 1043 482 1043 429 993 c 128,-1,47
 376 943 376 943 348 868.5 c 128,-1,48
 320 794 320 794 320 695 c 0,49,50
 320 606 320 606 346 542.5 c 128,-1,51
 372 479 372 479 417 438 c 128,-1,52
 462 397 462 397 521 377.5 c 128,-1,53
 580 358 580 358 646 358 c 2,54,-1
 716 358 l 1,55,-1
 859 1094 l 1,43,-1
EndSplineSet
EndChar

StartChar: Psi
Encoding: 936 936 369
Width: 1701
Flags: W
LayerCount: 2
Fore
SplineSet
653 0 m 1,0,-1
 736 427 l 1,1,-1
 685 427 l 2,2,3
 456 427 456 427 332 529 c 128,-1,4
 208 631 208 631 208 826 c 0,5,6
 208 840 208 840 209 857.5 c 128,-1,7
 210 875 210 875 211.5 891.5 c 128,-1,8
 213 908 213 908 215 922.5 c 128,-1,9
 217 937 217 937 219 946 c 2,10,-1
 309 1409 l 1,11,-1
 500 1409 l 1,12,-1
 410 942 l 2,13,14
 408 930 408 930 405 913.5 c 128,-1,15
 402 897 402 897 399.5 879.5 c 128,-1,16
 397 862 397 862 395.5 845 c 128,-1,17
 394 828 394 828 394 814 c 0,18,19
 394 747 394 747 417 700.5 c 128,-1,20
 440 654 440 654 481 624.5 c 128,-1,21
 522 595 522 595 580 581.5 c 128,-1,22
 638 568 638 568 708 568 c 2,23,-1
 764 568 l 1,24,-1
 927 1409 l 1,25,-1
 1112 1409 l 1,26,-1
 949 568 l 1,27,-1
 1028 566 l 2,28,29
 1138 563 1138 563 1211 588.5 c 128,-1,30
 1284 614 1284 614 1331 662.5 c 128,-1,31
 1378 711 1378 711 1405 782 c 128,-1,32
 1432 853 1432 853 1449 942 c 2,33,-1
 1539 1409 l 1,34,-1
 1730 1409 l 1,35,-1
 1632 902 l 2,36,37
 1611 794 1611 794 1568 706.5 c 128,-1,38
 1525 619 1525 619 1452.5 557 c 128,-1,39
 1380 495 1380 495 1275 461 c 128,-1,40
 1170 427 1170 427 1026 427 c 2,41,-1
 921 427 l 1,42,-1
 838 0 l 1,43,-1
 653 0 l 1,0,-1
EndSplineSet
EndChar

StartChar: Omega
Encoding: 937 937 370
Width: 1558
Flags: W
LayerCount: 2
Fore
SplineSet
889 1430 m 0,0,1
 1026 1430 1026 1430 1136.5 1392 c 128,-1,2
 1247 1354 1247 1354 1325 1282.5 c 128,-1,3
 1403 1211 1403 1211 1445.5 1108 c 128,-1,4
 1488 1005 1488 1005 1488 876 c 0,5,6
 1488 750 1488 750 1455 638 c 128,-1,7
 1422 526 1422 526 1352 432.5 c 128,-1,8
 1282 339 1282 339 1174.5 266 c 128,-1,9
 1067 193 1067 193 917 145 c 1,10,11
 962 148 962 148 1002 151 c 0,12,13
 1037 153 1037 153 1073 154.5 c 128,-1,14
 1109 156 1109 156 1132 156 c 2,15,-1
 1386 156 l 1,16,-1
 1356 0 l 1,17,-1
 767 0 l 1,18,-1
 810 224 l 1,19,20
 941 266 941 266 1034 330.5 c 128,-1,21
 1127 395 1127 395 1186 477 c 128,-1,22
 1245 559 1245 559 1272 654.5 c 128,-1,23
 1299 750 1299 750 1299 855 c 0,24,25
 1299 958 1299 958 1269.5 1036.5 c 128,-1,26
 1240 1115 1240 1115 1185.5 1168.5 c 128,-1,27
 1131 1222 1131 1222 1054 1249 c 128,-1,28
 977 1276 977 1276 882 1276 c 0,29,30
 779 1276 779 1276 683 1241 c 128,-1,31
 587 1206 587 1206 513 1134.5 c 128,-1,32
 439 1063 439 1063 395 955 c 128,-1,33
 351 847 351 847 351 701 c 0,34,35
 351 613 351 613 369 541.5 c 128,-1,36
 387 470 387 470 421.5 412 c 128,-1,37
 456 354 456 354 507 308 c 128,-1,38
 558 262 558 262 623 224 c 1,39,-1
 578 0 l 1,40,-1
 31 0 l 1,41,-1
 61 156 l 1,42,-1
 264 156 l 2,43,44
 287 156 287 156 327 154.5 c 128,-1,45
 367 153 367 153 405 151 c 0,46,47
 450 148 450 148 500 145 c 1,48,49
 430 184 430 184 368 240 c 128,-1,50
 306 296 306 296 260 368 c 128,-1,51
 214 440 214 440 187 528 c 128,-1,52
 160 616 160 616 160 721 c 0,53,54
 160 886 160 886 217 1017.5 c 128,-1,55
 274 1149 274 1149 372.5 1240.5 c 128,-1,56
 471 1332 471 1332 604 1381 c 128,-1,57
 737 1430 737 1430 889 1430 c 0,0,1
EndSplineSet
EndChar

StartChar: alpha
Encoding: 945 945 378
Width: 1168
Flags: W
LayerCount: 2
Fore
SplineSet
595 1101 m 0,0,1
 665 1101 665 1101 719.5 1083 c 128,-1,2
 774 1065 774 1065 814 1033 c 128,-1,3
 854 1001 854 1001 879 956.5 c 128,-1,4
 904 912 904 912 914 858 c 1,5,-1
 916 858 l 1,6,7
 923 879 923 879 934.5 905 c 128,-1,8
 946 931 946 931 960.5 960.5 c 128,-1,9
 975 990 975 990 992 1021 c 128,-1,10
 1009 1052 1009 1052 1028 1082 c 1,11,-1
 1216 1082 l 1,12,13
 1195 1051 1195 1051 1171 1006.5 c 128,-1,14
 1147 962 1147 962 1122.5 911 c 128,-1,15
 1098 860 1098 860 1074 805.5 c 128,-1,16
 1050 751 1050 751 1028.5 698.5 c 128,-1,17
 1007 646 1007 646 989.5 598.5 c 128,-1,18
 972 551 972 551 961 514 c 1,19,20
 961 413 961 413 963 338 c 128,-1,21
 965 263 965 263 968.5 203.5 c 128,-1,22
 972 144 972 144 977 95.5 c 128,-1,23
 982 47 982 47 989 0 c 1,24,-1
 812 0 l 1,25,26
 807 25 807 25 803.5 57 c 128,-1,27
 800 89 800 89 798 122 c 128,-1,28
 796 155 796 155 795 185.5 c 128,-1,29
 794 216 794 216 794 237 c 2,30,-1
 794 253 l 1,31,-1
 790 253 l 1,32,33
 757 197 757 197 720 147.5 c 128,-1,34
 683 98 683 98 637 60.5 c 128,-1,35
 591 23 591 23 534.5 1 c 128,-1,36
 478 -21 478 -21 406 -21 c 0,37,38
 325 -21 325 -21 262.5 6 c 128,-1,39
 200 33 200 33 157 84 c 128,-1,40
 114 135 114 135 92 208.5 c 128,-1,41
 70 282 70 282 70 375 c 0,42,43
 70 421 70 421 75.5 478 c 128,-1,44
 81 535 81 535 92 589 c 0,45,46
 119 731 119 731 166.5 829 c 128,-1,47
 214 927 214 927 278.5 987.5 c 128,-1,48
 343 1048 343 1048 423.5 1074.5 c 128,-1,49
 504 1101 504 1101 595 1101 c 0,0,1
601 969 m 0,50,51
 543 969 543 969 494 949 c 128,-1,52
 445 929 445 929 404.5 881.5 c 128,-1,53
 364 834 364 834 332.5 756.5 c 128,-1,54
 301 679 301 679 280 564 c 0,55,56
 259 450 259 450 259 366 c 0,57,58
 259 119 259 119 446 119 c 0,59,60
 498 119 498 119 550.5 147 c 128,-1,61
 603 175 603 175 652.5 230 c 128,-1,62
 702 285 702 285 746 367 c 128,-1,63
 790 449 790 449 824 557 c 1,64,65
 825 577 825 577 825.5 595.5 c 128,-1,66
 826 614 826 614 826 632 c 0,67,68
 826 705 826 705 813.5 767 c 128,-1,69
 801 829 801 829 773.5 874 c 128,-1,70
 746 919 746 919 703.5 944 c 128,-1,71
 661 969 661 969 601 969 c 0,50,51
EndSplineSet
EndChar

StartChar: beta
Encoding: 946 946 379
Width: 1170
Flags: W
LayerCount: 2
Fore
SplineSet
229 1011 m 2,0,1
 274 1241 274 1241 403 1362.5 c 128,-1,2
 532 1484 532 1484 752 1484 c 0,3,4
 836 1484 836 1484 904 1461 c 128,-1,5
 972 1438 972 1438 1020 1395 c 128,-1,6
 1068 1352 1068 1352 1094 1292.5 c 128,-1,7
 1120 1233 1120 1233 1120 1159 c 0,8,9
 1120 1076 1120 1076 1094.5 1011 c 128,-1,10
 1069 946 1069 946 1027.5 899 c 128,-1,11
 986 852 986 852 932 823 c 128,-1,12
 878 794 878 794 821 782 c 1,13,14
 875 769 875 769 921 741 c 128,-1,15
 967 713 967 713 1001.5 672 c 128,-1,16
 1036 631 1036 631 1055.5 578 c 128,-1,17
 1075 525 1075 525 1075 461 c 0,18,19
 1075 354 1075 354 1039.5 265.5 c 128,-1,20
 1004 177 1004 177 936.5 113.5 c 128,-1,21
 869 50 869 50 771.5 15 c 128,-1,22
 674 -20 674 -20 549 -20 c 0,23,24
 447 -20 447 -20 364 8 c 128,-1,25
 281 36 281 36 226 74 c 1,26,-1
 220 74 l 1,27,28
 211 17 211 17 204.5 -29 c 128,-1,29
 198 -75 198 -75 187 -128 c 2,30,-1
 129 -425 l 1,31,-1
 -50 -425 l 1,32,-1
 229 1011 l 2,0,1
734 1343 m 0,33,34
 609 1343 609 1343 525.5 1261 c 128,-1,35
 442 1179 442 1179 409 1009 c 2,36,-1
 251 205 l 1,37,38
 275 189 275 189 309 173 c 128,-1,39
 343 157 343 157 382.5 143.5 c 128,-1,40
 422 130 422 130 465.5 121.5 c 128,-1,41
 509 113 509 113 552 113 c 0,42,43
 629 113 629 113 693 133.5 c 128,-1,44
 757 154 757 154 803 195.5 c 128,-1,45
 849 237 849 237 875 300 c 128,-1,46
 901 363 901 363 901 447 c 0,47,48
 901 502 901 502 882 549 c 128,-1,49
 863 596 863 596 827 630 c 128,-1,50
 791 664 791 664 737.5 683.5 c 128,-1,51
 684 703 684 703 615 703 c 1,52,-1
 643 845 l 1,53,54
 715 855 715 855 771 877.5 c 128,-1,55
 827 900 827 900 865.5 937 c 128,-1,56
 904 974 904 974 924 1027 c 128,-1,57
 944 1080 944 1080 944 1150 c 0,58,59
 944 1193 944 1193 931 1228.5 c 128,-1,60
 918 1264 918 1264 892 1289.5 c 128,-1,61
 866 1315 866 1315 826.5 1329 c 128,-1,62
 787 1343 787 1343 734 1343 c 0,33,34
EndSplineSet
EndChar

StartChar: gamma
Encoding: 947 947 380
Width: 1024
Flags: W
LayerCount: 2
Fore
SplineSet
300 1082 m 1,0,-1
 414 407 l 2,1,2
 418 384 418 384 422 351 c 128,-1,3
 426 318 426 318 429.5 284 c 128,-1,4
 433 250 433 250 435 219 c 128,-1,5
 437 188 437 188 437 170 c 1,6,7
 446 191 446 191 460 220.5 c 128,-1,8
 474 250 474 250 490.5 282.5 c 128,-1,9
 507 315 507 315 524 347 c 128,-1,10
 541 379 541 379 556 405 c 2,11,-1
 927 1082 l 1,12,-1
 1121 1082 l 1,13,-1
 531 53 l 2,14,15
 506 8 506 8 479 -47.5 c 128,-1,16
 452 -103 452 -103 426.5 -165 c 128,-1,17
 401 -227 401 -227 377 -293 c 128,-1,18
 353 -359 353 -359 333 -424 c 1,19,-1
 142 -424 l 1,20,21
 184 -293 184 -293 229 -186.5 c 128,-1,22
 274 -80 274 -80 316 11 c 1,23,-1
 111 1082 l 1,24,-1
 300 1082 l 1,0,-1
EndSplineSet
EndChar

StartChar: delta
Encoding: 948 948 381
Width: 1138
Flags: W
LayerCount: 2
Fore
SplineSet
511 113 m 0,0,1
 600 113 600 113 666.5 146 c 128,-1,2
 733 179 733 179 778 236.5 c 128,-1,3
 823 294 823 294 845.5 372 c 128,-1,4
 868 450 868 450 868 540 c 0,5,6
 868 605 868 605 857 660 c 128,-1,7
 846 715 846 715 827 762.5 c 128,-1,8
 808 810 808 810 782 851 c 128,-1,9
 756 892 756 892 727 929 c 1,10,11
 680 914 680 914 627 892.5 c 128,-1,12
 574 871 574 871 522 841 c 128,-1,13
 470 811 470 811 422.5 770.5 c 128,-1,14
 375 730 375 730 338.5 675 c 128,-1,15
 302 620 302 620 280 549.5 c 128,-1,16
 258 479 258 479 258 389 c 0,17,18
 258 321 258 321 277 269 c 128,-1,19
 296 217 296 217 330 182.5 c 128,-1,20
 364 148 364 148 410 130.5 c 128,-1,21
 456 113 456 113 511 113 c 0,0,1
759 1352 m 2,22,23
 746 1352 746 1352 725.5 1353 c 128,-1,24
 705 1354 705 1354 682.5 1355.5 c 128,-1,25
 660 1357 660 1357 639.5 1358 c 128,-1,26
 619 1359 619 1359 607 1360 c 1,27,-1
 860 1036 l 2,28,29
 904 980 904 980 940.5 924 c 128,-1,30
 977 868 977 868 1003 808 c 128,-1,31
 1029 748 1029 748 1044 683.5 c 128,-1,32
 1059 619 1059 619 1059 547 c 0,33,34
 1059 419 1059 419 1018 314.5 c 128,-1,35
 977 210 977 210 903 135.5 c 128,-1,36
 829 61 829 61 726.5 20.5 c 128,-1,37
 624 -20 624 -20 501 -20 c 0,38,39
 398 -20 398 -20 317.5 10 c 128,-1,40
 237 40 237 40 181.5 95 c 128,-1,41
 126 150 126 150 96.5 226.5 c 128,-1,42
 67 303 67 303 67 396 c 0,43,44
 67 536 67 536 115.5 640 c 128,-1,45
 164 744 164 744 245 819.5 c 128,-1,46
 326 895 326 895 432 945 c 128,-1,47
 538 995 538 995 653 1026 c 1,48,-1
 400 1365 l 1,49,-1
 423 1484 l 1,50,-1
 1156 1484 l 1,51,-1
 1130 1352 l 1,52,-1
 759 1352 l 2,22,23
EndSplineSet
EndChar

StartChar: epsilon
Encoding: 949 949 382
Width: 900
Flags: W
LayerCount: 2
Fore
SplineSet
401 116 m 0,0,1
 507 116 507 116 587.5 156 c 128,-1,2
 668 196 668 196 738 264 c 1,3,-1
 826 159 l 1,4,5
 783 116 783 116 737.5 83 c 128,-1,6
 692 50 692 50 640 27 c 128,-1,7
 588 4 588 4 526.5 -8 c 128,-1,8
 465 -20 465 -20 389 -20 c 0,9,10
 305 -20 305 -20 239 1.5 c 128,-1,11
 173 23 173 23 127.5 62.5 c 128,-1,12
 82 102 82 102 58 157 c 128,-1,13
 34 212 34 212 34 278 c 0,14,15
 34 341 34 341 57.5 393 c 128,-1,16
 81 445 81 445 123.5 484 c 128,-1,17
 166 523 166 523 225 547.5 c 128,-1,18
 284 572 284 572 355 579 c 1,19,-1
 356 581 l 1,20,21
 317 592 317 592 283 611.5 c 128,-1,22
 249 631 249 631 223 659.5 c 128,-1,23
 197 688 197 688 182 725 c 128,-1,24
 167 762 167 762 167 806 c 0,25,26
 167 879 167 879 195.5 934.5 c 128,-1,27
 224 990 224 990 276 1027 c 128,-1,28
 328 1064 328 1064 401.5 1082.5 c 128,-1,29
 475 1101 475 1101 565 1101 c 0,30,31
 627 1101 627 1101 680.5 1092 c 128,-1,32
 734 1083 734 1083 778.5 1063 c 128,-1,33
 823 1043 823 1043 859.5 1010 c 128,-1,34
 896 977 896 977 924 930 c 1,35,-1
 789 846 l 1,36,37
 748 909 748 909 692.5 937 c 128,-1,38
 637 965 637 965 562 965 c 0,39,40
 519 965 519 965 480 955 c 128,-1,41
 441 945 441 945 412 924 c 128,-1,42
 383 903 383 903 365.5 871 c 128,-1,43
 348 839 348 839 348 796 c 0,44,45
 348 751 348 751 373.5 720 c 128,-1,46
 399 689 399 689 443 670.5 c 128,-1,47
 487 652 487 652 547 644 c 128,-1,48
 607 636 607 636 676 636 c 1,49,-1
 649 495 l 1,50,51
 597 495 597 495 545 493.5 c 128,-1,52
 493 492 493 492 445.5 486 c 128,-1,53
 398 480 398 480 356.5 466.5 c 128,-1,54
 315 453 315 453 285 429.5 c 128,-1,55
 255 406 255 406 237.5 369.5 c 128,-1,56
 220 333 220 333 220 281 c 0,57,58
 220 245 220 245 233 214.5 c 128,-1,59
 246 184 246 184 270 162.5 c 128,-1,60
 294 141 294 141 327.5 128.5 c 128,-1,61
 361 116 361 116 401 116 c 0,0,1
EndSplineSet
EndChar

StartChar: zeta
Encoding: 950 950 383
Width: 949
Flags: W
LayerCount: 2
Fore
SplineSet
1033 1484 m 1,0,-1
 1008 1357 l 1,1,2
 932 1284 932 1284 846 1203.5 c 128,-1,3
 760 1123 760 1123 676 1037.5 c 128,-1,4
 592 952 592 952 515 863 c 128,-1,5
 438 774 438 774 379.5 684.5 c 128,-1,6
 321 595 321 595 286 506 c 128,-1,7
 251 417 251 417 251 332 c 0,8,9
 251 289 251 289 266.5 259.5 c 128,-1,10
 282 230 282 230 312.5 208 c 128,-1,11
 343 186 343 186 388.5 170 c 128,-1,12
 434 154 434 154 494 137 c 0,13,14
 551 121 551 121 599.5 103.5 c 128,-1,15
 648 86 648 86 684 61 c 128,-1,16
 720 36 720 36 740.5 1 c 128,-1,17
 761 -34 761 -34 761 -85 c 0,18,19
 761 -128 761 -128 747.5 -166.5 c 128,-1,20
 734 -205 734 -205 713.5 -240.5 c 128,-1,21
 693 -276 693 -276 667.5 -307 c 128,-1,22
 642 -338 642 -338 618 -366 c 1,23,-1
 516 -294 l 1,24,25
 528 -280 528 -280 542.5 -262.5 c 128,-1,26
 557 -245 557 -245 569 -224.5 c 128,-1,27
 581 -204 581 -204 589 -182.5 c 128,-1,28
 597 -161 597 -161 597 -140 c 0,29,30
 597 -113 597 -113 582 -93.5 c 128,-1,31
 567 -74 567 -74 537.5 -58 c 128,-1,32
 508 -42 508 -42 464.5 -28.5 c 128,-1,33
 421 -15 421 -15 365 -1 c 0,34,35
 302 15 302 15 247 37.5 c 128,-1,36
 192 60 192 60 150.5 94.5 c 128,-1,37
 109 129 109 129 85 178 c 128,-1,38
 61 227 61 227 61 294 c 0,39,40
 61 387 61 387 96 482 c 128,-1,41
 131 577 131 577 190.5 670.5 c 128,-1,42
 250 764 250 764 328 855.5 c 128,-1,43
 406 947 406 947 492.5 1033.5 c 128,-1,44
 579 1120 579 1120 668 1200.5 c 128,-1,45
 757 1281 757 1281 837 1353 c 1,46,-1
 838 1359 l 1,47,48
 826 1358 826 1358 802 1357 c 128,-1,49
 778 1356 778 1356 751 1355 c 128,-1,50
 724 1354 724 1354 699.5 1353.5 c 128,-1,51
 675 1353 675 1353 664 1353 c 2,52,-1
 365 1353 l 1,53,-1
 391 1484 l 1,54,-1
 1033 1484 l 1,0,-1
EndSplineSet
EndChar

StartChar: eta
Encoding: 951 951 384
Width: 1137
Flags: W
LayerCount: 2
Fore
SplineSet
634 -425 m 1,0,-1
 843 645 l 2,1,2
 851 684 851 684 856 724.5 c 128,-1,3
 861 765 861 765 861 795 c 0,4,5
 861 874 861 874 819 918 c 128,-1,6
 777 962 777 962 682 962 c 0,7,8
 618 962 618 962 561.5 936.5 c 128,-1,9
 505 911 505 911 459 864.5 c 128,-1,10
 413 818 413 818 380.5 752.5 c 128,-1,11
 348 687 348 687 332 606 c 2,12,-1
 214 0 l 1,13,-1
 34 0 l 1,14,-1
 189 789 l 2,15,16
 194 812 194 812 197.5 835 c 128,-1,17
 201 858 201 858 203.5 879 c 128,-1,18
 206 900 206 900 207.5 917 c 128,-1,19
 209 934 209 934 209 944 c 0,20,21
 209 955 209 955 208 973.5 c 128,-1,22
 207 992 207 992 206 1011.5 c 128,-1,23
 205 1031 205 1031 203.5 1050 c 128,-1,24
 202 1069 202 1069 200 1082 c 1,25,-1
 366 1082 l 1,26,27
 369 1070 369 1070 372 1048 c 128,-1,28
 375 1026 375 1026 377 999.5 c 128,-1,29
 379 973 379 973 380 946 c 128,-1,30
 381 919 381 919 381 897 c 1,31,-1
 384 897 l 1,32,33
 418 944 418 944 454 982 c 128,-1,34
 490 1020 490 1020 533.5 1046.5 c 128,-1,35
 577 1073 577 1073 629.5 1087 c 128,-1,36
 682 1101 682 1101 749 1101 c 0,37,38
 897 1101 897 1101 971.5 1028 c 128,-1,39
 1046 955 1046 955 1046 817 c 0,40,41
 1046 781 1046 781 1039.5 736 c 128,-1,42
 1033 691 1033 691 1025 653 c 2,43,-1
 815 -425 l 1,44,-1
 634 -425 l 1,0,-1
EndSplineSet
EndChar

StartChar: theta
Encoding: 952 952 385
Width: 1111
Flags: W
LayerCount: 2
Fore
SplineSet
728 1484 m 0,0,1
 913 1484 913 1484 1003 1367.5 c 128,-1,2
 1093 1251 1093 1251 1093 1028 c 0,3,4
 1093 964 1093 964 1084 882 c 128,-1,5
 1075 800 1075 800 1058 709 c 0,6,7
 1021 519 1021 519 965.5 381 c 128,-1,8
 910 243 910 243 836 154 c 128,-1,9
 762 65 762 65 668 22.5 c 128,-1,10
 574 -20 574 -20 460 -20 c 0,11,12
 378 -20 378 -20 312 9.5 c 128,-1,13
 246 39 246 39 199 99 c 128,-1,14
 152 159 152 159 126.5 248.5 c 128,-1,15
 101 338 101 338 101 458 c 0,16,17
 101 516 101 516 108 589.5 c 128,-1,18
 115 663 115 663 131 743 c 0,19,20
 204 1117 204 1117 350 1300.5 c 128,-1,21
 496 1484 496 1484 728 1484 c 0,0,1
467 113 m 0,22,23
 529 113 529 113 585 139 c 128,-1,24
 641 165 641 165 691 229 c 128,-1,25
 741 293 741 293 784 401 c 128,-1,26
 827 509 827 509 862 673 c 1,27,-1
 303 673 l 1,28,29
 289 592 289 592 283 526 c 128,-1,30
 277 460 277 460 277 406 c 0,31,32
 277 323 277 323 291 266.5 c 128,-1,33
 305 210 305 210 330.5 176 c 128,-1,34
 356 142 356 142 391 127.5 c 128,-1,35
 426 113 426 113 467 113 c 0,22,23
720 1355 m 0,36,37
 659 1355 659 1355 603 1329.5 c 128,-1,38
 547 1304 547 1304 498 1241 c 128,-1,39
 449 1178 449 1178 407 1071.5 c 128,-1,40
 365 965 365 965 330 804 c 1,41,-1
 890 804 l 1,42,43
 904 886 904 886 910.5 953 c 128,-1,44
 917 1020 917 1020 917 1074 c 0,45,46
 917 1154 917 1154 903 1208 c 128,-1,47
 889 1262 889 1262 863.5 1294.5 c 128,-1,48
 838 1327 838 1327 801.5 1341 c 128,-1,49
 765 1355 765 1355 720 1355 c 0,36,37
EndSplineSet
EndChar

StartChar: iota
Encoding: 953 953 386
Width: 455
Flags: W
LayerCount: 2
Fore
SplineSet
244 139 m 0,0,1
 244 101 244 101 256.5 65 c 128,-1,2
 269 29 269 29 289 0 c 1,3,-1
 91 0 l 1,4,5
 77 20 77 20 70 52.5 c 128,-1,6
 63 85 63 85 63 125 c 0,7,8
 63 152 63 152 66 180.5 c 128,-1,9
 69 209 69 209 74 236 c 2,10,-1
 239 1082 l 1,11,-1
 419 1082 l 1,12,-1
 253 227 l 2,13,14
 249 207 249 207 246.5 182 c 128,-1,15
 244 157 244 157 244 139 c 0,0,1
EndSplineSet
EndChar

StartChar: kappa
Encoding: 954 954 387
Width: 1024
Flags: W
LayerCount: 2
Fore
SplineSet
721 0 m 1,0,-1
 453 502 l 1,1,-1
 285 378 l 1,2,-1
 213 0 l 1,3,-1
 34 0 l 1,4,-1
 244 1082 l 1,5,-1
 424 1082 l 1,6,-1
 323 567 l 1,7,-1
 527 757 l 1,8,-1
 888 1082 l 1,9,-1
 1110 1082 l 1,10,-1
 580 617 l 1,11,-1
 916 0 l 1,12,-1
 721 0 l 1,0,-1
EndSplineSet
EndChar

StartChar: lambda
Encoding: 955 955 388
Width: 1008
Flags: W
LayerCount: 2
Fore
SplineSet
556 981 m 1,0,-1
 539 1080 l 2,1,2
 527 1154 527 1154 515 1203.5 c 128,-1,3
 503 1253 503 1253 487 1283.5 c 128,-1,4
 471 1314 471 1314 447 1327 c 128,-1,5
 423 1340 423 1340 387 1340 c 0,6,7
 368 1340 368 1340 347 1336 c 128,-1,8
 326 1332 326 1332 318 1330 c 1,9,-1
 294 1460 l 1,10,11
 308 1465 308 1465 326.5 1469 c 128,-1,12
 345 1473 345 1473 365.5 1476.5 c 128,-1,13
 386 1480 386 1480 406 1482 c 128,-1,14
 426 1484 426 1484 442 1484 c 0,15,16
 496 1484 496 1484 535 1466 c 128,-1,17
 574 1448 574 1448 603.5 1407.5 c 128,-1,18
 633 1367 633 1367 654 1301.5 c 128,-1,19
 675 1236 675 1236 693 1141 c 2,20,-1
 899 0 l 1,21,-1
 719 0 l 1,22,-1
 595 766 l 1,23,-1
 104 0 l 1,24,-1
 -93 0 l 1,25,-1
 556 981 l 1,0,-1
EndSplineSet
EndChar

StartChar: mu
Encoding: 956 956 389
Width: 1122
Flags: W
LayerCount: 2
Fore
SplineSet
716 0 m 1,0,1
 717 6 717 6 720 29 c 128,-1,2
 723 52 723 52 726.5 81.5 c 128,-1,3
 730 111 730 111 734.5 141 c 128,-1,4
 739 171 739 171 743 190 c 1,5,-1
 739 190 l 1,6,7
 711 140 711 140 682.5 101 c 128,-1,8
 654 62 654 62 620 35 c 128,-1,9
 586 8 586 8 546 -6 c 128,-1,10
 506 -20 506 -20 456 -20 c 0,11,12
 417 -20 417 -20 381 -12 c 128,-1,13
 345 -4 345 -4 316 12 c 128,-1,14
 287 28 287 28 266 50.5 c 128,-1,15
 245 73 245 73 234 102 c 1,16,-1
 230 102 l 1,17,18
 227 70 227 70 221.5 38.5 c 128,-1,19
 216 7 216 7 211 -20 c 2,20,-1
 138 -393 l 1,21,-1
 -43 -393 l 1,22,-1
 243 1082 l 1,23,-1
 425 1082 l 1,24,-1
 300 438 l 2,25,26
 288 377 288 377 288 323 c 0,27,28
 288 277 288 277 298.5 240 c 128,-1,29
 309 203 309 203 333 176.5 c 128,-1,30
 357 150 357 150 395 135.5 c 128,-1,31
 433 121 433 121 487 121 c 0,32,33
 547 121 547 121 596.5 147 c 128,-1,34
 646 173 646 173 684.5 218.5 c 128,-1,35
 723 264 723 264 749 327 c 128,-1,36
 775 390 775 390 788 465 c 1,37,-1
 908 1082 l 1,38,-1
 1089 1082 l 1,39,-1
 924 233 l 2,40,41
 917 199 917 199 910.5 161 c 128,-1,42
 904 123 904 123 898 89.5 c 128,-1,43
 892 56 892 56 888.5 31.5 c 128,-1,44
 885 7 885 7 884 0 c 1,45,-1
 716 0 l 1,0,1
EndSplineSet
EndChar

StartChar: nu
Encoding: 957 957 390
Width: 1024
Flags: W
LayerCount: 2
Fore
SplineSet
417 166 m 1,0,1
 515 278 515 278 591.5 375.5 c 128,-1,2
 668 473 668 473 721 566.5 c 128,-1,3
 774 660 774 660 802 756.5 c 128,-1,4
 830 853 830 853 830 962 c 0,5,6
 830 997 830 997 826 1026.5 c 128,-1,7
 822 1056 822 1056 816 1082 c 1,8,-1
 993 1082 l 1,9,10
 1011 1031 1011 1031 1011 963 c 0,11,12
 1011 838 1011 838 962 713.5 c 128,-1,13
 913 589 913 589 833.5 467.5 c 128,-1,14
 754 346 754 346 653.5 228.5 c 128,-1,15
 553 111 553 111 449 0 c 1,16,-1
 281 0 l 1,17,-1
 99 1082 l 1,18,-1
 287 1082 l 1,19,-1
 417 166 l 1,0,1
EndSplineSet
EndChar

StartChar: xi
Encoding: 958 958 391
Width: 915
Flags: W
LayerCount: 2
Fore
SplineSet
968 1359 m 1,0,1
 914 1353 914 1353 859 1344 c 128,-1,2
 804 1335 804 1335 753.5 1321 c 128,-1,3
 703 1307 703 1307 659 1287 c 128,-1,4
 615 1267 615 1267 582 1239 c 128,-1,5
 549 1211 549 1211 530.5 1173 c 128,-1,6
 512 1135 512 1135 512 1085 c 0,7,8
 512 1027 512 1027 538.5 989.5 c 128,-1,9
 565 952 565 952 609.5 929 c 128,-1,10
 654 906 654 906 711.5 894.5 c 128,-1,11
 769 883 769 883 831 877 c 1,12,-1
 806 746 l 1,13,14
 741 738 741 738 674.5 722.5 c 128,-1,15
 608 707 608 707 545.5 683.5 c 128,-1,16
 483 660 483 660 428.5 627 c 128,-1,17
 374 594 374 594 333 550.5 c 128,-1,18
 292 507 292 507 268.5 453 c 128,-1,19
 245 399 245 399 245 332 c 0,20,21
 245 289 245 289 260.5 259.5 c 128,-1,22
 276 230 276 230 306.5 208 c 128,-1,23
 337 186 337 186 382.5 170 c 128,-1,24
 428 154 428 154 488 137 c 0,25,26
 545 121 545 121 593.5 103.5 c 128,-1,27
 642 86 642 86 678 61 c 128,-1,28
 714 36 714 36 734.5 1 c 128,-1,29
 755 -34 755 -34 755 -85 c 0,30,31
 755 -128 755 -128 741.5 -166.5 c 128,-1,32
 728 -205 728 -205 707.5 -240.5 c 128,-1,33
 687 -276 687 -276 661.5 -307 c 128,-1,34
 636 -338 636 -338 612 -366 c 1,35,-1
 510 -294 l 1,36,37
 522 -280 522 -280 536.5 -262.5 c 128,-1,38
 551 -245 551 -245 563 -224.5 c 128,-1,39
 575 -204 575 -204 583 -182.5 c 128,-1,40
 591 -161 591 -161 591 -140 c 0,41,42
 591 -113 591 -113 576 -93.5 c 128,-1,43
 561 -74 561 -74 531.5 -58 c 128,-1,44
 502 -42 502 -42 458.5 -28.5 c 128,-1,45
 415 -15 415 -15 359 -1 c 0,46,47
 296 15 296 15 241 38.5 c 128,-1,48
 186 62 186 62 144.5 98 c 128,-1,49
 103 134 103 134 79 186 c 128,-1,50
 55 238 55 238 55 310 c 0,51,52
 55 402 55 402 93 484.5 c 128,-1,53
 131 567 131 567 202.5 633 c 128,-1,54
 274 699 274 699 376 745 c 128,-1,55
 478 791 478 791 606 810 c 1,56,-1
 606 815 l 1,57,58
 552 824 552 824 502 845 c 128,-1,59
 452 866 452 866 414 899 c 128,-1,60
 376 932 376 932 353 975.5 c 128,-1,61
 330 1019 330 1019 330 1073 c 0,62,63
 330 1143 330 1143 363.5 1191.5 c 128,-1,64
 397 1240 397 1240 447.5 1272.5 c 128,-1,65
 498 1305 498 1305 557 1324 c 128,-1,66
 616 1343 616 1343 667 1353 c 1,67,-1
 668 1361 l 1,68,69
 660 1361 660 1361 641 1360 c 128,-1,70
 622 1359 622 1359 597 1358 c 128,-1,71
 572 1357 572 1357 543.5 1356 c 128,-1,72
 515 1355 515 1355 488.5 1354.5 c 128,-1,73
 462 1354 462 1354 440 1353.5 c 128,-1,74
 418 1353 418 1353 406 1353 c 2,75,-1
 332 1353 l 1,76,-1
 358 1484 l 1,77,-1
 992 1484 l 1,78,-1
 968 1359 l 1,0,1
EndSplineSet
EndChar

StartChar: pi
Encoding: 960 960 393
Width: 1372
Flags: W
LayerCount: 2
Fore
SplineSet
1011 266 m 2,0,1
 1008 251 1008 251 1006 233.5 c 128,-1,2
 1004 216 1004 216 1004 203 c 0,3,4
 1004 155 1004 155 1025.5 138 c 128,-1,5
 1047 121 1047 121 1076 121 c 0,6,7
 1098 121 1098 121 1122.5 125.5 c 128,-1,8
 1147 130 1147 130 1171 136 c 1,9,-1
 1156 2 l 1,10,11
 1122 -7 1122 -7 1083.5 -13.5 c 128,-1,12
 1045 -20 1045 -20 1002 -20 c 0,13,14
 908 -20 908 -20 865 31.5 c 128,-1,15
 822 83 822 83 822 173 c 0,16,17
 822 196 822 196 825.5 225 c 128,-1,18
 829 254 829 254 832 271 c 2,19,-1
 963 951 l 1,20,-1
 561 951 l 1,21,-1
 547 879 l 2,22,23
 522 749 522 749 489.5 623 c 128,-1,24
 457 497 457 497 421.5 383 c 128,-1,25
 386 269 386 269 349 171.5 c 128,-1,26
 312 74 312 74 279 0 c 1,27,-1
 91 0 l 1,28,29
 125 76 125 76 163.5 174.5 c 128,-1,30
 202 273 202 273 240 386 c 128,-1,31
 278 499 278 499 312 622.5 c 128,-1,32
 346 746 346 746 370 871 c 0,33,34
 371 873 371 873 373 885.5 c 128,-1,35
 375 898 375 898 378 913 c 0,36,37
 382 931 382 931 385 951 c 1,38,39
 346 951 346 951 306 948 c 128,-1,40
 266 945 266 945 230.5 939.5 c 128,-1,41
 195 934 195 934 167.5 927.5 c 128,-1,42
 140 921 140 921 126 914 c 1,43,-1
 153 1053 l 1,44,45
 167 1059 167 1059 189.5 1064.5 c 128,-1,46
 212 1070 212 1070 238 1074 c 128,-1,47
 264 1078 264 1078 291.5 1080 c 128,-1,48
 319 1082 319 1082 342 1082 c 2,49,-1
 1403 1082 l 1,50,-1
 1377 951 l 1,51,-1
 1143 951 l 1,52,-1
 1011 266 l 2,0,1
EndSplineSet
EndChar

StartChar: rho
Encoding: 961 961 394
Width: 1173
Flags: W
LayerCount: 2
Fore
SplineSet
680 1102 m 0,0,1
 778 1102 778 1102 857.5 1070.5 c 128,-1,2
 937 1039 937 1039 993 981 c 128,-1,3
 1049 923 1049 923 1079.5 840 c 128,-1,4
 1110 757 1110 757 1110 653 c 0,5,6
 1110 617 1110 617 1106 576 c 128,-1,7
 1102 535 1102 535 1094 493 c 0,8,9
 1071 375 1071 375 1022 280 c 128,-1,10
 973 185 973 185 903 118.5 c 128,-1,11
 833 52 833 52 745.5 16 c 128,-1,12
 658 -20 658 -20 558 -20 c 0,13,14
 499 -20 499 -20 451 -9 c 128,-1,15
 403 2 403 2 363.5 21.5 c 128,-1,16
 324 41 324 41 293 67 c 128,-1,17
 262 93 262 93 236 123 c 1,18,-1
 232 123 l 1,19,20
 228 93 228 93 223.5 62.5 c 128,-1,21
 219 32 219 32 213 0 c 2,22,-1
 130 -425 l 1,23,-1
 -50 -425 l 1,24,-1
 145 581 l 2,25,26
 168 701 168 701 211 797.5 c 128,-1,27
 254 894 254 894 319.5 961.5 c 128,-1,28
 385 1029 385 1029 474.5 1065.5 c 128,-1,29
 564 1102 564 1102 680 1102 c 0,0,1
664 969 m 0,30,31
 589 969 589 969 533.5 941 c 128,-1,32
 478 913 478 913 437.5 861.5 c 128,-1,33
 397 810 397 810 369.5 737.5 c 128,-1,34
 342 665 342 665 325 577 c 2,35,-1
 263 260 l 1,36,37
 284 233 284 233 315.5 206.5 c 128,-1,38
 347 180 347 180 384.5 159.5 c 128,-1,39
 422 139 422 139 464 126 c 128,-1,40
 506 113 506 113 550 113 c 0,41,42
 621 113 621 113 678.5 140 c 128,-1,43
 736 167 736 167 779.5 218 c 128,-1,44
 823 269 823 269 853.5 342.5 c 128,-1,45
 884 416 884 416 902 508 c 0,46,47
 918 587 918 587 918 658 c 0,48,49
 918 810 918 810 850.5 889.5 c 128,-1,50
 783 969 783 969 664 969 c 0,30,31
EndSplineSet
EndChar

StartChar: sigma1
Encoding: 962 962 395
Width: 996
Flags: W
LayerCount: 2
Fore
SplineSet
67 330 m 0,0,1
 67 404 67 404 83.5 490 c 128,-1,2
 100 576 100 576 133 661.5 c 128,-1,3
 166 747 166 747 216 827 c 128,-1,4
 266 907 266 907 334 968 c 128,-1,5
 402 1029 402 1029 487.5 1065.5 c 128,-1,6
 573 1102 573 1102 676 1102 c 0,7,8
 738 1102 738 1102 785.5 1092 c 128,-1,9
 833 1082 833 1082 870.5 1063.5 c 128,-1,10
 908 1045 908 1045 937 1019.5 c 128,-1,11
 966 994 966 994 990 963 c 1,12,-1
 854 855 l 1,13,14
 820 900 820 900 772.5 930.5 c 128,-1,15
 725 961 725 961 662 961 c 0,16,17
 601 961 601 961 547.5 934 c 128,-1,18
 494 907 494 907 449 861 c 128,-1,19
 404 815 404 815 368.5 754 c 128,-1,20
 333 693 333 693 308.5 624.5 c 128,-1,21
 284 556 284 556 271 484 c 128,-1,22
 258 412 258 412 258 344 c 0,23,24
 258 298 258 298 273.5 266 c 128,-1,25
 289 234 289 234 319 211 c 128,-1,26
 349 188 349 188 394.5 171 c 128,-1,27
 440 154 440 154 500 137 c 0,28,29
 557 121 557 121 605.5 103.5 c 128,-1,30
 654 86 654 86 690 61 c 128,-1,31
 726 36 726 36 746.5 1 c 128,-1,32
 767 -34 767 -34 767 -85 c 0,33,34
 767 -128 767 -128 753.5 -166.5 c 128,-1,35
 740 -205 740 -205 719.5 -240.5 c 128,-1,36
 699 -276 699 -276 673.5 -307 c 128,-1,37
 648 -338 648 -338 624 -366 c 1,38,-1
 522 -294 l 1,39,40
 534 -280 534 -280 548.5 -262.5 c 128,-1,41
 563 -245 563 -245 575 -224.5 c 128,-1,42
 587 -204 587 -204 595 -182.5 c 128,-1,43
 603 -161 603 -161 603 -140 c 0,44,45
 603 -113 603 -113 588 -93.5 c 128,-1,46
 573 -74 573 -74 543.5 -58 c 128,-1,47
 514 -42 514 -42 470.5 -28.5 c 128,-1,48
 427 -15 427 -15 371 -1 c 0,49,50
 308 15 308 15 253 39 c 128,-1,51
 198 63 198 63 156.5 101.5 c 128,-1,52
 115 140 115 140 91 196 c 128,-1,53
 67 252 67 252 67 330 c 0,0,1
EndSplineSet
EndChar

StartChar: sigma
Encoding: 963 963 396
Width: 1235
Flags: W
LayerCount: 2
Fore
SplineSet
490 -20 m 0,0,1
 386 -20 386 -20 307 11 c 128,-1,2
 228 42 228 42 175 98 c 128,-1,3
 122 154 122 154 95 234 c 128,-1,4
 68 314 68 314 68 411 c 0,5,6
 68 447 68 447 71.5 489 c 128,-1,7
 75 531 75 531 83 571 c 0,8,9
 111 715 111 715 174.5 813 c 128,-1,10
 238 911 238 911 326.5 970.5 c 128,-1,11
 415 1030 415 1030 522.5 1056 c 128,-1,12
 630 1082 630 1082 747 1082 c 2,13,-1
 1299 1082 l 1,14,-1
 1273 951 l 1,15,-1
 1128 951 l 2,16,17
 1119 951 1119 951 1101.5 951.5 c 128,-1,18
 1084 952 1084 952 1063 953 c 128,-1,19
 1042 954 1042 954 1020.5 955 c 128,-1,20
 999 956 999 956 982 957 c 1,21,-1
 981 953 l 1,22,23
 1010 892 1010 892 1033.5 810.5 c 128,-1,24
 1057 729 1057 729 1057 632 c 0,25,26
 1057 498 1057 498 1022.5 379 c 128,-1,27
 988 260 988 260 918 171.5 c 128,-1,28
 848 83 848 83 741.5 31.5 c 128,-1,29
 635 -20 635 -20 490 -20 c 0,0,1
500 113 m 0,30,31
 605 113 605 113 676 155 c 128,-1,32
 747 197 747 197 790.5 272 c 128,-1,33
 834 347 834 347 853 451.5 c 128,-1,34
 872 556 872 556 872 681 c 0,35,36
 872 762 872 762 860.5 829.5 c 128,-1,37
 849 897 849 897 833 951 c 1,38,-1
 750 951 l 2,39,40
 668 951 668 951 591 931 c 128,-1,41
 514 911 514 911 450 864.5 c 128,-1,42
 386 818 386 818 339.5 743 c 128,-1,43
 293 668 293 668 272 558 c 0,44,45
 264 517 264 517 260 480.5 c 128,-1,46
 256 444 256 444 256 409 c 0,47,48
 256 270 256 270 319 191.5 c 128,-1,49
 382 113 382 113 500 113 c 0,30,31
EndSplineSet
EndChar

StartChar: tau
Encoding: 964 964 397
Width: 766
Flags: W
LayerCount: 2
Fore
SplineSet
334 951 m 2,0,1
 295 951 295 951 255 948 c 128,-1,2
 215 945 215 945 179.5 939.5 c 128,-1,3
 144 934 144 934 116.5 927.5 c 128,-1,4
 89 921 89 921 75 914 c 1,5,-1
 102 1053 l 1,6,7
 116 1059 116 1059 138.5 1064.5 c 128,-1,8
 161 1070 161 1070 187 1074 c 128,-1,9
 213 1078 213 1078 240.5 1080 c 128,-1,10
 268 1082 268 1082 291 1082 c 2,11,-1
 871 1082 l 1,12,-1
 845 951 l 1,13,-1
 541 951 l 1,14,-1
 408 266 l 2,15,16
 405 251 405 251 403 233.5 c 128,-1,17
 401 216 401 216 401 203 c 0,18,19
 401 155 401 155 422.5 138 c 128,-1,20
 444 121 444 121 473 121 c 0,21,22
 495 121 495 121 519.5 125.5 c 128,-1,23
 544 130 544 130 568 136 c 1,24,-1
 553 2 l 1,25,26
 519 -7 519 -7 480.5 -13.5 c 128,-1,27
 442 -20 442 -20 399 -20 c 0,28,29
 305 -20 305 -20 262 31.5 c 128,-1,30
 219 83 219 83 219 173 c 0,31,32
 219 196 219 196 222 224.5 c 128,-1,33
 225 253 225 253 229 271 c 2,34,-1
 361 951 l 1,35,-1
 334 951 l 2,0,1
EndSplineSet
EndChar

